<svg xmlns="http://www.w3.org/2000/svg" xmlns:svg="http://www.w3.org/2000/svg" id="svg2" width="32" height="32" version="1.1"><metadata id="metadata7"/><g id="layer1" transform="translate(0,-1020.3622)"><ellipse style="fill:#4d4d4b;fill-opacity:1;stroke:#000;stroke-width:1.00027561;stroke-miterlimit:4;stroke-dasharray:none;stroke-opacity:1" id="path3772-7" cx="878.237" cy="-562.873" rx="3.167" ry="1.464" transform="matrix(0.55306767,0.83313634,0.85103596,-0.52510741,0,0)"/><ellipse style="fill:#fff;fill-opacity:1;stroke:#000;stroke-width:1.00012743;stroke-miterlimit:4;stroke-dasharray:none;stroke-opacity:1" id="path3772" cx="951.325" cy="-359.879" rx="3.042" ry="1.519" transform="matrix(0.36162978,0.93232178,0.92392008,-0.38258554,0,0)"/><path style="fill:#fff;fill-opacity:1;stroke:#000;stroke-width:1;stroke-miterlimit:4;stroke-dasharray:none;stroke-opacity:1" id="path3796-6" d="m 21.845913,1041.8341 a 1.9873446,2.7105336 29.244869 0 0 -0.368213,-3.3547 1.9873446,2.7105336 29.244869 0 0 -3.06356,1.3487 1.9873446,2.7105336 29.244869 0 0 0.368248,3.3545 1.9873446,2.7105336 29.244869 0 0 3.063486,-1.3486 z"/><path style="fill:#fff;fill-opacity:1;stroke:#000;stroke-width:1;stroke-miterlimit:4;stroke-dasharray:none;stroke-opacity:1" id="path3766-84" d="m 19.763913,1042.1833 a 1.1225084,2.0604898 55.140633 0 0 2.330773,-0.2535 1.1225084,2.0604898 55.140633 0 0 1.052616,-2.0991 1.1225084,2.0604898 55.140633 0 0 -2.330772,0.2535 1.1225084,2.0604898 55.140633 0 0 -1.052617,2.0991 z"/><ellipse style="fill:#fff;fill-opacity:1;stroke:#000;stroke-width:1.00000036;stroke-miterlimit:4;stroke-dasharray:none;stroke-opacity:1" id="path3768-5" cx="-19.799" cy="1040.003" rx="5.402" ry="7.47" transform="matrix(-0.99999422,-0.00340142,-0.00460693,0.99998939,0,0)"/><ellipse style="fill:#fff;fill-opacity:1;stroke:#000;stroke-width:1.00172198;stroke-miterlimit:4;stroke-dasharray:none;stroke-opacity:1" id="path3770" cx="821.3" cy="557.848" rx="3.814" ry="3.777" transform="matrix(-0.53059403,0.84762608,0.80077327,0.59896759,0,0)"/><ellipse style="fill:#fff;fill-opacity:1;stroke:#000;stroke-width:1.00013208;stroke-miterlimit:4;stroke-dasharray:none;stroke-opacity:1" id="path3792-5-0" cx="-1029.6" cy="154.268" rx="1.45" ry="3.822" transform="matrix(-0.15508054,-0.98790183,-0.99120477,0.13233708,0,0)"/><circle transform="matrix(-0.8660254,0.5,0.5,0.8660254,0,0)" style="fill:#fff;fill-opacity:1;stroke:#000;stroke-width:1;stroke-miterlimit:4;stroke-dasharray:none;stroke-opacity:1" id="path3794-4" cx="504.173" cy="897.224" r=".391"/><ellipse style="fill:#fff;fill-opacity:1;stroke:#000;stroke-width:1;stroke-miterlimit:4;stroke-dasharray:none;stroke-opacity:1" id="path3792-4" cx="833.61" cy="-607.791" rx="1.422" ry="3.804" transform="matrix(0.60493781,0.79627272,0.79627272,-0.60493781,0,0)"/><path style="fill:#fff;fill-opacity:1;stroke:#000;stroke-width:.99999994;stroke-miterlimit:4;stroke-dasharray:none;stroke-opacity:1" id="path3796-7-5" d="m 13.593978,1047.2866 a 1.9462298,3.2893836 0.996912 0 1 -2.000043,3.2605 1.9462298,3.2893836 0.996912 0 1 -1.8920115,-3.3173 1.9462298,3.2893836 0.996912 0 1 2.0000405,-3.2605 1.9462298,3.2893836 0.996912 0 1 1.892014,3.3173 z"/><path style="fill:#fff;fill-opacity:1;stroke:#000;stroke-width:1;stroke-miterlimit:4;stroke-dasharray:none;stroke-opacity:1" id="path3766-8-2" d="m 13.223932,1049.8362 a 1.1225084,2.0604898 69.065392 0 1 -1.519955,1.7851 1.1225084,2.0604898 69.065392 0 1 -2.3278085,-0.3095 1.1225084,2.0604898 69.065392 0 1 1.5199535,-1.7851 1.1225084,2.0604898 69.065392 0 1 2.32781,0.3095 z"/><circle transform="matrix(-0.8660254,0.5,0.5,0.8660254,0,0)" style="fill:#fff;fill-opacity:1;stroke:#000;stroke-width:1;stroke-miterlimit:4;stroke-dasharray:none;stroke-opacity:1" id="path3794-4-3" cx="507.165" cy="897.031" r=".391"/></g></svg>