<svg xmlns="http://www.w3.org/2000/svg" xmlns:svg="http://www.w3.org/2000/svg" id="svg2" width="32" height="32" version="1.1"><metadata id="metadata7"/><g id="layer1" transform="translate(0,-1020.3622)"><ellipse style="opacity:.2;fill:#000;fill-opacity:1;stroke-width:1;stroke-miterlimit:4;stroke-dasharray:none" id="path11669-2-9-0-4" cx="11.991" cy="1041.575" rx="5.866" ry="6.054"/><ellipse style="opacity:.2;fill:#000;fill-opacity:1;stroke-width:1;stroke-miterlimit:4;stroke-dasharray:none" id="path11669-2-9-0" cx="10.235" cy="1036.809" rx="5.866" ry="6.054"/><ellipse style="opacity:.2;fill:#000;fill-opacity:1;stroke-width:1;stroke-miterlimit:4;stroke-dasharray:none" id="path11669-8-2-8-4-2" cx="24.283" cy="1034.1" rx="3.083" ry="3.008"/><ellipse style="opacity:.2;fill:#000;fill-opacity:1;stroke-width:1;stroke-miterlimit:4;stroke-dasharray:none" id="path11669-2-9" cx="11.991" cy="1029.986" rx="5.866" ry="6.054"/><ellipse style="opacity:.02000002;fill:#000;fill-opacity:1;stroke-width:1;stroke-miterlimit:4;stroke-dasharray:none" id="path11669-2" cx="6.121" cy="1026.725" rx="5.866" ry="6.054"/><ellipse style="opacity:.02000002;fill:#000;fill-opacity:1;stroke-width:1;stroke-miterlimit:4;stroke-dasharray:none" id="path11669-8-2" cx="19.316" cy="1026.173" rx="3.083" ry="3.008"/><ellipse style="opacity:.2;fill:#000;fill-opacity:1;stroke-width:1;stroke-miterlimit:4;stroke-dasharray:none" id="path11669-8-2-8-4" cx="20.846" cy="1031.641" rx="2.707" ry="2.858"/><ellipse style="opacity:.33000004;fill:#fff;fill-opacity:1;stroke:#000;stroke-width:1.00200331;stroke-miterlimit:4;stroke-dasharray:none;stroke-opacity:1" id="path3772" cx="172.424" cy="1042.089" rx="2.747" ry="1.666" transform="matrix(0.99786183,0.06535871,-0.1542,0.98803966,0,0)"/><ellipse style="opacity:.33;fill:#fff;fill-opacity:1;stroke:#000;stroke-width:1.00190151;stroke-miterlimit:4;stroke-dasharray:none;stroke-opacity:1" id="path3770" cx="-28.572" cy="1045.133" rx="3.773" ry="3.779" transform="matrix(0.99904269,0.04374581,0.04334417,0.9990602,0,0)"/><ellipse style="opacity:.33000004;fill:#4d4d4b;fill-opacity:1;stroke:#000;stroke-width:1.00051284;stroke-miterlimit:4;stroke-dasharray:none;stroke-opacity:1" id="path3772-7" cx="475.588" cy="901.105" rx="2.838" ry="1.468" transform="matrix(0.87484053,0.48441103,-0.44432017,0.89586806,0,0)"/><circle style="opacity:.33;fill:#fff;fill-opacity:1;stroke:#000;stroke-width:1;stroke-miterlimit:4;stroke-dasharray:none;stroke-opacity:1" id="path3794" cx="-171.53" cy="1028.266" r=".465" transform="matrix(0.98393859,-0.17850729,0.17850729,0.98393859,0,0)"/><ellipse style="opacity:.33;fill:#fff;fill-opacity:1;stroke:#000;stroke-width:1;stroke-miterlimit:4;stroke-dasharray:none;stroke-opacity:1" id="path3794-0" cx="-168.232" cy="1028.354" rx=".509" ry=".424" transform="matrix(0.98393859,-0.17850729,0.17850729,0.98393859,0,0)"/><ellipse style="opacity:.1;fill:#000;fill-opacity:1;stroke-width:1;stroke-miterlimit:4;stroke-dasharray:none" id="path11669-8-2-8" cx="23.681" cy="1027.728" rx="3.083" ry="3.008"/><ellipse style="opacity:.2;fill:#000;fill-opacity:1;stroke-width:1;stroke-miterlimit:4;stroke-dasharray:none" id="path11669-8-2-8-4-2-9" cx="21.273" cy="1037.01" rx="3.083" ry="3.008"/><ellipse style="opacity:.2;fill:#000;fill-opacity:1;stroke-width:1;stroke-miterlimit:4;stroke-dasharray:none" id="path11669-8-2-8-4-2-9-4" cx="22.176" cy="1040.221" rx="3.083" ry="3.008"/></g></svg>