<svg xmlns="http://www.w3.org/2000/svg" xmlns:svg="http://www.w3.org/2000/svg" id="svg2" width="32" height="32" version="1.1"><metadata id="metadata7"/><g id="layer1" transform="translate(0,-1020.3622)"><path style="fill:#fff;fill-opacity:1;stroke:#000;stroke-opacity:1;stroke-width:1.07208043;stroke-miterlimit:4;stroke-dasharray:none" id="path3768" d="m 18.631111,21.297777 a 5.3688889,8.6400003 0 0 1 -5.368889,8.640001 5.3688889,8.6400003 0 0 1 -5.3688886,-8.640001 5.3688889,8.6400003 0 0 1 5.3688886,-8.64 5.3688889,8.6400003 0 0 1 5.368889,8.64 z" transform="matrix(1.0062535,-0.00342271,0.00398334,0.8646315,3.4496481,1026.465)"/><path style="fill:#fff;fill-opacity:1;stroke:#000;stroke-opacity:1;stroke-width:.9880876;stroke-miterlimit:4;stroke-dasharray:none" id="path3792-5" d="m 21.191111,22.151112 a 1.4222223,3.8044446 0 0 1 -1.422223,3.804444 1.4222223,3.8044446 0 0 1 -1.422222,-3.804444 1.4222223,3.8044446 0 0 1 1.422222,-3.804445 1.4222223,3.8044446 0 0 1 1.422223,3.804445 z" transform="matrix(-0.47398993,-0.90302053,0.87852584,-0.48720552,14.216632,1067.7971)"/><path style="fill:#fff;fill-opacity:1;stroke:#000;stroke-opacity:1;stroke-width:.99999999;stroke-miterlimit:4;stroke-dasharray:none" id="path3792" d="m 21.191111,22.151112 a 1.4222223,3.8044446 0 0 1 -1.422223,3.804444 1.4222223,3.8044446 0 0 1 -1.422222,-3.804444 1.4222223,3.8044446 0 0 1 1.422222,-3.804445 1.4222223,3.8044446 0 0 1 1.422223,3.804445 z" transform="matrix(-0.28285606,0.95916238,-0.95916238,-0.28285606,36.049425,1027.1475)"/><path style="fill:#fff;fill-opacity:1;stroke:#000;stroke-opacity:1;stroke-width:1.17263751;stroke-miterlimit:4;stroke-dasharray:none" id="path3772" d="M 13.582223,7.6088891 A 3.3777778,1.6355555 0 0 1 10.204445,9.2444446 3.3777778,1.6355555 0 0 1 6.8266671,7.6088891 3.3777778,1.6355555 0 0 1 10.204445,5.9733336 3.3777778,1.6355555 0 0 1 13.582223,7.6088891 Z" transform="matrix(-0.00564597,0.91057899,-0.79840092,-0.03967083,21.621931,1020.5153)"/><path style="fill:#fff;fill-opacity:1;stroke:#000;stroke-width:1;stroke-opacity:1;stroke-miterlimit:4;stroke-dasharray:none" id="path3796" d="m 14.530658,1048.6988 a 1.9462298,3.2893836 0.99691166 0 1 -2.000042,3.2605 1.9462298,3.2893836 0.99691166 0 1 -1.892013,-3.3173 1.9462298,3.2893836 0.99691166 0 1 2.000042,-3.2605 1.9462298,3.2893836 0.99691166 0 1 1.892013,3.3173 z"/><path style="fill:#fff;fill-opacity:1;stroke:#000;stroke-width:1;stroke-opacity:1;stroke-miterlimit:4;stroke-dasharray:none" id="path3766" d="m 14.861256,1051.3426 a 1.1225084,2.0604898 89.923646 0 1 -2.055932,1.1269 1.1225084,2.0604898 89.923646 0 1 -2.065035,-1.1181 1.1225084,2.0604898 89.923646 0 1 2.055932,-1.1269 1.1225084,2.0604898 89.923646 0 1 2.065035,1.1181 z"/><path style="fill:#fff;fill-opacity:1;stroke:#000;stroke-width:1;stroke-opacity:1;stroke-miterlimit:4;stroke-dasharray:none" id="path3796-7" d="m 19.383908,1048.8276 a 3.2893836,1.9462298 89.003088 0 0 2.000042,3.2605 3.2893836,1.9462298 89.003088 0 0 1.892012,-3.3173 3.2893836,1.9462298 89.003088 0 0 -2.000041,-3.2605 3.2893836,1.9462298 89.003088 0 0 -1.892013,3.3173 z"/><path style="fill:#fff;fill-opacity:1;stroke:#000;stroke-width:1;stroke-opacity:1;stroke-miterlimit:4;stroke-dasharray:none" id="path3766-8" d="m 19.05331,1051.4714 a 2.0604898,1.1225084 0.07635384 0 0 2.055932,1.1269 2.0604898,1.1225084 0.07635384 0 0 2.065035,-1.1181 2.0604898,1.1225084 0.07635384 0 0 -2.055932,-1.1269 2.0604898,1.1225084 0.07635384 0 0 -2.065035,1.1181 z"/><path style="fill:#fff;fill-opacity:1;stroke:#000;stroke-opacity:1;stroke-width:1.08619685;stroke-miterlimit:4;stroke-dasharray:none" id="path3770-7" d="M 21.617778,9.8488894 A 4.8355556,3.9466667 0 0 1 16.782223,13.795556 4.8355556,3.9466667 0 0 1 11.946667,9.8488894 4.8355556,3.9466667 0 0 1 16.782223,5.9022226 4.8355556,3.9466667 0 0 1 21.617778,9.8488894 Z" transform="matrix(-0.87317333,0.17144822,0.14907005,0.94142425,28.485424,1022.5485)"/><path style="fill:#4d4d4b;fill-opacity:1;stroke:#000;stroke-opacity:1;stroke-width:1.12541926;stroke-miterlimit:4;stroke-dasharray:none" id="path3772-7" d="M 13.582223,7.6088891 A 3.3777778,1.6355555 0 0 1 10.204445,9.2444446 3.3777778,1.6355555 0 0 1 6.8266671,7.6088891 3.3777778,1.6355555 0 0 1 10.204445,5.9733336 3.3777778,1.6355555 0 0 1 13.582223,7.6088891 Z" transform="matrix(-0.15064928,0.93162182,-0.82124471,-0.16226679,26.354801,1022.1114)"/><path style="fill:#fff;fill-opacity:1;stroke:#000;stroke-opacity:1;stroke-width:1;stroke-miterlimit:4;stroke-dasharray:none" id="path3794" d="M 20.479999,9.7066669 A 0.39111111,0.39111111 0 0 1 20.088888,10.097778 0.39111111,0.39111111 0 0 1 19.697777,9.7066669 0.39111111,0.39111111 0 0 1 20.088888,9.3155558 0.39111111,0.39111111 0 0 1 20.479999,9.7066669 Z" transform="matrix(-1,0,0,1,34.498879,1024.3325)"/><path style="fill:#fff;fill-opacity:1;stroke:#000;stroke-opacity:1;stroke-width:1;stroke-miterlimit:4;stroke-dasharray:none" id="path3794-2" d="M 20.479999,9.7066669 A 0.39111111,0.39111111 0 0 1 20.088888,10.097778 0.39111111,0.39111111 0 0 1 19.697777,9.7066669 0.39111111,0.39111111 0 0 1 20.088888,9.3155558 0.39111111,0.39111111 0 0 1 20.479999,9.7066669 Z" transform="matrix(-1,0,0,1,32.357528,1023.449)"/></g></svg>