<svg xmlns="http://www.w3.org/2000/svg" xmlns:svg="http://www.w3.org/2000/svg" id="svg2" width="96" height="96" version="1.1"><metadata id="metadata7"/><g id="layer1" transform="translate(0,-956.3622)"><g id="g4308" transform="matrix(-0.22747478,0.97378397,-0.97378397,-0.22747478,1057.2379,1199.7892)" style="opacity:.4"><path id="path3766-3" d="m 20.906667,29.475555 c 0,0.648015 -1.512283,1.173334 -3.377778,1.173334 -1.865495,0 -3.377778,-0.525319 -3.377778,-1.173334 0,-0.648014 1.512283,-1.173333 3.377778,-1.173333 1.865495,0 3.377778,0.525319 3.377778,1.173333 z" style="fill:#fff;fill-opacity:1;stroke:#000;stroke-opacity:1" transform="matrix(0.50825872,0.03805256,-0.09563704,1.1025448,44.724407,985.73882)"/><path id="path3796-0" d="m 17.493333,27.946667 c 0,1.256754 -1.655552,2.275555 -3.697778,2.275555 -2.042226,0 -3.697778,-1.018801 -3.697778,-2.275555 0,-1.256755 1.655552,-2.275556 3.697778,-2.275556 2.042226,0 3.697778,1.018801 3.697778,2.275556 z" transform="matrix(0.43753699,-0.0096245,0.02351804,1.0691489,44.148558,986.07253)" style="fill:#fff;fill-opacity:1;stroke:#000;stroke-opacity:1"/></g><path style="opacity:.4;fill:#fff;fill-opacity:1;stroke:#000;stroke-opacity:1" id="path3792-5" d="m 21.191111,22.151112 c 0,2.101136 -0.636751,3.804444 -1.422223,3.804444 -0.785471,0 -1.422222,-1.703308 -1.422222,-3.804444 0,-2.101137 0.636751,-3.804445 1.422222,-3.804445 0.785472,0 1.422223,1.703308 1.422223,3.804445 z" transform="matrix(0.45613362,-0.88991128,0.88991128,0.45613362,33.400497,1023.2815)"/><path style="opacity:.4;fill:#fff;fill-opacity:1;stroke:#000;stroke-opacity:1" id="path3792" d="m 21.191111,22.151112 c 0,2.101136 -0.636751,3.804444 -1.422223,3.804444 -0.785471,0 -1.422222,-1.703308 -1.422222,-3.804444 0,-2.101137 0.636751,-3.804445 1.422222,-3.804445 0.785472,0 1.422223,1.703308 1.422223,3.804445 z" transform="matrix(0.36684062,0.93028383,-0.93028383,0.36684062,41.258537,980.29428)"/><path style="opacity:.4;fill:#fff;fill-opacity:1;stroke:#000;stroke-opacity:1" id="path3772" d="m 13.582223,7.6088891 c 0,0.9032924 -1.512283,1.6355555 -3.377778,1.6355555 -1.8654953,0 -3.3777779,-0.7322631 -3.3777779,-1.6355555 0,-0.9032924 1.5122826,-1.6355555 3.3777779,-1.6355555 1.865495,0 3.377778,0.7322631 3.377778,1.6355555 z" transform="matrix(0.79231939,-0.18325283,0.13999618,1.0089235,19.192319,991.84703)"/><path style="opacity:.4;fill:#4d4d4b;fill-opacity:1;stroke:#000;stroke-opacity:1" id="path3772-7" d="m 13.582223,7.6088891 c 0,0.9032924 -1.512283,1.6355555 -3.377778,1.6355555 -1.8654953,0 -3.3777779,-0.7322631 -3.3777779,-1.6355555 0,-0.9032924 1.5122826,-1.6355555 3.3777779,-1.6355555 1.865495,0 3.377778,0.7322631 3.377778,1.6355555 z" transform="matrix(-0.84013173,-8.1965681e-4,-0.03974365,-0.8965829,70.548238,1007.3661)"/><g id="g4312" transform="matrix(0.05903798,-0.99825573,0.99825573,0.05903798,-982.70434,999.93297)" style="opacity:.4"><path id="path3766" d="m 20.906667,29.475555 c 0,0.648015 -1.512283,1.173334 -3.377778,1.173334 -1.865495,0 -3.377778,-0.525319 -3.377778,-1.173334 0,-0.648014 1.512283,-1.173333 3.377778,-1.173333 1.865495,0 3.377778,0.525319 3.377778,1.173333 z" transform="matrix(0.49816262,0.01101159,-0.0259843,0.98356126,33.573584,989.84933)" style="fill:#fff;fill-opacity:1;stroke:#000;stroke-opacity:1"/><path id="path3796" d="m 17.493333,27.946667 c 0,1.256754 -1.655552,2.275555 -3.697778,2.275555 -2.042226,0 -3.697778,-1.018801 -3.697778,-2.275555 0,-1.256755 1.655552,-2.275556 3.697778,-2.275556 2.042226,0 3.697778,1.018801 3.697778,2.275556 z" transform="matrix(0.39355872,-0.00844164,0.02458259,1.1460676,35.437939,984.17466)" style="fill:#fff;fill-opacity:1;stroke:#000;stroke-opacity:1"/></g><g id="g4303" transform="matrix(0.2650386,-0.96423781,0.96423781,0.2650386,-935.34621,783.8518)" style="opacity:.4"><path id="path3770" d="m 21.617778,9.8488894 c 0,2.1796836 -2.164952,3.9466666 -4.835555,3.9466666 -2.670604,0 -4.835556,-1.766983 -4.835556,-3.9466666 0,-2.1796839 2.164952,-3.9466668 4.835556,-3.9466668 2.670603,0 4.835555,1.7669829 4.835555,3.9466668 z" transform="matrix(0.77053203,0.12335422,-0.06851811,0.95498434,34.228385,987.9455)" style="fill:#fff;fill-opacity:1;stroke:#000;stroke-opacity:1"/><path id="path3794" d="m 20.479999,9.7066669 c 0,0.2160047 -0.175106,0.3911111 -0.391111,0.3911111 -0.216005,0 -0.391111,-0.1751064 -0.391111,-0.3911111 0,-0.2160047 0.175106,-0.3911111 0.391111,-0.3911111 0.216005,0 0.391111,0.1751064 0.391111,0.3911111 z" transform="matrix(1.1870228,-0.07665294,0.07665294,1.1870228,20.141619,989.3872)" style="fill:#fff;fill-opacity:1;stroke:#000;stroke-opacity:1"/><path id="path3794-0" d="m 20.479999,9.7066669 c 0,0.2160047 -0.175106,0.3911111 -0.391111,0.3911111 -0.216005,0 -0.391111,-0.1751064 -0.391111,-0.3911111 0,-0.2160047 0.175106,-0.3911111 0.391111,-0.3911111 0.216005,0 0.391111,0.1751064 0.391111,0.3911111 z" transform="matrix(1.2974769,-0.0837856,0.06987435,1.0820517,21.285742,990.4248)" style="fill:#fff;fill-opacity:1;stroke:#000;stroke-opacity:1"/></g></g><g id="layer2" style="display:inline"><path style="opacity:.1;fill:#ff5810;fill-opacity:1;stroke:#000;stroke-width:.29204988px;stroke-linecap:butt;stroke-linejoin:miter;stroke-opacity:1" id="path4246" d="m 44.609208,42.929337 c 1.102196,-1.11903 0.924491,-3.361093 2.191263,-3.49112 1.201978,0.133995 0.935859,2.371498 1.901011,3.576936 2.164752,-0.01915 4.807725,-1.733964 5.270232,-0.445437 0.373708,0.79439 -2.317413,1.883374 -2.481785,3.941231 1.380677,1.251632 3.589351,1.591578 3.419253,2.605341 -0.128904,1.028521 -1.56404,0.344041 -3.253526,0.747387 0.260062,0.950059 -0.507741,0.622722 -1.557458,1.001137 -0.766223,0.07816 -2.283791,-0.567937 -2.961128,-1.024456 -0.638434,0.317676 -2.013637,1.037137 -2.874895,0.952703 -0.716888,-0.364947 -0.881287,-0.574282 -0.879528,-1.181139 -1.110536,0.09647 -3.463944,0.06023 -3.821958,-0.881376 -0.443411,-1.311068 3.146971,-1.101099 3.440086,-2.032828 2.754333,-0.634785 -2.954089,-1.291204 -3.036162,-2.321201 -0.134096,-1.539082 3.00185,-1.326879 4.644595,-1.447178 z"/><path style="opacity:.1;fill:#ffb50f;fill-opacity:1;stroke:#000;stroke-width:.21940789px;stroke-linecap:butt;stroke-linejoin:miter;stroke-opacity:1" id="path4266" d="m 46.689046,41.009403 c 0.956484,0.496006 0.95681,2.20755 1.426722,3.32212 1.198309,0.338544 2.586342,-0.375393 3.594925,1.015631 -0.441937,1.278511 -2.124627,1.553263 -3.18694,2.329895 -0.226733,0.832888 -1.104361,1.824481 -1.717667,1.585137 -0.618243,0.116798 -0.754454,-1.086122 -0.958742,-1.926145 -1.11617,-0.62054 -2.743917,-0.176866 -3.348511,-1.861621 0.587223,-1.014654 1.887677,-0.792884 2.831731,-1.188952 0.451112,-1.092854 0.04839,-2.600158 1.358482,-3.276065 z"/></g></svg>