<svg xmlns="http://www.w3.org/2000/svg" xmlns:svg="http://www.w3.org/2000/svg" id="svg2" width="32" height="64" version="1.1"><metadata id="metadata7"/><g id="layer1" transform="translate(0,-988.3622)"><path transform="matrix(0.56929722,0.03749661,-0.10712241,1.0864365,14.068214,1018.2233)" style="fill:#fff;fill-opacity:1;stroke:#000;stroke-opacity:1" id="path3766-3" d="m 20.906667,29.475555 a 3.3777778,1.1733333 0 1 1 -6.755556,0 3.3777778,1.1733333 0 1 1 6.755556,0 z"/><path style="fill:#fff;fill-opacity:1;stroke:#000;stroke-opacity:1" id="path3768" d="m 18.631111,21.297777 a 5.3688889,8.6400003 0 1 1 -10.7377776,0 5.3688889,8.6400003 0 1 1 10.7377776,0 z" transform="matrix(1.0066623,-0.00338919,0.00398496,0.85616349,2.7324829,1024.6859)"/><path style="fill:#fff;fill-opacity:1;stroke:#000;stroke-opacity:1" id="path3796-0" d="m 17.493333,27.946667 a 3.6977777,2.2755556 0 1 1 -7.395556,0 3.6977777,2.2755556 0 1 1 7.395556,0 z" transform="matrix(0.43633181,-0.00990433,0.02345326,1.1002353,14.091788,1017.5836)"/><path style="fill:#fff;fill-opacity:1;stroke:#000;stroke-opacity:1" id="path3792-5" d="m 21.191111,22.151112 a 1.4222223,3.8044446 0 1 1 -2.844445,0 1.4222223,3.8044446 0 1 1 2.844445,0 z" transform="matrix(-0.21665177,-0.97624894,0.97624894,-0.21665177,5.1210667,1061.2919)"/><path style="fill:#fff;fill-opacity:1;stroke:#000;stroke-opacity:1" id="path3766" d="m 20.906667,29.475555 a 3.3777778,1.1733333 0 1 1 -6.755556,0 3.3777778,1.1733333 0 1 1 6.755556,0 z" transform="matrix(0.56550809,0.00959528,-0.02949706,0.85705544,2.571839,1025.7534)"/><path style="fill:#fff;fill-opacity:1;stroke:#000;stroke-opacity:1" id="path3792" d="m 21.191111,22.151112 a 1.4222223,3.8044446 0 1 1 -2.844445,0 1.4222223,3.8044446 0 1 1 2.844445,0 z" transform="matrix(-0.13985122,0.99017254,-0.99017254,-0.13985122,34.742484,1021.2826)"/><path style="fill:#fff;fill-opacity:1;stroke:#000;stroke-opacity:1" id="path3772" d="m 13.582223,7.6088891 a 3.3777778,1.6355555 0 1 1 -6.7555559,0 3.3777778,1.6355555 0 1 1 6.7555559,0 z" transform="matrix(0.25201136,0.6020929,-1.0211441,0.17047775,18.049772,1021.835)"/><path style="fill:#4d4d4b;fill-opacity:1;stroke:#000;stroke-opacity:1" id="path3772-7" d="m 13.582223,7.6088891 a 3.3777778,1.6355555 0 1 1 -6.7555559,0 3.3777778,1.6355555 0 1 1 6.7555559,0 z" transform="matrix(-0.2048895,0.64088049,-0.90499841,-0.13607655,27.269468,1023.6313)"/><path style="fill:#fff;fill-opacity:1;stroke:#000;stroke-opacity:1" id="path3770" d="m 21.617778,9.8488894 a 4.8355556,3.9466667 0 1 1 -9.671111,0 4.8355556,3.9466667 0 1 1 9.671111,0 z" transform="matrix(0.77053203,0.12335422,-0.06851811,0.95498434,3.7019455,1021.9008)"/><path style="fill:#fff;fill-opacity:1;stroke:#000;stroke-opacity:1" id="path3794" d="m 20.479999,9.7066669 a 0.39111111,0.39111111 0 1 1 -0.782222,0 0.39111111,0.39111111 0 1 1 0.782222,0 z" transform="matrix(1.1870228,-0.07665294,0.07665294,1.1870228,-10.159203,1022.6656)"/><path style="fill:#fff;fill-opacity:1;stroke:#000;stroke-opacity:1" id="path3796" d="m 17.493333,27.946667 a 3.6977777,2.2755556 0 1 1 -7.395556,0 3.6977777,2.2755556 0 1 1 7.395556,0 z" transform="matrix(0.39581295,-0.00798181,0.0247234,1.0836394,5.703728,1017.913)"/><path style="fill:#fff;fill-opacity:1;stroke:#000;stroke-opacity:1" id="path3794-0" d="m 20.479999,9.7066669 a 0.39111111,0.39111111 0 1 1 -0.782222,0 0.39111111,0.39111111 0 1 1 0.782222,0 z" transform="matrix(1.2974769,-0.0837856,0.06987435,1.0820517,-9.3159031,1023.7032)"/></g></svg>