<svg xmlns="http://www.w3.org/2000/svg" xmlns:svg="http://www.w3.org/2000/svg" id="svg2" width="32" height="32" version="1.1"><metadata id="metadata7"/><g id="layer1" transform="translate(0,-1020.3622)"><ellipse style="fill:#fff;fill-opacity:1;stroke:#000;stroke-width:1.00028121;stroke-miterlimit:4;stroke-dasharray:none;stroke-opacity:1" id="path3772" cx="907.86" cy="-445.327" rx="3.039" ry="1.563" transform="matrix(0.44407446,0.89598989,0.88059825,-0.47386361,0,0)"/><ellipse style="fill:#4d4d4b;fill-opacity:1;stroke:#000;stroke-width:1.00008023;stroke-miterlimit:4;stroke-dasharray:none;stroke-opacity:1" id="path3772-7" cx="818.003" cy="-606.694" rx="3.177" ry="1.458" transform="matrix(0.59590201,0.80305716,0.79225364,-0.61019191,0,0)"/><path style="fill:#fff;fill-opacity:1;stroke:#000;stroke-width:1;stroke-miterlimit:4;stroke-dasharray:none;stroke-opacity:1" id="path3796-6" d="m 21.792514,1041.7977 a 1.9873446,2.7105336 29.244869 0 0 -0.368213,-3.3547 1.9873446,2.7105336 29.244869 0 0 -3.063561,1.3487 1.9873446,2.7105336 29.244869 0 0 0.368249,3.3545 1.9873446,2.7105336 29.244869 0 0 3.063486,-1.3486 z"/><path style="fill:#fff;fill-opacity:1;stroke:#000;stroke-width:1;stroke-miterlimit:4;stroke-dasharray:none;stroke-opacity:1" id="path3766-84" d="m 19.710514,1042.1469 a 1.1225084,2.0604898 55.140633 0 0 2.330772,-0.2535 1.1225084,2.0604898 55.140633 0 0 1.052617,-2.0991 1.1225084,2.0604898 55.140633 0 0 -2.330772,0.2535 1.1225084,2.0604898 55.140633 0 0 -1.052617,2.0991 z"/><ellipse style="fill:#fff;fill-opacity:1;stroke:#000;stroke-width:1.00000036;stroke-miterlimit:4;stroke-dasharray:none;stroke-opacity:1" id="path3768-5" cx="-19.746" cy="1039.967" rx="5.402" ry="7.47" transform="matrix(-0.99999422,-0.00340142,-0.00460693,0.99998939,0,0)"/><ellipse style="fill:#fff;fill-opacity:1;stroke:#000;stroke-width:1.00228631;stroke-miterlimit:4;stroke-dasharray:none;stroke-opacity:1" id="path3770-7" cx="40.05" cy="1025.532" rx="3.693" ry="3.782" transform="matrix(0.99246134,0.12255809,-0.02735917,0.99962567,0,0)"/><ellipse style="fill:#fff;fill-opacity:1;stroke:#000;stroke-width:1.00013208;stroke-miterlimit:4;stroke-dasharray:none;stroke-opacity:1" id="path3792-5-0" cx="-1029.557" cy="154.315" rx="1.45" ry="3.822" transform="matrix(-0.15508054,-0.98790183,-0.99120477,0.13233708,0,0)"/><ellipse style="fill:#fff;fill-opacity:1;stroke:#000;stroke-width:1;stroke-miterlimit:4;stroke-dasharray:none;stroke-opacity:1" id="path3792-4" cx="833.549" cy="-607.812" rx="1.422" ry="3.804" transform="matrix(0.60493781,0.79627272,0.79627272,-0.60493781,0,0)"/><path style="fill:#fff;fill-opacity:1;stroke:#000;stroke-width:.99999994;stroke-miterlimit:4;stroke-dasharray:none;stroke-opacity:1" id="path3796-7-5" d="m 13.540578,1047.2502 a 1.9462298,3.2893836 0.996912 0 1 -2.000042,3.2605 1.9462298,3.2893836 0.996912 0 1 -1.8920113,-3.3173 1.9462298,3.2893836 0.996912 0 1 2.0000403,-3.2605 1.9462298,3.2893836 0.996912 0 1 1.892013,3.3173 z"/><path style="fill:#fff;fill-opacity:1;stroke:#000;stroke-width:1;stroke-miterlimit:4;stroke-dasharray:none;stroke-opacity:1" id="path3766-8-2" d="m 13.170532,1049.7998 a 1.1225084,2.0604898 69.065392 0 1 -1.519954,1.7851 1.1225084,2.0604898 69.065392 0 1 -2.3278083,-0.3095 1.1225084,2.0604898 69.065392 0 1 1.5199533,-1.7851 1.1225084,2.0604898 69.065392 0 1 2.327809,0.3095 z"/><circle style="fill:#fff;fill-opacity:1;stroke:#000;stroke-width:1;stroke-miterlimit:4;stroke-dasharray:none;stroke-opacity:1" id="path3794" cx="-506.265" cy="897.432" r=".391" transform="matrix(0.8660254,-0.5,0.5,0.8660254,0,0)"/><circle style="fill:#fff;fill-opacity:1;stroke:#000;stroke-width:1;stroke-miterlimit:4;stroke-dasharray:none;stroke-opacity:1" id="path3794-7" cx="-503.481" cy="897.453" r=".391" transform="matrix(0.8660254,-0.5,0.5,0.8660254,0,0)"/></g></svg>