<svg xmlns="http://www.w3.org/2000/svg" xmlns:svg="http://www.w3.org/2000/svg" id="svg2" width="64" height="96" version="1.1"><metadata id="metadata7"/><g id="layer1" transform="translate(0,-956.3622)"><ellipse id="path3772-7-0" cx="746.49" cy="647.272" rx="3.022" ry="1.464" style="fill:#4d4d4b;fill-opacity:1;stroke:#000;stroke-width:.89481699;stroke-opacity:1" transform="matrix(0.68912739,0.72464021,-0.72464021,0.68912739,0,0)"/><ellipse id="path3766-3-0" cx="29.316" cy="1012.71" rx="3.378" ry="1.173" style="fill:#fff;fill-opacity:1;stroke:#000;stroke-opacity:1"/><ellipse id="path3766-4" cx="454.876" cy="905.824" rx="3.378" ry="1.173" style="fill:#fff;fill-opacity:1;stroke:#000;stroke-opacity:1" transform="matrix(0.90630778,0.42261827,-0.42261827,0.90630778,0,0)"/><ellipse id="path3768-4" cx="801.149" cy="822.293" rx="5.873" ry="10.257" style="fill:#fff;fill-opacity:1;stroke:#000;stroke-width:1.13951123;stroke-opacity:1" transform="matrix(0.81973713,0.57273994,-0.75049928,0.66087127,0,0)"/><ellipse id="path3792-0" cx="-992.583" cy="134.002" rx="1.422" ry="3.804" style="fill:#fff;fill-opacity:1;stroke:#000;stroke-opacity:1" transform="matrix(0.08715574,-0.9961947,0.9961947,0.08715574,0,0)"/><ellipse id="path3770-0" cx="385.443" cy="916.821" rx="4.746" ry="3.75" style="fill:#fff;fill-opacity:1;stroke:#000;stroke-width:.96575707;stroke-opacity:1" transform="matrix(0.93969262,0.34202015,-0.34202015,0.93969262,0,0)"/><ellipse id="path3772-3" cx="668.966" cy="728.514" rx="3.378" ry="1.636" style="fill:#fff;fill-opacity:1;stroke:#000;stroke-opacity:1" transform="matrix(0.76604444,0.64278762,-0.64278762,0.76604444,0,0)"/><circle id="path3794-3" cx="221.592" cy="968.899" r=".391" style="fill:#fff;fill-opacity:1;stroke:#000;stroke-opacity:1" transform="matrix(0.98480775,0.17364818,-0.17364818,0.98480775,0,0)"/><ellipse id="path3796-9" cx="258.988" cy="1001.69" rx="5.197" ry="2.217" style="fill:#fff;fill-opacity:1;stroke:#000;stroke-width:1.17024481;stroke-opacity:1" transform="matrix(0.99107157,0.13333093,-0.22517126,0.9743192,0,0)"/></g></svg>