<svg xmlns="http://www.w3.org/2000/svg" xmlns:svg="http://www.w3.org/2000/svg" id="svg2" width="32" height="32" version="1.1"><metadata id="metadata7"/><g id="layer1" transform="translate(0,-1020.3622)"><path style="fill:#fff;fill-opacity:1;stroke:#000;stroke-opacity:1;stroke-width:2.55376249;stroke-miterlimit:4;stroke-dasharray:none" id="path3768" d="m 18.631111,21.297777 c 0,4.771741 -2.403733,8.640001 -5.368889,8.640001 -2.965155,0 -5.3688886,-3.86826 -5.3688886,-8.640001 0,-4.77174 2.4037336,-8.64 5.3688886,-8.64 2.965156,0 5.368889,3.86826 5.368889,8.64 z" transform="matrix(0.31548299,-0.12077243,0.29292147,0.37389448,8.1082599,1025.2312)"/><path style="fill:#fff;fill-opacity:1;stroke:#000;stroke-width:1.49414039;stroke-miterlimit:4;stroke-opacity:1;stroke-dasharray:none" id="path3772" d="m 13.582223,7.6088891 a 3.3777778,1.6355555 0 1 1 -6.7555559,0 3.3777778,1.6355555 0 1 1 6.7555559,0 z" transform="matrix(-0.43307919,-0.47137946,0.54490144,-0.4412171,25.382022,1043.2512)"/><path style="fill:#fff;fill-opacity:1;stroke:#000;stroke-width:1.6491456;stroke-miterlimit:4;stroke-opacity:1;stroke-dasharray:none" id="path3770" d="m 21.617778,9.8488894 a 4.8355556,3.9466667 0 1 1 -9.671111,0 4.8355556,3.9466667 0 1 1 9.671111,0 z" transform="matrix(-0.50589057,-0.20394548,0.17104753,-0.65786122,29.130272,1040.8604)"/><path style="fill:#4d4d4b;fill-opacity:1;stroke:#000;stroke-width:1.97021568;stroke-miterlimit:4;stroke-opacity:1;stroke-dasharray:none" id="path3772-7" d="m 13.582223,7.6088891 a 3.3777778,1.6355555 0 1 1 -6.7555559,0 3.3777778,1.6355555 0 1 1 6.7555559,0 z" transform="matrix(-0.32244477,-0.42377236,0.5081097,-0.13116333,21.255261,1039.47)"/><path style="fill:#fff;fill-opacity:1;stroke:#000;stroke-width:1.1961062;stroke-miterlimit:4;stroke-opacity:1;stroke-dasharray:none" id="path3794" d="m 20.479999,9.7066669 a 0.39111111,0.39111111 0 1 1 -0.782222,0 0.39111111,0.39111111 0 1 1 0.782222,0 z" transform="matrix(-0.81413996,-0.12755186,0.10298517,-0.84240704,38.861383,1042.0017)"/><path style="fill:#fff;fill-opacity:1;stroke:#000;stroke-width:1.1982708;stroke-miterlimit:4;stroke-opacity:1;stroke-dasharray:none" id="path3794-0" d="m 20.479999,9.7066669 a 0.39111111,0.39111111 0 1 1 -0.782222,0 0.39111111,0.39111111 0 1 1 0.782222,0 z" transform="matrix(-0.8898968,-0.13942073,0.09387797,-0.76791107,38.221633,1041.101)"/></g></svg>