<svg xmlns="http://www.w3.org/2000/svg" xmlns:svg="http://www.w3.org/2000/svg" id="svg2" width="32" height="32" version="1.1"><metadata id="metadata7"/><g id="layer1" transform="translate(0,-1020.3622)"><ellipse style="fill:#fff;fill-opacity:1;stroke:#000;stroke-width:1.00023365;stroke-miterlimit:4;stroke-dasharray:none;stroke-opacity:1" id="path3772" cx="895.637" cy="-471.261" rx="3.026" ry="1.656" transform="matrix(-0.44200847,0.89701088,-0.88308292,-0.46921695,0,0)"/><path style="fill:#fff;fill-opacity:1;stroke:#000;stroke-width:1;stroke-miterlimit:4;stroke-dasharray:none;stroke-opacity:1" id="path3796-6" d="m 10.080328,1041.825 a 2.7105336,1.9873446 60.755131 0 1 0.368213,-3.3547 2.7105336,1.9873446 60.755131 0 1 3.063561,1.3487 2.7105336,1.9873446 60.755131 0 1 -0.368249,3.3545 2.7105336,1.9873446 60.755131 0 1 -3.063486,-1.3486 z"/><path style="fill:#fff;fill-opacity:1;stroke:#000;stroke-width:1;stroke-miterlimit:4;stroke-dasharray:none;stroke-opacity:1" id="path3766-84" d="m 12.162328,1042.1742 a 2.0604898,1.1225084 34.859367 0 1 -2.33077,-0.2535 2.0604898,1.1225084 34.859367 0 1 -1.052617,-2.0991 2.0604898,1.1225084 34.859367 0 1 2.33077,0.2535 2.0604898,1.1225084 34.859367 0 1 1.052617,2.0991 z"/><ellipse style="fill:#4d4d4b;fill-opacity:1;stroke:#000;stroke-width:1.00003302;stroke-miterlimit:4;stroke-dasharray:none;stroke-opacity:1" id="path3772-7" cx="828.314" cy="-598.811" rx="3.18" ry="1.454" transform="matrix(-0.56276571,0.82661645,-0.82009049,-0.57223386,0,0)"/><ellipse style="fill:#fff;fill-opacity:1;stroke:#000;stroke-width:1.00000036;stroke-miterlimit:4;stroke-dasharray:none;stroke-opacity:1" id="path3768-5" cx="12.127" cy="1040.103" rx="5.402" ry="7.47" transform="matrix(0.99999422,-0.00340142,0.00460693,0.99998939,0,0)"/><ellipse style="fill:#fff;fill-opacity:1;stroke:#000;stroke-width:1.00190151;stroke-miterlimit:4;stroke-dasharray:none;stroke-opacity:1" id="path3770" cx="992.719" cy="202.861" rx="3.773" ry="3.779" transform="matrix(0.21555007,0.97649279,-0.95403515,0.29969472,0,0)"/><ellipse style="fill:#fff;fill-opacity:1;stroke:#000;stroke-width:1.00013208;stroke-miterlimit:4;stroke-dasharray:none;stroke-opacity:1" id="path3792-5-0" cx="-1025.365" cy="185.815" rx="1.45" ry="3.822" transform="matrix(0.15508054,-0.98790183,0.99120477,0.13233708,0,0)"/><circle style="fill:#fff;fill-opacity:1;stroke:#000;stroke-width:1;stroke-miterlimit:4;stroke-dasharray:none;stroke-opacity:1" id="path3794-4" cx="531.273" cy="881.537" r=".391" transform="matrix(0.8660254,0.5,-0.5,0.8660254,0,0)"/><ellipse style="fill:#fff;fill-opacity:1;stroke:#000;stroke-width:1;stroke-miterlimit:4;stroke-dasharray:none;stroke-opacity:1" id="path3792-4" cx="814.29" cy="-633.208" rx="1.422" ry="3.804" transform="matrix(-0.60493781,0.79627272,-0.79627272,-0.60493781,0,0)"/><circle style="fill:#fff;fill-opacity:1;stroke:#000;stroke-width:1;stroke-miterlimit:4;stroke-dasharray:none;stroke-opacity:1" id="path3794-4-3" cx="534.265" cy="881.345" r=".391" transform="matrix(0.8660254,0.5,-0.5,0.8660254,0,0)"/><path style="fill:#fff;fill-opacity:1;stroke:#000;stroke-width:.99999994;stroke-miterlimit:4;stroke-dasharray:none;stroke-opacity:1" id="path3796-7-5" d="m 18.332264,1047.2775 a 3.2893836,1.9462298 89.003088 0 0 2.000042,3.2605 3.2893836,1.9462298 89.003088 0 0 1.892012,-3.3173 3.2893836,1.9462298 89.003088 0 0 -2.000041,-3.2605 3.2893836,1.9462298 89.003088 0 0 -1.892013,3.3173 z"/><path style="fill:#fff;fill-opacity:1;stroke:#000;stroke-width:1;stroke-miterlimit:4;stroke-dasharray:none;stroke-opacity:1" id="path3766-8-2" d="m 18.70231,1049.8271 a 2.0604898,1.1225084 20.934608 0 0 1.519954,1.7851 2.0604898,1.1225084 20.934608 0 0 2.327809,-0.3095 2.0604898,1.1225084 20.934608 0 0 -1.519954,-1.7851 2.0604898,1.1225084 20.934608 0 0 -2.327809,0.3095 z"/></g></svg>