<svg xmlns="http://www.w3.org/2000/svg" xmlns:svg="http://www.w3.org/2000/svg" id="svg2" width="32" height="64" version="1.1"><metadata id="metadata7"/><g id="layer1" transform="translate(0,-988.3622)"><path transform="matrix(0.56929722,0.03749661,-0.10712241,1.0864365,13.917802,1012.6581)" style="fill:#fff;fill-opacity:1;stroke:#000;stroke-opacity:1;opacity:.8" id="path3766-3" d="m 20.906667,29.475555 a 3.3777778,1.1733333 0 1 1 -6.755556,0 3.3777778,1.1733333 0 1 1 6.755556,0 z"/><path style="fill:#fff;fill-opacity:1;stroke:#000;stroke-opacity:1;opacity:.8" id="path3768" d="m 18.631111,21.297777 a 5.3688889,8.6400003 0 1 1 -10.7377776,0 5.3688889,8.6400003 0 1 1 10.7377776,0 z" transform="matrix(1.0007492,-0.0038915,0.00396155,0.983054,2.5105793,1015.0712)"/><path style="fill:#fff;fill-opacity:1;stroke:#000;stroke-opacity:1;opacity:.8" id="path3796-0" d="m 17.493333,27.946667 a 3.6977777,2.2755556 0 1 1 -7.395556,0 3.6977777,2.2755556 0 1 1 7.395556,0 z" transform="matrix(0.43225967,-0.0108859,0.02323438,1.2092753,14.078876,1008.571)"/><path style="fill:#fff;fill-opacity:1;stroke:#000;stroke-opacity:1;opacity:.8" id="path3792-5" d="m 21.191111,22.151112 a 1.4222223,3.8044446 0 1 1 -2.844445,0 1.4222223,3.8044446 0 1 1 2.844445,0 z" transform="matrix(-0.83783438,-0.54592448,0.54592448,-0.83783438,25.278797,1056.5424)"/><path style="fill:#fff;fill-opacity:1;stroke:#000;stroke-opacity:1;opacity:.8" id="path3766" d="m 20.906667,29.475555 a 3.3777778,1.1733333 0 1 1 -6.755556,0 3.3777778,1.1733333 0 1 1 6.755556,0 z" transform="matrix(0.56550809,0.00959528,-0.02949706,0.85705544,2.4966334,1020.0378)"/><path style="fill:#fff;fill-opacity:1;stroke:#000;stroke-opacity:1;opacity:.8" id="path3792" d="m 21.191111,22.151112 a 1.4222223,3.8044446 0 1 1 -2.844445,0 1.4222223,3.8044446 0 1 1 2.844445,0 z" transform="matrix(-0.47733341,0.88474296,-0.58558857,-0.72118446,33.016188,1026.1289)"/><path style="fill:#fff;fill-opacity:1;stroke:#000;stroke-opacity:1;opacity:.8" id="path3772" d="m 13.582223,7.6088891 a 3.3777778,1.6355555 0 1 1 -6.7555559,0 3.3777778,1.6355555 0 1 1 6.7555559,0 z" transform="matrix(0.24843496,0.6935406,-1.0066526,0.19637043,17.750386,1011.4922)"/><path style="fill:#4d4d4b;fill-opacity:1;stroke:#000;stroke-opacity:1;opacity:.8" id="path3772-7" d="m 13.582223,7.6088891 a 3.3777778,1.6355555 0 1 1 -6.7555559,0 3.3777778,1.6355555 0 1 1 6.7555559,0 z" transform="matrix(-0.20284856,0.70252538,-0.89598354,-0.14916545,26.954431,1014.002)"/><path style="fill:#fff;fill-opacity:1;stroke:#000;stroke-opacity:1;opacity:.8" id="path3770" d="m 21.617778,9.8488894 a 4.8355556,3.9466667 0 1 1 -9.671111,0 4.8355556,3.9466667 0 1 1 9.671111,0 z" transform="matrix(0.77053203,0.12335422,-0.06851811,0.95498434,3.4763286,1013.0266)"/><path style="fill:#fff;fill-opacity:1;stroke:#000;stroke-opacity:1;opacity:.8" id="path3794" d="m 20.479999,9.7066669 a 0.39111111,0.39111111 0 1 1 -0.782222,0 0.39111111,0.39111111 0 1 1 0.782222,0 z" transform="matrix(1.1870228,-0.07665294,0.07665294,1.1870228,-10.38482,1014.1674)"/><path style="fill:#fff;fill-opacity:1;stroke:#000;stroke-opacity:1;opacity:.8" id="path3796" d="m 17.493333,27.946667 a 3.6977777,2.2755556 0 1 1 -7.395556,0 3.6977777,2.2755556 0 1 1 7.395556,0 z" transform="matrix(0.38977837,-0.00924832,0.02434646,1.2555847,5.7223069,1007.0711)"/><path style="fill:#fff;fill-opacity:1;stroke:#000;stroke-opacity:1;opacity:.8" id="path3794-0" d="m 20.479999,9.7066669 a 0.39111111,0.39111111 0 1 1 -0.782222,0 0.39111111,0.39111111 0 1 1 0.782222,0 z" transform="matrix(1.2974769,-0.0837856,0.06987435,1.0820517,-9.54152,1015.205)"/></g></svg>