<svg xmlns="http://www.w3.org/2000/svg" xmlns:svg="http://www.w3.org/2000/svg" id="svg2" width="32" height="32" version="1.1"><metadata id="metadata7"/><g id="layer1" transform="translate(0,-1020.3622)"><ellipse style="fill:#4d4d4b;fill-opacity:1;stroke:#000;stroke-width:1.00070834;stroke-miterlimit:4;stroke-dasharray:none;stroke-opacity:1" id="path3772-7" cx="953.831" cy="-433.304" rx="3.205" ry="1.193" transform="matrix(0.42862657,0.90348174,0.92499906,-0.3799694,0,0)"/><path style="fill:#fff;fill-opacity:1;stroke:#000;stroke-width:1;stroke-miterlimit:4;stroke-dasharray:none;stroke-opacity:1" id="path3796-6" d="m 21.870034,1041.8164 a 1.9873446,2.7105336 29.244869 0 0 -0.368213,-3.3547 1.9873446,2.7105336 29.244869 0 0 -3.06356,1.3487 1.9873446,2.7105336 29.244869 0 0 0.368248,3.3545 1.9873446,2.7105336 29.244869 0 0 3.063486,-1.3486 z"/><path style="fill:#fff;fill-opacity:1;stroke:#000;stroke-width:1;stroke-miterlimit:4;stroke-dasharray:none;stroke-opacity:1" id="path3766-84" d="m 19.788034,1042.1656 a 1.1225084,2.0604898 55.140633 0 0 2.330772,-0.2535 1.1225084,2.0604898 55.140633 0 0 1.052617,-2.0991 1.1225084,2.0604898 55.140633 0 0 -2.330772,0.2535 1.1225084,2.0604898 55.140633 0 0 -1.052617,2.0991 z"/><ellipse style="fill:#fff;fill-opacity:1;stroke:#000;stroke-width:1.00000036;stroke-miterlimit:4;stroke-dasharray:none;stroke-opacity:1" id="path3768-5" cx="-19.823" cy="1039.986" rx="5.402" ry="7.47" transform="matrix(-0.99999422,-0.00340142,-0.00460693,0.99998939,0,0)"/><ellipse style="fill:#fff;fill-opacity:1;stroke:#000;stroke-width:1.00101614;stroke-miterlimit:4;stroke-dasharray:none;stroke-opacity:1" id="path3770" cx="632.463" cy="774.83" rx="4.009" ry="3.771" transform="matrix(-0.74333224,0.6689224,0.62023238,0.78441813,0,0)"/><ellipse style="fill:#fff;fill-opacity:1;stroke:#000;stroke-width:1.00013208;stroke-miterlimit:4;stroke-dasharray:none;stroke-opacity:1" id="path3792-5-0" cx="-1029.586" cy="154.241" rx="1.45" ry="3.822" transform="matrix(-0.15508054,-0.98790183,-0.99120477,0.13233708,0,0)"/><ellipse style="fill:#fff;fill-opacity:1;stroke:#000;stroke-width:1.00000918;stroke-miterlimit:4;stroke-dasharray:none;stroke-opacity:1" id="path3772" cx="970.518" cy="-336.372" rx="3.049" ry="1.412" transform="matrix(0.33898337,0.94079236,0.94283106,-0.33327106,0,0)"/><ellipse style="fill:#fff;fill-opacity:1;stroke:#000;stroke-width:1;stroke-miterlimit:4;stroke-dasharray:none;stroke-opacity:1" id="path3792-4" cx="833.611" cy="-607.762" rx="1.422" ry="3.804" transform="matrix(0.60493781,0.79627272,0.79627272,-0.60493781,0,0)"/><path style="fill:#fff;fill-opacity:1;stroke:#000;stroke-width:.99999994;stroke-miterlimit:4;stroke-dasharray:none;stroke-opacity:1" id="path3796-7-5" d="m 13.618099,1047.2689 a 1.9462298,3.2893836 0.996912 0 1 -2.000043,3.2605 1.9462298,3.2893836 0.996912 0 1 -1.8920111,-3.3173 1.9462298,3.2893836 0.996912 0 1 2.0000401,-3.2605 1.9462298,3.2893836 0.996912 0 1 1.892014,3.3173 z"/><path style="fill:#fff;fill-opacity:1;stroke:#000;stroke-width:1;stroke-miterlimit:4;stroke-dasharray:none;stroke-opacity:1" id="path3766-8-2" d="m 13.248053,1049.8185 a 1.1225084,2.0604898 69.065392 0 1 -1.519955,1.7851 1.1225084,2.0604898 69.065392 0 1 -2.3278081,-0.3095 1.1225084,2.0604898 69.065392 0 1 1.5199531,-1.7851 1.1225084,2.0604898 69.065392 0 1 2.32781,0.3095 z"/><circle style="fill:#fff;fill-opacity:1;stroke:#000;stroke-width:1;stroke-miterlimit:4;stroke-dasharray:none;stroke-opacity:1" id="path3794-4" cx="506.583" cy="897.314" r=".391" transform="matrix(-0.8660254,0.5,0.5,0.8660254,0,0)"/><circle style="fill:#fff;fill-opacity:1;stroke:#000;stroke-width:1;stroke-miterlimit:4;stroke-dasharray:none;stroke-opacity:1" id="path3794-4-3" cx="509.362" cy="896.59" r=".391" transform="matrix(-0.8660254,0.5,0.5,0.8660254,0,0)"/></g></svg>