<svg xmlns="http://www.w3.org/2000/svg" xmlns:svg="http://www.w3.org/2000/svg" id="svg2" width="32" height="64" version="1.1"><metadata id="metadata7"/><g id="layer1" transform="translate(0,-988.3622)"><path style="fill:#4d4d4b;fill-opacity:1;stroke:#000;stroke-opacity:1;opacity:.2" id="path3772-7" d="m 13.582223,7.6088891 a 3.3777778,1.6355555 0 1 1 -6.7555559,0 3.3777778,1.6355555 0 1 1 6.7555559,0 z" transform="matrix(-0.75828077,-0.47508706,0.47508706,-0.75828077,18.303759,1048.2211)"/><path transform="matrix(-0.4516148,-0.89221303,0.89221303,-0.4516148,7.1105203,1046.7913)" style="fill:#fff;fill-opacity:1;stroke:#000;stroke-opacity:1;opacity:.2" id="path3766-3" d="m 20.906667,29.475555 a 3.3777778,1.1733333 0 1 1 -6.755556,0 3.3777778,1.1733333 0 1 1 6.755556,0 z"/><path style="fill:#fff;fill-opacity:1;stroke:#000;stroke-opacity:1;opacity:.2" id="path3766" d="m 20.906667,29.475555 a 3.3777778,1.1733333 0 1 1 -6.755556,0 3.3777778,1.1733333 0 1 1 6.755556,0 z" transform="matrix(-0.50792967,-0.86139856,0.86139856,-0.50792967,8.7841587,1047.8185)"/><path style="fill:#fff;fill-opacity:1;stroke:#000;stroke-opacity:1;opacity:.2" id="path3768" d="m 18.631111,21.297777 a 5.3688889,8.6400003 0 1 1 -10.7377776,0 5.3688889,8.6400003 0 1 1 10.7377776,0 z" transform="matrix(-0.85306432,-0.59080625,0.5339882,-0.69436739,18.425666,1047.3904)"/><path style="fill:#fff;fill-opacity:1;stroke:#000;stroke-opacity:1;opacity:.2" id="path3770" d="m 21.617778,9.8488894 a 4.8355556,3.9466667 0 1 1 -9.671111,0 4.8355556,3.9466667 0 1 1 9.671111,0 z" transform="matrix(-0.77736876,0.59916988,-0.58012447,-0.75265901,29.763648,1030.3)"/><path style="fill:#fff;fill-opacity:1;stroke:#000;stroke-opacity:1;opacity:.2" id="path3792" d="m 21.191111,22.151112 a 1.4222223,3.8044446 0 1 1 -2.844445,0 1.4222223,3.8044446 0 1 1 2.844445,0 z" transform="matrix(-0.48884866,-0.90215654,0.88069254,-0.58069499,7.9438406,1055.576)"/><path style="fill:#fff;fill-opacity:1;stroke:#000;stroke-opacity:1;opacity:.2" id="path3772" d="m 13.582223,7.6088891 a 3.3777778,1.6355555 0 1 1 -6.7555559,0 3.3777778,1.6355555 0 1 1 6.7555559,0 z" transform="matrix(-0.8980526,-0.4398881,0.4398881,-0.8980526,21.432077,1047.9988)"/><path style="fill:#fff;fill-opacity:1;stroke:#000;stroke-opacity:1;opacity:.2" id="path3794" d="m 20.479999,9.7066669 a 0.39111111,0.39111111 0 1 1 -0.782222,0 0.39111111,0.39111111 0 1 1 0.782222,0 z" transform="matrix(-0.67399513,0.73873582,-0.73873582,-0.67399513,31.582764,1026.1605)"/><path style="fill:#fff;fill-opacity:1;stroke:#000;stroke-opacity:1;opacity:.2" id="path3796" d="m 17.493333,27.946667 a 3.6977777,2.2755556 0 1 1 -7.395556,0 3.6977777,2.2755556 0 1 1 7.395556,0 z" transform="matrix(0.05716815,-0.92626028,1.144621,0.71987136,-9.5973746,1012.0848)"/></g></svg>