<svg xmlns="http://www.w3.org/2000/svg" xmlns:svg="http://www.w3.org/2000/svg" id="svg2" width="32" height="64" version="1.1"><metadata id="metadata7"/><g id="layer1" transform="translate(0,-988.3622)"><path style="fill:#4d4d4b;fill-opacity:1;stroke:#000;stroke-opacity:1" id="path3772-7" d="m 13.582223,7.6088891 a 3.3777778,1.6355555 0 1 1 -6.7555559,0 3.3777778,1.6355555 0 1 1 6.7555559,0 z" transform="matrix(0.60520009,0.65911325,-0.65911325,0.60520009,16.252761,1017.8129)"/><path transform="matrix(0.94818624,0.31771505,-0.31771505,0.94818624,8.63032,1016.0759)" style="fill:#fff;fill-opacity:1;stroke:#000;stroke-opacity:1" id="path3766-3" d="m 20.906667,29.475555 a 3.3777778,1.1733333 0 1 1 -6.755556,0 3.3777778,1.1733333 0 1 1 6.755556,0 z"/><path style="fill:#fff;fill-opacity:1;stroke:#000;stroke-opacity:1" id="path3766" d="m 20.906667,29.475555 a 3.3777778,1.1733333 0 1 1 -6.755556,0 3.3777778,1.1733333 0 1 1 6.755556,0 z" transform="matrix(0.90677015,0.4216253,-0.4216253,0.90677015,12.628041,1016.382)"/><path style="fill:#fff;fill-opacity:1;stroke:#000;stroke-opacity:1" id="path3768" d="m 18.631111,21.297777 a 5.3688889,8.6400003 0 1 1 -10.7377776,0 5.3688889,8.6400003 0 1 1 10.7377776,0 z" transform="matrix(0.65725427,0.68069342,-0.75236077,0.56059264,22.921648,1021.9865)"/><path style="fill:#fff;fill-opacity:1;stroke:#000;stroke-opacity:1" id="path3792" d="m 21.191111,22.151112 a 1.4222223,3.8044446 0 1 1 -2.844445,0 1.4222223,3.8044446 0 1 1 2.844445,0 z" transform="matrix(0.39055778,-0.92057842,0.92057842,0.39055778,-3.320966,1051.3457)"/><path style="fill:#fff;fill-opacity:1;stroke:#000;stroke-opacity:1" id="path3770" d="m 21.617778,9.8488894 a 4.8355556,3.9466667 0 1 1 -9.671111,0 4.8355556,3.9466667 0 1 1 9.671111,0 z" transform="matrix(0.98050372,-0.04380865,0.04241614,0.94933706,4.346392,1026.3304)"/><path style="fill:#fff;fill-opacity:1;stroke:#000;stroke-opacity:1" id="path3772" d="m 13.582223,7.6088891 a 3.3777778,1.6355555 0 1 1 -6.7555559,0 3.3777778,1.6355555 0 1 1 6.7555559,0 z" transform="matrix(0.67633953,0.73659001,-0.73659001,0.67633953,14.559228,1017.8307)"/><path style="fill:#fff;fill-opacity:1;stroke:#000;stroke-opacity:1" id="path3794" d="m 20.479999,9.7066669 a 0.39111111,0.39111111 0 1 1 -0.782222,0 0.39111111,0.39111111 0 1 1 0.782222,0 z" transform="matrix(0.97607542,-0.21743222,0.21743222,0.97607542,0.479307,1028.6734)"/><path style="fill:#fff;fill-opacity:1;stroke:#000;stroke-opacity:1" id="path3796" d="m 17.493333,27.946667 a 3.6977777,2.2755556 0 1 1 -7.395556,0 3.6977777,2.2755556 0 1 1 7.395556,0 z" transform="translate(-0.238466,1020.1936)"/></g></svg>