<svg xmlns="http://www.w3.org/2000/svg" xmlns:svg="http://www.w3.org/2000/svg" id="svg2" width="32" height="32" version="1.1"><metadata id="metadata7"/><g id="layer1" transform="translate(0,-1020.3622)"><ellipse style="opacity:.33;fill:#fff;fill-opacity:1;stroke:#000;stroke-width:1;stroke-miterlimit:4;stroke-dasharray:none;stroke-opacity:1" id="path3792-5" cx="-953.816" cy="-421.584" rx="1.422" ry="3.804" transform="matrix(-0.42498763,-0.90519916,0.90519916,-0.42498763,0,0)"/><ellipse style="opacity:.33;fill:#fff;fill-opacity:1;stroke:#000;stroke-width:1;stroke-miterlimit:4;stroke-dasharray:none;stroke-opacity:1" id="path3792" cx="900.674" cy="-525.058" rx="1.422" ry="3.804" transform="matrix(-0.49561939,0.86853982,-0.86853982,-0.49561939,0,0)"/><ellipse style="opacity:.66000001;fill:#fff;fill-opacity:1;stroke:#000;stroke-width:1.00200331;stroke-miterlimit:4;stroke-dasharray:none;stroke-opacity:1" id="path3772" cx="688.343" cy="838.219" rx="2.747" ry="1.666" transform="matrix(0.81247121,0.58300132,-0.65322068,0.75716758,0,0)"/><ellipse style="fill:#fff;fill-opacity:1;stroke:#000;stroke-width:1.00190151;stroke-miterlimit:4;stroke-dasharray:none;stroke-opacity:1;opacity:.66" id="path3770" cx="-28.794" cy="1042.13" rx="3.773" ry="3.779" transform="matrix(0.99904269,0.04374581,0.04334417,0.9990602,0,0)"/><ellipse style="opacity:.66000001;fill:#4d4d4b;fill-opacity:1;stroke:#000;stroke-width:1.00051284;stroke-miterlimit:4;stroke-dasharray:none;stroke-opacity:1" id="path3772-7" cx="852.641" cy="548.382" rx="2.838" ry="1.468" transform="matrix(0.54340586,0.83947012,-0.81401585,0.58084266,0,0)"/><circle style="fill:#fff;fill-opacity:1;stroke:#000;stroke-width:1;stroke-miterlimit:4;stroke-dasharray:none;stroke-opacity:1;opacity:.66" id="path3794" cx="-171.338" cy="1025.242" r=".465" transform="matrix(0.98393859,-0.17850729,0.17850729,0.98393859,0,0)"/><ellipse style="fill:#fff;fill-opacity:1;stroke:#000;stroke-width:1;stroke-miterlimit:4;stroke-dasharray:none;stroke-opacity:1;opacity:.66" id="path3794-0" cx="-168.04" cy="1025.33" rx=".509" ry=".424" transform="matrix(0.98393859,-0.17850729,0.17850729,0.98393859,0,0)"/><ellipse style="opacity:1;fill:#6464fa;fill-opacity:1;stroke:none;stroke-width:1;stroke-linecap:round;stroke-miterlimit:4;stroke-dasharray:none;stroke-opacity:1" id="path4145" cx="11.165" cy="1029.223" rx="1.014" ry="1.051"/><ellipse style="opacity:.673;fill:#6464fa;fill-opacity:1;stroke:none;stroke-width:1;stroke-linecap:round;stroke-miterlimit:4;stroke-dasharray:none;stroke-opacity:1" id="path4145-9" cx="11.358" cy="1024.396" rx="1.359" ry="1.277"/><ellipse style="opacity:1;fill:#6464fa;fill-opacity:1;stroke:none;stroke-width:1;stroke-linecap:round;stroke-miterlimit:4;stroke-dasharray:none;stroke-opacity:1" id="path4145-8" cx="12.324" cy="1032.974" rx=".908" ry=".934"/><ellipse style="opacity:1;fill:#6464fa;fill-opacity:1;stroke:none;stroke-width:1;stroke-linecap:round;stroke-miterlimit:4;stroke-dasharray:none;stroke-opacity:1" id="path4145-8-3" cx="13.439" cy="1035.51" rx=".55" ry=".578"/><ellipse style="opacity:.56699997;fill:#6464fa;fill-opacity:1;stroke:none;stroke-width:1;stroke-linecap:round;stroke-miterlimit:4;stroke-dasharray:none;stroke-opacity:1" id="path4145-8-3-4" cx="14.688" cy="1037.178" rx=".55" ry=".578"/></g></svg>