<svg xmlns="http://www.w3.org/2000/svg" xmlns:svg="http://www.w3.org/2000/svg" id="svg2" width="96" height="96" version="1.1"><defs id="defs4"><filter id="filter4443"><feGaussianBlur id="feGaussianBlur4445" stdDeviation=".267"/></filter><filter id="filter4459"><feGaussianBlur id="feGaussianBlur4461" stdDeviation=".242"/></filter><filter id="filter4463"><feGaussianBlur id="feGaussianBlur4465" stdDeviation=".29"/></filter><filter id="filter4494" width="1.321" height="1.026" x="-.161" y="-.013"><feGaussianBlur id="feGaussianBlur4496" stdDeviation=".222"/></filter><filter id="filter4498"><feGaussianBlur id="feGaussianBlur4500" stdDeviation=".212"/></filter><filter id="filter4502" width="1.334" height="1.025" x="-.167" y="-.013"><feGaussianBlur id="feGaussianBlur4504" stdDeviation=".223"/></filter><filter id="filter4506"><feGaussianBlur id="feGaussianBlur4508" stdDeviation=".267"/></filter><filter id="filter4510"><feGaussianBlur id="feGaussianBlur4512" stdDeviation=".251"/></filter><filter id="filter4514"><feGaussianBlur id="feGaussianBlur4516" stdDeviation=".082"/></filter></defs><metadata id="metadata7"/><g id="layer1" transform="translate(0,-956.3622)"><g id="g4308" transform="matrix(0.1739201,0.98475977,-0.98475977,0.1739201,1047.9407,791.0742)" style="opacity:.6"><path id="path3766-3" d="m 20.906667,29.475555 c 0,0.648015 -1.512283,1.173334 -3.377778,1.173334 -1.865495,0 -3.377778,-0.525319 -3.377778,-1.173334 0,-0.648014 1.512283,-1.173333 3.377778,-1.173333 1.865495,0 3.377778,0.525319 3.377778,1.173333 z" style="fill:#fff;fill-opacity:1;stroke:#000;stroke-opacity:1" transform="matrix(0.50825872,0.03805256,-0.09563704,1.1025448,44.724407,985.73882)"/><path id="path3796-0" d="m 17.493333,27.946667 c 0,1.256754 -1.655552,2.275555 -3.697778,2.275555 -2.042226,0 -3.697778,-1.018801 -3.697778,-2.275555 0,-1.256755 1.655552,-2.275556 3.697778,-2.275556 2.042226,0 3.697778,1.018801 3.697778,2.275556 z" transform="matrix(0.43753699,-0.0096245,0.02351804,1.0691489,44.148558,986.07253)" style="fill:#fff;fill-opacity:1;stroke:#000;stroke-opacity:1"/></g><path style="opacity:.6;fill:#fff;fill-opacity:1;stroke:#000;stroke-opacity:1" id="path3792-5" d="m 21.191111,22.151112 c 0,2.101136 -0.636751,3.804444 -1.422223,3.804444 -0.785471,0 -1.422222,-1.703308 -1.422222,-3.804444 0,-2.101137 0.636751,-3.804445 1.422222,-3.804445 0.785472,0 1.422223,1.703308 1.422223,3.804445 z" transform="matrix(0.21583947,-0.97642885,0.97642885,0.21583947,34.113065,1026.8674)"/><path style="opacity:.6;fill:#fff;fill-opacity:1;stroke:#000;stroke-opacity:1" id="path3792" d="m 21.191111,22.151112 c 0,2.101136 -0.636751,3.804444 -1.422223,3.804444 -0.785471,0 -1.422222,-1.703308 -1.422222,-3.804444 0,-2.101137 0.636751,-3.804445 1.422222,-3.804445 0.785472,0 1.422223,1.703308 1.422223,3.804445 z" transform="matrix(0.02658381,0.99964661,-0.99964661,0.02658381,52.084761,984.42718)"/><path style="opacity:.6;fill:#fff;fill-opacity:1;stroke:#000;stroke-opacity:1" id="path3772" d="m 13.582223,7.6088891 c 0,0.9032924 -1.512283,1.6355555 -3.377778,1.6355555 -1.8654953,0 -3.3777779,-0.7322631 -3.3777779,-1.6355555 0,-0.9032924 1.5122826,-1.6355555 3.3777779,-1.6355555 1.865495,0 3.377778,0.7322631 3.377778,1.6355555 z" transform="matrix(0.8073951,0.09728701,-0.21166683,0.99635471,23.835565,987.84247)"/><path style="opacity:.6;fill:#4d4d4b;fill-opacity:1;stroke:#000;stroke-opacity:1" id="path3772-7" d="m 13.582223,7.6088891 c 0,0.9032924 -1.512283,1.6355555 -3.377778,1.6355555 -1.8654953,0 -3.3777779,-0.7322631 -3.3777779,-1.6355555 0,-0.9032924 1.5122826,-1.6355555 3.3777779,-1.6355555 1.865495,0 3.377778,0.7322631 3.377778,1.6355555 z" transform="matrix(-0.83234161,0.1141466,-0.1620528,-0.88271136,69.366449,1002.7286)"/><g id="g4312" transform="matrix(0.41505469,-0.90979645,0.90979645,0.41505469,-905.95458,633.40926)" style="opacity:.6"><path id="path3766" d="m 20.906667,29.475555 c 0,0.648015 -1.512283,1.173334 -3.377778,1.173334 -1.865495,0 -3.377778,-0.525319 -3.377778,-1.173334 0,-0.648014 1.512283,-1.173333 3.377778,-1.173333 1.865495,0 3.377778,0.525319 3.377778,1.173333 z" transform="matrix(0.49816262,0.01101159,-0.0259843,0.98356126,33.573584,989.84933)" style="fill:#fff;fill-opacity:1;stroke:#000;stroke-opacity:1"/><path id="path3796" d="m 17.493333,27.946667 c 0,1.256754 -1.655552,2.275555 -3.697778,2.275555 -2.042226,0 -3.697778,-1.018801 -3.697778,-2.275555 0,-1.256755 1.655552,-2.275556 3.697778,-2.275556 2.042226,0 3.697778,1.018801 3.697778,2.275556 z" transform="matrix(0.39355872,-0.00844164,0.02458259,1.1460676,35.437939,984.17466)" style="fill:#fff;fill-opacity:1;stroke:#000;stroke-opacity:1"/></g><g id="g4303" transform="matrix(0.61672958,-0.7871751,0.7871751,0.61672958,-774.02716,420.68651)" style="opacity:.6"><path id="path3770" d="m 21.617778,9.8488894 c 0,2.1796836 -2.164952,3.9466666 -4.835555,3.9466666 -2.670604,0 -4.835556,-1.766983 -4.835556,-3.9466666 0,-2.1796839 2.164952,-3.9466668 4.835556,-3.9466668 2.670603,0 4.835555,1.7669829 4.835555,3.9466668 z" transform="matrix(0.77053203,0.12335422,-0.06851811,0.95498434,34.228385,987.9455)" style="fill:#fff;fill-opacity:1;stroke:#000;stroke-opacity:1"/><path id="path3794" d="m 20.479999,9.7066669 c 0,0.2160047 -0.175106,0.3911111 -0.391111,0.3911111 -0.216005,0 -0.391111,-0.1751064 -0.391111,-0.3911111 0,-0.2160047 0.175106,-0.3911111 0.391111,-0.3911111 0.216005,0 0.391111,0.1751064 0.391111,0.3911111 z" transform="matrix(1.1870228,-0.07665294,0.07665294,1.1870228,20.141619,989.3872)" style="fill:#fff;fill-opacity:1;stroke:#000;stroke-opacity:1"/><path id="path3794-0" d="m 20.479999,9.7066669 c 0,0.2160047 -0.175106,0.3911111 -0.391111,0.3911111 -0.216005,0 -0.391111,-0.1751064 -0.391111,-0.3911111 0,-0.2160047 0.175106,-0.3911111 0.391111,-0.3911111 0.216005,0 0.391111,0.1751064 0.391111,0.3911111 z" transform="matrix(1.2974769,-0.0837856,0.06987435,1.0820517,21.285742,990.4248)" style="fill:#fff;fill-opacity:1;stroke:#000;stroke-opacity:1"/></g></g><g id="layer2" style="display:inline"><path style="opacity:.1;fill:#c9250f;fill-opacity:.77238805;stroke:#000;stroke-width:.25100732;stroke-miterlimit:4;stroke-opacity:1;stroke-dasharray:none;filter:url(#filter4514)" id="path4118-6" d="m 39.313748,41.372501 a 7.7273793,4.3149238 0 1 1 -15.454759,0 7.7273793,4.3149238 0 1 1 15.454759,0 z" transform="matrix(3.9806769,0.08108861,-0.06085994,5.3037759,-76.290975,-185.60256)"/><path style="opacity:.1;fill:#97250b;fill-opacity:.88014981;stroke:#000;stroke-width:.75988358;stroke-miterlimit:4;stroke-opacity:1;stroke-dasharray:none;filter:url(#filter4510)" id="path4118" d="m 39.313748,41.372501 a 7.7273793,4.3149238 0 1 1 -15.454759,0 7.7273793,4.3149238 0 1 1 15.454759,0 z" transform="matrix(1.6648822,1.4880604,-0.36270798,0.51315099,36.066559,-50.194435)"/><path style="opacity:.1;fill:#97250b;fill-opacity:.88014981;stroke:#000;stroke-width:.65860772;stroke-miterlimit:4;stroke-opacity:1;stroke-dasharray:none;filter:url(#filter4498)" id="path4118-2" d="m 39.313748,41.372501 a 7.7273793,4.3149238 0 1 1 -15.454759,0 7.7273793,4.3149238 0 1 1 15.454759,0 z" transform="matrix(-2.4863566,0.2459187,-0.58305189,-1.0486916,178.25217,94.034284)"/><path style="opacity:.1;fill:#97250b;fill-opacity:.88014981;stroke:#000;stroke-width:.74711025;stroke-miterlimit:4;stroke-opacity:1;stroke-dasharray:none;filter:url(#filter4459)" id="path4118-2-5" d="m 39.313748,41.372501 a 7.7273793,4.3149238 0 1 1 -15.454759,0 7.7273793,4.3149238 0 1 1 15.454759,0 z" transform="matrix(-2.1243801,-0.23667307,0.541693,-0.92817068,60.804505,104.66777)"/><path style="opacity:.1;fill:#97250b;fill-opacity:.88014981;stroke:#000;stroke-width:.81564039;stroke-miterlimit:4;stroke-opacity:1;stroke-dasharray:none;filter:url(#filter4506)" id="path4118-2-5-8" d="m 39.313748,41.372501 a 7.7273793,4.3149238 0 1 1 -15.454759,0 7.7273793,4.3149238 0 1 1 15.454759,0 z" transform="matrix(-1.3994633,1.0961271,-1.0461216,-0.16734266,109.90962,-8.6819158)"/><path style="opacity:.1;fill:#97250b;fill-opacity:.88014981;stroke:#000;stroke-width:.69045037;stroke-miterlimit:4;stroke-opacity:1;stroke-dasharray:none;filter:url(#filter4494)" id="path4118-9" d="m 39.313748,41.372501 a 7.7273793,4.3149238 0 1 1 -15.454759,0 7.7273793,4.3149238 0 1 1 15.454759,0 z" transform="matrix(0.10539808,2.5256742,-0.93787893,0.20571844,113.65061,-46.422674)"/><path style="opacity:.1;fill:#97250b;fill-opacity:.88014981;stroke:#000;stroke-width:.68630862;stroke-miterlimit:4;stroke-opacity:1;stroke-dasharray:none;filter:url(#filter4502)" id="path4118-9-7" d="m 39.313748,41.372501 a 7.7273793,4.3149238 0 1 1 -15.454759,0 7.7273793,4.3149238 0 1 1 15.454759,0 z" transform="matrix(-0.03194562,2.5567777,0.94109093,0.11056291,-23.087548,-45.216767)"/><path style="opacity:.1;fill:#97250b;fill-opacity:.88014981;stroke:#000;stroke-width:.82526827;stroke-miterlimit:4;stroke-opacity:1;stroke-dasharray:none;filter:url(#filter4443)" id="path4118-9-7-6" d="m 39.313748,41.372501 a 7.7273793,4.3149238 0 1 1 -15.454759,0 7.7273793,4.3149238 0 1 1 15.454759,0 z" transform="matrix(-2.9511784,0.0205164,0.19330664,0.66178802,130.49823,-14.919666)"/><path style="opacity:.25;fill:#ff5810;fill-opacity:1;stroke:#000;stroke-width:.61587179px;stroke-linecap:butt;stroke-linejoin:miter;stroke-opacity:1" id="path4246" d="m 41.432798,39.343605 c 2.274976,-2.410961 1.908186,-7.241508 4.522854,-7.521651 2.480929,0.288693 1.93165,5.109416 3.923762,7.706544 4.468135,-0.04127 9.923335,-3.735843 10.877969,-0.959699 0.771348,1.711521 -4.783233,4.057748 -5.122504,8.491421 2.849773,2.696654 7.408564,3.429071 7.057475,5.613233 -0.266063,2.215958 -3.228242,0.74124 -6.715408,1.610254 0.536778,2.04691 -1.047998,1.341659 -3.214654,2.156958 -1.581516,0.168401 -4.713837,-1.223625 -6.111886,-2.207201 -1.317753,0.684436 -4.156227,2.234522 -5.933899,2.052609 -1.479685,-0.786282 -1.81901,-1.237297 -1.81538,-2.544776 -2.29219,0.207855 -7.149718,0.129768 -7.888674,-1.898934 -0.915217,-2.824709 6.495475,-2.372328 7.100475,-4.379748 5.685053,-1.367649 -6.097356,-2.78191 -6.266758,-5.00105 -0.276781,-3.315967 6.195936,-2.858774 9.586628,-3.11796 z"/><path style="opacity:.25;fill:#ffb50f;fill-opacity:1;stroke:#000;stroke-width:.43562669px;stroke-linecap:butt;stroke-linejoin:miter;stroke-opacity:1" id="path4266" d="m 46.41256,36.698095 c 1.897672,0.985526 1.898319,4.386229 2.83063,6.600793 2.377455,0.67266 5.131327,-0.745877 7.132364,2.017978 -0.876807,2.540301 -4.215279,3.086212 -6.322918,4.629319 -0.449842,1.654883 -2.191063,3.625101 -3.407868,3.149544 -1.226601,0.232068 -1.496845,-2.158041 -1.902154,-3.827099 -2.214492,-1.232966 -5.443957,-0.35142 -6.643478,-3.698896 1.165057,-2.016038 3.745169,-1.575399 5.618181,-2.362355 0.895011,-2.171415 0.096,-5.16631 2.695243,-6.509284 z"/><path style="opacity:.1;fill:#97250b;fill-opacity:.88014981;stroke:#000;stroke-width:.89635652;stroke-miterlimit:4;stroke-opacity:1;stroke-dasharray:none;filter:url(#filter4463)" id="path4118-9-7-6-6" d="m 39.313748,41.372501 a 7.7273793,4.3149238 0 1 1 -15.454759,0 7.7273793,4.3149238 0 1 1 15.454759,0 z" transform="matrix(-2.5435404,0.01844947,0.16660572,0.59511635,120.57851,35.716922)"/></g></svg>