<svg xmlns="http://www.w3.org/2000/svg" xmlns:svg="http://www.w3.org/2000/svg" id="svg2" width="32" height="32" version="1.1"><metadata id="metadata7"/><g id="layer1" transform="translate(0,-1020.3622)"><path style="fill:#fff;fill-opacity:1;stroke:#000;stroke-opacity:1;stroke-width:3.13632561;stroke-miterlimit:4;stroke-dasharray:none" id="path3768" d="m 18.631111,21.297777 c 0,4.771741 -2.403733,8.640001 -5.368889,8.640001 -2.965155,0 -5.3688886,-3.86826 -5.3688886,-8.640001 0,-4.77174 2.4037336,-8.64 5.3688886,-8.64 2.965156,0 5.368889,3.86826 5.368889,8.64 z" transform="matrix(0.23396482,-0.10797219,0.217233,0.33426674,10.014395,1025.2547)"/><path style="fill:#fff;fill-opacity:1;stroke:#000;stroke-width:1.49414039;stroke-miterlimit:4;stroke-opacity:1;stroke-dasharray:none" id="path3772" d="m 13.582223,7.6088891 a 3.3777778,1.6355555 0 1 1 -6.7555559,0 3.3777778,1.6355555 0 1 1 6.7555559,0 z" transform="matrix(-0.33982372,-0.54247214,0.61624499,-0.33441325,24.77087,1043.9893)"/><path style="fill:#fff;fill-opacity:1;stroke:#000;stroke-width:1.6491456;stroke-miterlimit:4;stroke-opacity:1;stroke-dasharray:none" id="path3770" d="m 21.617778,9.8488894 a 4.8355556,3.9466667 0 1 1 -9.671111,0 4.8355556,3.9466667 0 1 1 9.671111,0 z" transform="matrix(-0.22356784,-0.49753035,0.57907902,-0.35595805,23.129755,1044.6235)"/><path style="fill:#4d4d4b;fill-opacity:1;stroke:#000;stroke-width:1.97021568;stroke-miterlimit:4;stroke-opacity:1;stroke-dasharray:none" id="path3772-7" d="m 13.582223,7.6088891 a 3.3777778,1.6355555 0 1 1 -6.7555559,0 3.3777778,1.6355555 0 1 1 6.7555559,0 z" transform="matrix(-0.24264763,-0.47399976,0.52327797,-0.03948997,22.35037,1039.435)"/><path style="fill:#fff;fill-opacity:1;stroke:#000;stroke-width:1.1961062;stroke-miterlimit:4;stroke-opacity:1;stroke-dasharray:none" id="path3794" d="m 20.479999,9.7066669 a 0.39111111,0.39111111 0 1 1 -0.782222,0 0.39111111,0.39111111 0 1 1 0.782222,0 z" transform="matrix(-0.49879661,-0.65596898,0.65783299,-0.53620082,29.357194,1052.1876)"/><path style="fill:#fff;fill-opacity:1;stroke:#000;stroke-width:1.1982708;stroke-miterlimit:4;stroke-opacity:1;stroke-dasharray:none" id="path3794-0" d="m 20.479999,9.7066669 a 0.39111111,0.39111111 0 1 1 -0.782222,0 0.39111111,0.39111111 0 1 1 0.782222,0 z" transform="matrix(-0.54521032,-0.71700779,0.59965933,-0.48878336,29.51975,1051.0949)"/></g></svg>