<svg xmlns="http://www.w3.org/2000/svg" xmlns:svg="http://www.w3.org/2000/svg" id="svg2" width="32" height="64" version="1.1"><metadata id="metadata7"/><g id="layer1" transform="translate(0,-988.3622)"><path style="fill:#fff;fill-opacity:1;stroke:#000;stroke-opacity:1" id="path3772-7" d="m 13.582223,7.6088891 a 3.3777778,1.6355555 0 1 1 -6.7555559,0 3.3777778,1.6355555 0 1 1 6.7555559,0 z" transform="matrix(-0.89057749,0.08700097,0.08700097,0.89057749,18.932011,1004.6567)"/><path transform="matrix(-0.62149232,0.78342026,0.78342026,0.62149232,-0.447879,1016.0487)" style="fill:#fff;fill-opacity:1;stroke:#000;stroke-opacity:1" id="path3766-3" d="m 20.906667,29.475555 a 3.3777778,1.1733333 0 1 1 -6.755556,0 3.3777778,1.1733333 0 1 1 6.755556,0 z"/><path style="fill:#fff;fill-opacity:1;stroke:#000;stroke-opacity:1" id="path3766" d="m 20.906667,29.475555 a 3.3777778,1.1733333 0 1 1 -6.755556,0 3.3777778,1.1733333 0 1 1 6.755556,0 z" transform="matrix(-0.33034447,0.94386044,0.94386044,0.33034447,-8.742664,1022.1076)"/><path style="fill:#fff;fill-opacity:1;stroke:#000;stroke-opacity:1" id="path3768" d="m 18.631111,21.297777 a 5.3688889,8.6400003 0 1 1 -10.7377776,0 5.3688889,8.6400003 0 1 1 10.7377776,0 z" transform="matrix(-0.92680585,0.1908929,0.24322118,1.1768348,17.333309,1001.68)"/><path style="fill:#fff;fill-opacity:1;stroke:#000;stroke-opacity:1" id="path3770" d="m 21.617778,9.8488894 a 4.8355556,3.9466667 0 1 1 -9.671111,0 4.8355556,3.9466667 0 1 1 9.671111,0 z" transform="matrix(-0.94692213,-0.25815737,-0.24995149,0.9168229,25.053972,1011.0962)"/><path style="fill:#fff;fill-opacity:1;stroke:#000;stroke-opacity:1" id="path3792" d="m 21.191111,22.151112 a 1.4222223,3.8044446 0 1 1 -2.844445,0 1.4222223,3.8044446 0 1 1 2.844445,0 z" transform="matrix(0.80185469,-0.64022529,-0.58465583,-0.87806813,0.676719,1050.982)"/><path style="fill:#4d4d4b;fill-opacity:1;stroke:#000;stroke-opacity:1" id="path3772" d="m 13.582223,7.6088891 a 3.3777778,1.6355555 0 1 1 -6.7555559,0 3.3777778,1.6355555 0 1 1 6.7555559,0 z" transform="matrix(-0.99910418,0.04231853,0.04231853,0.99910418,21.939701,1005.608)"/><path style="fill:#fff;fill-opacity:1;stroke:#000;stroke-opacity:1" id="path3794" d="m 20.479999,9.7066669 a 0.39111111,0.39111111 0 1 1 -0.782222,0 0.39111111,0.39111111 0 1 1 0.782222,0 z" transform="matrix(-0.9044565,-0.42656587,-0.42656587,0.9044565,28.311809,1014.2316)"/><path style="fill:#fff;fill-opacity:1;stroke:#000;stroke-opacity:1" id="path3796" d="m 17.493333,27.946667 a 3.6977777,2.2755556 0 1 1 -7.395556,0 3.6977777,2.2755556 0 1 1 7.395556,0 z" transform="matrix(-0.70939223,0.20826018,0.49651959,1.7651453,8.991956,989.39389)"/></g></svg>