<svg xmlns="http://www.w3.org/2000/svg" xmlns:svg="http://www.w3.org/2000/svg" id="svg2" width="36" height="32" version="1.1"><metadata id="metadata7"/><g id="layer1" transform="translate(0,-1020.3622)"><path style="fill:#fff;fill-opacity:1;stroke:#000;stroke-width:7.26201248;stroke-miterlimit:4;stroke-opacity:1;stroke-dasharray:none" id="path3768" d="m 18.631111,21.297777 a 5.3688889,8.6400003 0 1 1 -10.7377776,0 5.3688889,8.6400003 0 1 1 10.7377776,0 z" transform="matrix(0.10083428,-0.04672858,0.09362319,0.14466512,14.127379,1028.1518)"/><path style="fill:#fff;fill-opacity:1;stroke:#000;stroke-width:1.49414039;stroke-miterlimit:4;stroke-opacity:1;stroke-dasharray:none" id="path3772" d="m 13.582223,7.6088891 a 3.3777778,1.6355555 0 1 1 -6.7555559,0 3.3777778,1.6355555 0 1 1 6.7555559,0 z" transform="matrix(-0.41039793,-0.49125321,0.56507688,-0.41506414,31.81249,1043.8545)"/><path style="fill:#fff;fill-opacity:1;stroke:#000;stroke-width:1.6491456;stroke-miterlimit:4;stroke-opacity:1;stroke-dasharray:none" id="path3770" d="m 21.617778,9.8488894 a 4.8355556,3.9466667 0 1 1 -9.671111,0 4.8355556,3.9466667 0 1 1 9.671111,0 z" transform="matrix(0.53414641,-0.11048369,0.2220652,0.64243731,21.576587,1029.5354)"/><path style="fill:#4d4d4b;fill-opacity:1;stroke:#000;stroke-width:1.97021568;stroke-miterlimit:4;stroke-opacity:1;stroke-dasharray:none" id="path3772-7" d="m 13.582223,7.6088891 a 3.3777778,1.6355555 0 1 1 -6.7555559,0 3.3777778,1.6355555 0 1 1 6.7555559,0 z" transform="matrix(-0.03003876,0.53164961,-0.47154928,-0.23026195,36.793031,1025.4848)"/><path style="fill:#fff;fill-opacity:1;stroke:#000;stroke-width:1.1961062;stroke-miterlimit:4;stroke-opacity:1;stroke-dasharray:none" id="path3794" d="m 20.479999,9.7066669 a 0.39111111,0.39111111 0 1 1 -0.782222,0 0.39111111,0.39111111 0 1 1 0.782222,0 z" transform="matrix(0.74844345,-0.34485616,0.38096845,0.75836575,12.843131,1033.9764)"/><path style="fill:#fff;fill-opacity:1;stroke:#000;stroke-width:1.1982708;stroke-miterlimit:4;stroke-opacity:1;stroke-dasharray:none" id="path3794-0" d="m 20.479999,9.7066669 a 0.39111111,0.39111111 0 1 1 -0.782222,0 0.39111111,0.39111111 0 1 1 0.782222,0 z" transform="matrix(0.81808714,-0.37694549,0.34727854,0.69130175,13.874659,1034.3718)"/></g></svg>