<svg xmlns="http://www.w3.org/2000/svg" xmlns:svg="http://www.w3.org/2000/svg" id="svg2" width="32" height="32" version="1.1"><metadata id="metadata7"/><g id="layer1" transform="translate(0,-1020.3622)"><path style="fill:#fff;fill-opacity:1;stroke:#000;stroke-opacity:1;stroke-width:.99999999;stroke-miterlimit:4;stroke-dasharray:none" id="path3792" d="m 21.191111,22.151112 c 0,2.101136 -0.636751,3.804444 -1.422223,3.804444 -0.785471,0 -1.422222,-1.703308 -1.422222,-3.804444 0,-2.101137 0.636751,-3.804445 1.422222,-3.804445 0.785472,0 1.422223,1.703308 1.422223,3.804445 z" transform="matrix(0.28945744,0.9571909,-0.9571909,0.28945744,22.839011,1014.129)"/><path style="fill:#fff;fill-opacity:1;stroke:#000;stroke-opacity:1;stroke-width:1;stroke-miterlimit:4;stroke-dasharray:none" id="path3792-5" d="m 21.191111,22.151112 c 0,2.101136 -0.636751,3.804444 -1.422223,3.804444 -0.785471,0 -1.422222,-1.703308 -1.422222,-3.804444 0,-2.101137 0.636751,-3.804445 1.422222,-3.804445 0.785472,0 1.422223,1.703308 1.422223,3.804445 z" transform="matrix(-0.71368347,-0.70046834,0.70046834,-0.71368347,19.57756,1066.0223)"/><path style="fill:#fff;fill-opacity:1;stroke:#000;stroke-opacity:1;stroke-width:1.29164768;stroke-miterlimit:4;stroke-dasharray:none" id="path3768" d="m 18.631111,21.297777 c 0,4.771741 -2.403733,8.640001 -5.368889,8.640001 -2.965155,0 -5.3688886,-3.86826 -5.3688886,-8.640001 0,-4.77174 2.4037336,-8.64 5.3688886,-8.64 2.965156,0 5.368889,3.86826 5.368889,8.64 z" transform="matrix(0.751031,0.33456025,-0.32601343,0.65286538,11.015223,1022.8168)"/><path style="fill:#fff;fill-opacity:1;stroke:#000;stroke-opacity:1;stroke-width:1.90751691;stroke-miterlimit:4;stroke-dasharray:none" id="path3796-0" d="m 17.493333,27.946667 c 0,1.256754 -1.655552,2.275555 -3.697778,2.275555 -2.042226,0 -3.697778,-1.018801 -3.697778,-2.275555 0,-1.256755 1.655552,-2.275556 3.697778,-2.275556 2.042226,0 3.697778,1.018801 3.697778,2.275556 z" transform="matrix(0.39084305,-0.06904326,0.24411558,0.66004724,2.341385,1027.3705)"/><path style="fill:#fff;fill-opacity:1;stroke:#000;stroke-opacity:1;stroke-width:1.6961589;stroke-miterlimit:4;stroke-dasharray:none" id="path3766" d="m 20.906667,29.475555 c 0,0.648015 -1.512283,1.173334 -3.377778,1.173334 -1.865495,0 -3.377778,-0.525319 -3.377778,-1.173334 0,-0.648014 1.512283,-1.173333 3.377778,-1.173333 1.865495,0 3.377778,0.525319 3.377778,1.173333 z" transform="matrix(0.45245054,0.10047893,-0.30208209,0.70115253,6.3275252,1026.1114)"/><g id="g5315" transform="translate(0.23526228,3.2681026)" style="stroke-width:1;stroke-miterlimit:4;stroke-dasharray:none"><path id="path3772" d="m 13.582223,7.6088891 c 0,0.9032924 -1.512283,1.6355555 -3.377778,1.6355555 -1.8654953,0 -3.3777779,-0.7322631 -3.3777779,-1.6355555 0,-0.9032924 1.5122826,-1.6355555 3.3777779,-1.6355555 1.865495,0 3.377778,0.7322631 3.377778,1.6355555 z" transform="matrix(0.70530656,0.55241385,-0.64843979,0.77772055,9.1190134,1014.6735)" style="fill:#fff;fill-opacity:1;stroke:#000;stroke-opacity:1;stroke-width:1.05016845;stroke-miterlimit:4;stroke-dasharray:none"/></g><path style="fill:#fff;fill-opacity:1;stroke:#000;stroke-opacity:1;stroke-width:1.15911512;stroke-miterlimit:4;stroke-dasharray:none" id="path3770" d="m 21.617778,9.8488894 c 0,2.1796836 -2.164952,3.9466666 -4.835555,3.9466666 -2.670604,0 -4.835556,-1.766983 -4.835556,-3.9466666 0,-2.1796839 2.164952,-3.9466668 4.835556,-3.9466668 2.670603,0 4.835555,1.7669829 4.835555,3.9466668 z" transform="matrix(0.73439833,0.26380857,-0.24405186,0.92581235,6.7628418,1020.8091)"/><g id="g5318" transform="translate(0.23526228,3.2681026)" style="stroke-width:1;stroke-miterlimit:4;stroke-dasharray:none"><path id="path3772-7" d="m 13.582223,7.6088891 c 0,0.9032924 -1.512283,1.6355555 -3.377778,1.6355555 -1.8654953,0 -3.3777779,-0.7322631 -3.3777779,-1.6355555 0,-0.9032924 1.5122826,-1.6355555 3.3777779,-1.6355555 1.865495,0 3.377778,0.7322631 3.377778,1.6355555 z" transform="matrix(0.33780757,0.87880052,-0.83368904,0.30951139,20.037348,1015.0079)" style="fill:#4d4d4b;fill-opacity:1;stroke:#000;stroke-opacity:1;stroke-width:1.09291141;stroke-miterlimit:4;stroke-dasharray:none"/></g><path style="fill:#fff;fill-opacity:1;stroke:#000;stroke-opacity:1;stroke-width:.84069277;stroke-miterlimit:4;stroke-dasharray:none" id="path3794" d="m 20.479999,9.7066669 c 0,0.2160047 -0.175106,0.3911111 -0.391111,0.3911111 -0.216005,0 -0.391111,-0.1751064 -0.391111,-0.3911111 0,-0.2160047 0.175106,-0.3911111 0.391111,-0.3911111 0.216005,0 0.391111,0.1751064 0.391111,0.3911111 z" transform="matrix(1.1807069,0.14432601,-0.14432601,1.1807069,-8.5171952,1019.8497)"/><path style="fill:#fff;fill-opacity:1;stroke:#000;stroke-opacity:1;stroke-width:1.55452688;stroke-miterlimit:4;stroke-dasharray:none" id="path3796" d="m 17.493333,27.946667 c 0,1.256754 -1.655552,2.275555 -3.697778,2.275555 -2.042226,0 -3.697778,-1.018801 -3.697778,-2.275555 0,-1.256755 1.655552,-2.275556 3.697778,-2.275556 2.042226,0 3.697778,1.018801 3.697778,2.275556 z" transform="matrix(0.34984657,0.21675602,-0.63162372,0.79150178,21.119105,1022.0536)"/><path style="fill:#fff;fill-opacity:1;stroke:#000;stroke-opacity:1;stroke-width:.8422142;stroke-miterlimit:4;stroke-dasharray:none" id="path3794-0" d="m 20.479999,9.7066669 c 0,0.2160047 -0.175106,0.3911111 -0.391111,0.3911111 -0.216005,0 -0.391111,-0.1751064 -0.391111,-0.3911111 0,-0.2160047 0.175106,-0.3911111 0.391111,-0.3911111 0.216005,0 0.391111,0.1751064 0.391111,0.3911111 z" transform="matrix(1.2905733,0.15775574,-0.13156293,1.0762943,-7.5848365,1021.0811)"/><path transform="matrix(0.11587228,-0.53934856,0.68469456,0.15060916,-6.0162397,1047.2004)" style="fill:#fff;fill-opacity:1;stroke:#000;stroke-opacity:1;stroke-width:1.60801539;stroke-miterlimit:4;stroke-dasharray:none" id="path3766-3" d="m 20.906667,29.475555 c 0,0.648015 -1.512283,1.173334 -3.377778,1.173334 -1.865495,0 -3.377778,-0.525319 -3.377778,-1.173334 0,-0.648014 1.512283,-1.173333 3.377778,-1.173333 1.865495,0 3.377778,0.525319 3.377778,1.173333 z"/></g></svg>