<svg xmlns="http://www.w3.org/2000/svg" xmlns:svg="http://www.w3.org/2000/svg" id="svg2" width="32" height="32" version="1.1"><metadata id="metadata7"/><g id="layer1" transform="translate(0,-1020.3622)"><ellipse style="fill:#4d4d4b;fill-opacity:1;stroke:#000;stroke-width:1.00005281;stroke-miterlimit:4;stroke-dasharray:none;stroke-opacity:1" id="path3772-7" cx="938.223" cy="-430.448" rx="3.207" ry="1.233" transform="matrix(0.42590241,0.90476911,0.91086137,-0.41271246,0,0)"/><path style="fill:#fff;fill-opacity:1;stroke:#000;stroke-width:1;stroke-miterlimit:4;stroke-dasharray:none;stroke-opacity:1" id="path3796-6" d="m 21.792592,1041.7997 a 1.9873446,2.7105336 29.244869 0 0 -0.368213,-3.3547 1.9873446,2.7105336 29.244869 0 0 -3.063561,1.3487 1.9873446,2.7105336 29.244869 0 0 0.368249,3.3545 1.9873446,2.7105336 29.244869 0 0 3.063486,-1.3486 z"/><path style="fill:#fff;fill-opacity:1;stroke:#000;stroke-width:1;stroke-miterlimit:4;stroke-dasharray:none;stroke-opacity:1" id="path3766-84" d="m 19.710592,1042.1489 a 1.1225084,2.0604898 55.140633 0 0 2.330771,-0.2535 1.1225084,2.0604898 55.140633 0 0 1.052617,-2.0991 1.1225084,2.0604898 55.140633 0 0 -2.330771,0.2535 1.1225084,2.0604898 55.140633 0 0 -1.052617,2.0991 z"/><ellipse style="fill:#fff;fill-opacity:1;stroke:#000;stroke-width:1.00000036;stroke-miterlimit:4;stroke-dasharray:none;stroke-opacity:1" id="path3768-5" cx="-19.746" cy="1039.969" rx="5.402" ry="7.47" transform="matrix(-0.99999422,-0.00340142,-0.00460693,0.99998939,0,0)"/><ellipse style="fill:#fff;fill-opacity:1;stroke:#000;stroke-width:1.00027287;stroke-miterlimit:4;stroke-dasharray:none;stroke-opacity:1" id="path3770-7" cx="-117.851" cy="1019.846" rx="3.961" ry="3.935" transform="matrix(0.9874941,-0.15765599,0.12495588,0.9921623,0,0)"/><ellipse style="fill:#fff;fill-opacity:1;stroke:#000;stroke-width:1.00013208;stroke-miterlimit:4;stroke-dasharray:none;stroke-opacity:1" id="path3792-5-0" cx="-1029.559" cy="154.315" rx="1.45" ry="3.822" transform="matrix(-0.15508054,-0.98790183,-0.99120477,0.13233708,0,0)"/><ellipse style="fill:#fff;fill-opacity:1;stroke:#000;stroke-width:1;stroke-miterlimit:4;stroke-dasharray:none;stroke-opacity:1" id="path3792-4" cx="833.551" cy="-607.813" rx="1.422" ry="3.804" transform="matrix(0.60493781,0.79627272,0.79627272,-0.60493781,0,0)"/><path style="fill:#fff;fill-opacity:1;stroke:#000;stroke-width:.99999994;stroke-miterlimit:4;stroke-dasharray:none;stroke-opacity:1" id="path3796-7-5" d="m 13.540656,1047.2522 a 1.9462298,3.2893836 0.996912 0 1 -2.000042,3.2605 1.9462298,3.2893836 0.996912 0 1 -1.8920109,-3.3173 1.9462298,3.2893836 0.996912 0 1 2.0000399,-3.2605 1.9462298,3.2893836 0.996912 0 1 1.892013,3.3173 z"/><path style="fill:#fff;fill-opacity:1;stroke:#000;stroke-width:1;stroke-miterlimit:4;stroke-dasharray:none;stroke-opacity:1" id="path3766-8-2" d="m 13.17061,1049.8018 a 1.1225084,2.0604898 69.065392 0 1 -1.519954,1.7851 1.1225084,2.0604898 69.065392 0 1 -2.3278079,-0.3095 1.1225084,2.0604898 69.065392 0 1 1.5199529,-1.7851 1.1225084,2.0604898 69.065392 0 1 2.327809,0.3095 z"/><ellipse style="fill:#fff;fill-opacity:1;stroke:#000;stroke-width:1.00003624;stroke-miterlimit:4;stroke-dasharray:none;stroke-opacity:1" id="path3772" cx="971.271" cy="-338.93" rx="3.051" ry="1.391" transform="matrix(0.34172273,0.93980082,0.94384516,-0.33038813,0,0)"/><circle style="fill:#fff;fill-opacity:1;stroke:#000;stroke-width:1;stroke-miterlimit:4;stroke-dasharray:none;stroke-opacity:1" id="path3794" cx="-507.812" cy="896.839" r=".391" transform="matrix(0.8660254,-0.5,0.5,0.8660254,0,0)"/><circle style="fill:#fff;fill-opacity:1;stroke:#000;stroke-width:1;stroke-miterlimit:4;stroke-dasharray:none;stroke-opacity:1" id="path3794-7" cx="-504.976" cy="897.419" r=".391" transform="matrix(0.8660254,-0.5,0.5,0.8660254,0,0)"/></g></svg>