<svg xmlns="http://www.w3.org/2000/svg" xmlns:svg="http://www.w3.org/2000/svg" id="svg2" width="32" height="32" version="1.1"><metadata id="metadata7"/><g id="layer1" transform="translate(0,-1020.3622)"><path transform="matrix(0.4775909,0,0,1.1151488,9.4971202,1017.6231)" style="fill:red;fill-opacity:1;stroke:#000;stroke-opacity:1" id="path3766-3" d="m 20.906667,29.475555 a 3.3777778,1.1733333 0 0 1 -3.377778,1.173334 3.3777778,1.1733333 0 0 1 -3.377778,-1.173334 3.3777778,1.1733333 0 0 1 3.377778,-1.173333 3.3777778,1.1733333 0 0 1 3.377778,1.173333 z"/><path style="fill:red;fill-opacity:1;stroke:#000;stroke-opacity:1" id="path3792-5" d="m 21.191111,22.151112 a 1.4222223,3.8044446 0 0 1 -1.422223,3.804444 1.4222223,3.8044446 0 0 1 -1.422222,-3.804444 1.4222223,3.8044446 0 0 1 1.422222,-3.804445 1.4222223,3.8044446 0 0 1 1.422223,3.804445 z" transform="matrix(0.99037064,-0.13844128,0.13844128,0.99037064,-3.5638265,1021.5517)"/><path style="fill:red;fill-opacity:1;stroke:#000;stroke-opacity:1" id="path3796-0" d="m 17.493333,27.946667 a 3.6977777,2.2755556 0 0 1 -3.697778,2.275555 3.6977777,2.2755556 0 0 1 -3.697778,-2.275555 3.6977777,2.2755556 0 0 1 3.697778,-2.275556 3.6977777,2.2755556 0 0 1 3.697778,2.275556 z" transform="matrix(0.43764283,0,0,1.0694075,11.692913,1018.2119)"/><path style="fill:red;fill-opacity:1;stroke:#000;stroke-opacity:1" id="path3768" d="m 18.631111,21.297777 a 5.3688889,8.6400003 0 0 1 -5.368889,8.640001 5.3688889,8.6400003 0 0 1 -5.3688886,-8.640001 5.3688889,8.6400003 0 0 1 5.3688886,-8.64 5.3688889,8.6400003 0 0 1 5.368889,8.64 z" transform="matrix(0.99573328,0.09227795,-0.09227795,0.99573328,2.7686783,1020.071)"/><path style="fill:red;fill-opacity:1;stroke:#000;stroke-opacity:1" id="path3766" d="m 20.906667,29.475555 a 3.3777778,1.1733333 0 0 1 -3.377778,1.173334 3.3777778,1.1733333 0 0 1 -3.377778,-1.173334 3.3777778,1.1733333 0 0 1 3.377778,-1.173333 3.3777778,1.1733333 0 0 1 3.377778,1.173333 z" transform="matrix(0.46047901,0,0,0.99392934,0.88749168,1021.9341)"/><path style="fill:red;fill-opacity:1;stroke:#000;stroke-opacity:1" id="path3792" d="m 21.191111,22.151112 a 1.4222223,3.8044446 0 0 1 -1.422223,3.804444 1.4222223,3.8044446 0 0 1 -1.422222,-3.804444 1.4222223,3.8044446 0 0 1 1.422222,-3.804445 1.4222223,3.8044446 0 0 1 1.422223,3.804445 z" transform="matrix(0.99904735,-0.04363931,0.04363931,0.99904735,-10.448532,1019.4884)"/><path style="fill:red;fill-opacity:1;stroke:#000;stroke-opacity:1" id="path3772" d="M 13.582223,7.6088891 A 3.3777778,1.6355555 0 0 1 10.204445,9.2444446 3.3777778,1.6355555 0 0 1 6.8266671,7.6088891 3.3777778,1.6355555 0 0 1 10.204445,5.9733336 3.3777778,1.6355555 0 0 1 13.582223,7.6088891 Z" transform="matrix(0.04125696,0.89493925,-1.0124609,0.01569474,19.869695,1017.8345)"/><path style="fill:red;fill-opacity:1;stroke:#000;stroke-opacity:1" id="path3770" d="M 21.617778,9.8488894 A 4.8355556,3.9466667 0 0 1 16.782223,13.795556 4.8355556,3.9466667 0 0 1 11.946667,9.8488894 4.8355556,3.9466667 0 0 1 16.782223,5.9022226 4.8355556,3.9466667 0 0 1 21.617778,9.8488894 Z" transform="matrix(0.76098133,0.17275212,-0.12991639,0.94858397,3.9691329,1019.7225)"/><path style="fill:#000;fill-opacity:1;stroke:#000;stroke-opacity:1" id="path3772-7" d="M 13.582223,7.6088891 A 3.3777778,1.6355555 0 0 1 10.204445,9.2444446 3.3777778,1.6355555 0 0 1 6.8266671,7.6088891 3.3777778,1.6355555 0 0 1 10.204445,5.9733336 3.3777778,1.6355555 0 0 1 13.582223,7.6088891 Z" transform="matrix(-0.08820453,0.9373496,-0.88436103,-0.09348951,25.997658,1017.8023)"/><path style="fill:red;fill-opacity:1;stroke:#000;stroke-opacity:1" id="path3794" d="M 20.479999,9.7066669 A 0.39111111,0.39111111 0 0 1 20.088888,10.097778 0.39111111,0.39111111 0 0 1 19.697777,9.7066669 0.39111111,0.39111111 0 0 1 20.088888,9.3155558 0.39111111,0.39111111 0 0 1 20.479999,9.7066669 Z" transform="translate(-6.41673,1022.0929)"/><path style="fill:red;fill-opacity:1;stroke:#000;stroke-opacity:1" id="path3796" d="m 17.493333,27.946667 a 3.6977777,2.2755556 0 0 1 -3.697778,2.275555 3.6977777,2.2755556 0 0 1 -3.697778,-2.275555 3.6977777,2.2755556 0 0 1 3.697778,-2.275556 3.6977777,2.2755556 0 0 1 3.697778,2.275556 z" transform="matrix(0.39364924,0,0,1.1463312,3.3546409,1016.1591)"/><path style="fill:#fff;fill-opacity:1;stroke:#fff;stroke-opacity:1" id="path3794-9" d="M 20.479999,9.7066669 A 0.39111111,0.39111111 0 0 1 20.088888,10.097778 0.39111111,0.39111111 0 0 1 19.697777,9.7066669 0.39111111,0.39111111 0 0 1 20.088888,9.3155558 0.39111111,0.39111111 0 0 1 20.479999,9.7066669 Z" transform="matrix(0.82894583,0.23476904,-0.0447866,1.0622201,1.0481978,1016.8185)"/></g></svg>