<svg xmlns="http://www.w3.org/2000/svg" xmlns:svg="http://www.w3.org/2000/svg" id="svg2" width="96" height="64" version="1.1"><metadata id="metadata7"/><g id="layer1" transform="translate(0,-988.3622)"><path style="fill:#fff;fill-opacity:1;stroke:#000;stroke-opacity:1" id="path3772-7" d="m 13.582223,7.6088891 a 3.3777778,1.6355555 0 1 1 -6.7555559,0 3.3777778,1.6355555 0 1 1 6.7555559,0 z" transform="matrix(-0.37816599,0.8109796,0.8109796,0.37816599,70.672356,980.71831)"/><path transform="matrix(-1,0,0,1,96.462222,987.11781)" style="fill:#fff;fill-opacity:1;stroke:#000;stroke-opacity:1" id="path3766-3" d="m 20.906667,29.475555 a 3.3777778,1.1733333 0 1 1 -6.755556,0 3.3777778,1.1733333 0 1 1 6.755556,0 z"/><path style="fill:#fff;fill-opacity:1;stroke:#000;stroke-opacity:1" id="path3766" d="m 20.906667,29.475555 a 3.3777778,1.1733333 0 1 1 -6.755556,0 3.3777778,1.1733333 0 1 1 6.755556,0 z" transform="matrix(-1,0,0,1,96,988.36231)"/><path style="fill:#fff;fill-opacity:1;stroke:#000;stroke-opacity:1" id="path3768" d="m 18.631111,21.297777 a 5.3688889,8.6400003 0 1 1 -10.7377776,0 5.3688889,8.6400003 0 1 1 10.7377776,0 z" transform="matrix(-1.0107246,0.09569877,0.25622613,0.9874691,84.06122,985.76311)"/><path style="fill:#fff;fill-opacity:1;stroke:#000;stroke-opacity:1" id="path3792" d="m 21.191111,22.151112 a 1.4222223,3.8044446 0 1 1 -2.844445,0 1.4222223,3.8044446 0 1 1 2.844445,0 z" transform="matrix(-0.42261827,-0.9063078,-0.9063078,0.42261827,96.70317,1017.2671)"/><path style="fill:#fff;fill-opacity:1;stroke:#000;stroke-opacity:1" id="path3770" d="m 21.617778,9.8488894 a 4.8355556,3.9466667 0 1 1 -9.671111,0 4.8355556,3.9466667 0 1 1 9.671111,0 z" transform="matrix(-0.94803873,0.25402622,0.24595164,0.91790401,84.593547,985.24711)"/><path style="fill:#4d4d4b;fill-opacity:1;stroke:#000;stroke-opacity:1" id="path3772" d="m 13.582223,7.6088891 a 3.3777778,1.6355555 0 1 1 -6.7555559,0 3.3777778,1.6355555 0 1 1 6.7555559,0 z" transform="matrix(-0.42261825,0.90630779,0.90630779,0.42261825,72.292374,980.22441)"/><path style="fill:#fff;fill-opacity:1;stroke:#000;stroke-opacity:1" id="path3794" d="m 20.479999,9.7066669 a 0.39111111,0.39111111 0 1 1 -0.782222,0 0.39111111,0.39111111 0 1 1 0.782222,0 z" transform="matrix(-0.99619471,0.08715574,0.08715574,0.99619471,88.98728,986.31441)"/><path style="fill:#fff;fill-opacity:1;stroke:#000;stroke-opacity:1" id="path3796" d="m 17.493333,27.946667 a 3.6977777,2.2755556 0 1 1 -7.395556,0 3.6977777,2.2755556 0 1 1 7.395556,0 z" transform="matrix(-1.0909702,0.1923675,0.17185243,0.97462354,89.021777,984.96911)"/></g></svg>