<svg xmlns="http://www.w3.org/2000/svg" xmlns:svg="http://www.w3.org/2000/svg" id="svg2" width="32" height="32" version="1.1"><metadata id="metadata7"/><g id="layer1" transform="translate(0,-1020.3622)"><ellipse style="opacity:.33000004;fill:#fff;fill-opacity:1;stroke:#000;stroke-width:.71612138;stroke-miterlimit:4;stroke-dasharray:none;stroke-opacity:1" id="path3768" cx="7.805" cy="1046.864" rx="5.511" ry="4.317" transform="matrix(0.99999814,-0.0019268,0.00813251,0.99996693,0,0)"/><ellipse style="opacity:.66000001;fill:#fff;fill-opacity:1;stroke:#000;stroke-width:1;stroke-miterlimit:4;stroke-dasharray:none;stroke-opacity:1" id="path3792-5" cx="-1027.004" cy="188.299" rx="1.422" ry="3.804" transform="matrix(0.15845078,-0.98736688,0.98736688,0.15845078,0,0)"/><ellipse style="opacity:.66000001;fill:#fff;fill-opacity:1;stroke:#000;stroke-width:1;stroke-miterlimit:4;stroke-dasharray:none;stroke-opacity:1" id="path3792" cx="1005.681" cy="280.445" rx="1.422" ry="3.804" transform="matrix(0.27768132,0.96067325,-0.96067325,0.27768132,0,0)"/><ellipse style="fill:#fff;fill-opacity:1;stroke:#000;stroke-width:1.00200331;stroke-miterlimit:4;stroke-dasharray:none;stroke-opacity:1" id="path3772" cx="919.08" cy="565.243" rx="2.747" ry="1.666" transform="matrix(0.55396455,0.83254026,-0.87867989,0.47741141,0,0)"/><ellipse style="fill:#fff;fill-opacity:1;stroke:#000;stroke-width:1.00190151;stroke-miterlimit:4;stroke-dasharray:none;stroke-opacity:1" id="path3770" cx="-28.794" cy="1042.13" rx="3.773" ry="3.779" transform="matrix(0.99904269,0.04374581,0.04334417,0.9990602,0,0)"/><ellipse style="fill:#4d4d4b;fill-opacity:1;stroke:#000;stroke-width:1.00051284;stroke-miterlimit:4;stroke-dasharray:none;stroke-opacity:1" id="path3772-7" cx="1009.792" cy="181.769" rx="2.838" ry="1.468" transform="matrix(0.19217562,0.98136055,-0.97165724,0.23639417,0,0)"/><circle style="fill:#fff;fill-opacity:1;stroke:#000;stroke-width:1;stroke-miterlimit:4;stroke-dasharray:none;stroke-opacity:1" id="path3794" cx="-171.338" cy="1025.242" r=".465" transform="matrix(0.98393859,-0.17850729,0.17850729,0.98393859,0,0)"/><ellipse style="fill:#fff;fill-opacity:1;stroke:#000;stroke-width:1;stroke-miterlimit:4;stroke-dasharray:none;stroke-opacity:1" id="path3794-0" cx="-168.04" cy="1025.33" rx=".509" ry=".424" transform="matrix(0.98393859,-0.17850729,0.17850729,0.98393859,0,0)"/><ellipse style="opacity:1;fill:#6464fa;fill-opacity:1;stroke:none;stroke-width:1;stroke-linecap:round;stroke-miterlimit:4;stroke-dasharray:none;stroke-opacity:1" id="path4145" cx="12.876" cy="1032.872" rx="1.099" ry="1.089"/><ellipse style="opacity:1;fill:#6464fa;fill-opacity:1;stroke:none;stroke-width:1;stroke-linecap:round;stroke-miterlimit:4;stroke-dasharray:none;stroke-opacity:1" id="path4145-9" cx="13.044" cy="1028.45" rx="1.399" ry="1.34"/><ellipse style="opacity:1;fill:#6464fa;fill-opacity:1;stroke:none;stroke-width:1;stroke-linecap:round;stroke-miterlimit:4;stroke-dasharray:none;stroke-opacity:1" id="path4145-8" cx="14.102" cy="1036.409" rx=".789" ry=".847"/><ellipse style="opacity:1;fill:#6464fa;fill-opacity:1;stroke:none;stroke-width:1;stroke-linecap:round;stroke-miterlimit:4;stroke-dasharray:none;stroke-opacity:1" id="path4145-8-3" cx="15.07" cy="1038.708" rx=".478" ry=".524"/><ellipse style="opacity:.567;fill:#6464fa;fill-opacity:1;stroke:none;stroke-width:1;stroke-linecap:round;stroke-miterlimit:4;stroke-dasharray:none;stroke-opacity:1" id="path4145-8-3-4" cx="16.155" cy="1040.221" rx=".478" ry=".524"/></g></svg>