<svg xmlns="http://www.w3.org/2000/svg" xmlns:svg="http://www.w3.org/2000/svg" id="svg2" width="64" height="96" version="1.1"><metadata id="metadata7"/><g id="layer1" transform="translate(0,-956.3622)"><path style="fill:#fff;fill-opacity:1;stroke:#000;stroke-opacity:1" id="path3772-7" d="m 13.582223,7.6088891 a 3.3777778,1.6355555 0 1 1 -6.7555559,0 3.3777778,1.6355555 0 1 1 6.7555559,0 z" transform="matrix(-0.29294706,0.83696387,0.71890482,0.34105503,13.694272,963.09245)"/><path transform="matrix(-0.97343832,0.22894945,0.22894945,0.97343832,29.619539,969.1471)" style="fill:#fff;fill-opacity:1;stroke:#000;stroke-opacity:1" id="path3766-3" d="m 20.906667,29.475555 a 3.3777778,1.1733333 0 1 1 -6.755556,0 3.3777778,1.1733333 0 1 1 6.755556,0 z"/><path style="fill:#fff;fill-opacity:1;stroke:#000;stroke-opacity:1" id="path3766" d="m 20.906667,29.475555 a 3.3777778,1.1733333 0 1 1 -6.755556,0 3.3777778,1.1733333 0 1 1 6.755556,0 z" transform="matrix(-0.9989214,0.04643333,0.04643333,0.9989214,34.335124,971.6364)"/><path style="fill:#fff;fill-opacity:1;stroke:#000;stroke-opacity:1" id="path3768" d="m 18.631111,21.297777 a 5.3688889,8.6400003 0 1 1 -10.7377776,0 5.3688889,8.6400003 0 1 1 10.7377776,0 z" transform="matrix(-0.79542962,0.6118943,0.32933776,0.96134359,21.753027,963.14613)"/><path style="fill:#fff;fill-opacity:1;stroke:#000;stroke-opacity:1" id="path3770" d="m 21.617778,9.8488894 a 4.8355556,3.9466667 0 1 1 -9.671111,0 4.8355556,3.9466667 0 1 1 9.671111,0 z" transform="matrix(-0.87850793,0.17138861,0.14998079,0.94109695,29.131175,967.82144)"/><path style="fill:#4d4d4b;fill-opacity:1;stroke:#000;stroke-width:.90990227;stroke-opacity:1" id="path3772" d="m 16.558232,977.5606 c 0.758297,0.1203 1.426721,1.7841 1.427369,-0.056 6.47e-4,-1.8397 -0.613549,-3.4285 -1.371846,-3.5488 -0.758297,-0.1203 -0.416332,-0.6408 -1.427369,0.056 -1.515098,1.0435 0.613549,3.4285 1.371846,3.5488 z"/><path style="fill:#fff;fill-opacity:1;stroke:#000;stroke-opacity:1" id="path3794" d="m 20.479999,9.7066669 a 0.39111111,0.39111111 0 1 1 -0.782222,0 0.39111111,0.39111111 0 1 1 0.782222,0 z" transform="matrix(-1,0,0,1,34.594594,969.7864)"/><path style="fill:#fff;fill-opacity:1;stroke:#000;stroke-opacity:1" id="path3796" d="m 17.493333,27.946667 a 3.6977777,2.2755556 0 1 1 -7.395556,0 3.6977777,2.2755556 0 1 1 7.395556,0 z" transform="matrix(-1,0,0,1,33.387209,971.445)"/><rect style="fill:#000;fill-opacity:1;stroke:none" id="rect3921" width="2.031" height="11.958" x="253.447" y="950.099" transform="matrix(-0.95961355,0.28132157,0.28132157,0.95961355,0,0)"/><rect style="fill:#000;fill-opacity:1;stroke:none" id="rect3921-3" width="2.031" height="11.958" x="255.197" y="949.521" transform="matrix(-0.95961355,0.28132157,0.28132157,0.95961355,0,0)"/><path style="fill:#fff;fill-opacity:1;stroke:#000;stroke-opacity:1" id="path3792" d="m 21.191111,22.151112 a 1.4222223,3.8044446 0 1 1 -2.844445,0 1.4222223,3.8044446 0 1 1 2.844445,0 z" transform="matrix(0.98003404,-0.03638148,-0.04137073,-1.1457909,-0.67373243,1006.1948)"/><path style="fill:none;stroke:#5a5a58;stroke-width:3;stroke-linecap:butt;stroke-linejoin:miter;stroke-miterlimit:4;stroke-opacity:1;stroke-dasharray:none" id="path3066" d="m 32.999999,1023.3622 -34.0000004,-34"/></g></svg>