<svg xmlns="http://www.w3.org/2000/svg" xmlns:svg="http://www.w3.org/2000/svg" id="svg2" width="40" height="32" version="1.1"><metadata id="metadata7"/><g id="layer1" transform="translate(0,-1020.3622)"><path style="opacity:.5;fill:#fff;fill-opacity:1;stroke:#000;stroke-width:12.36899948;stroke-miterlimit:4;stroke-opacity:1;stroke-dasharray:none" id="path3768" d="m 18.631111,21.297777 a 5.3688889,8.6400003 0 1 1 -10.7377776,0 5.3688889,8.6400003 0 1 1 10.7377776,0 z" transform="matrix(0.10083431,-0.01610747,0.09362322,0.04986646,14.127378,1030.6003)"/><path style="fill:#fff;fill-opacity:1;stroke:#000;stroke-width:2.12774634;stroke-miterlimit:4;stroke-opacity:1;stroke-dasharray:none" id="path3770" d="m 21.617778,9.8488894 a 4.8355556,3.9466667 0 1 1 -9.671111,0 4.8355556,3.9466667 0 1 1 9.671111,0 z" transform="matrix(0.30632689,0.28947257,-0.28512918,0.45162511,32.54205,1025.8386)"/><path style="fill:#4d4d4b;fill-opacity:1;stroke:#000;stroke-width:1.97021842;stroke-miterlimit:4;stroke-opacity:1;stroke-dasharray:none" id="path3772-7" d="m 13.582223,7.6088891 a 3.3777778,1.6355555 0 1 1 -6.7555559,0 3.3777778,1.6355555 0 1 1 6.7555559,0 z" transform="matrix(-0.27824617,0.45401709,-0.3062598,-0.42612579,42.66874,1027.2746)"/><path style="fill:#fff;fill-opacity:1;stroke:#000;stroke-width:1.5432297;stroke-miterlimit:4;stroke-opacity:1;stroke-dasharray:none" id="path3794" d="m 20.479999,9.7066669 a 0.39111111,0.39111111 0 1 1 -0.782222,0 0.39111111,0.39111111 0 1 1 0.782222,0 z" transform="matrix(0.54310268,0.31414688,-0.28316083,0.60934903,25.954847,1022.3735)"/><path style="fill:#fff;fill-opacity:1;stroke:#000;stroke-width:1.54602253;stroke-miterlimit:4;stroke-opacity:1;stroke-dasharray:none" id="path3794-0" d="m 20.479999,9.7066669 a 0.39111111,0.39111111 0 1 1 -0.782222,0 0.39111111,0.39111111 0 1 1 0.782222,0 z" transform="matrix(0.59363913,0.34337867,-0.25812028,0.55546291,26.181637,1023.2255)"/></g></svg>