<svg xmlns="http://www.w3.org/2000/svg" xmlns:svg="http://www.w3.org/2000/svg" id="svg2" width="32" height="32" version="1.1"><metadata id="metadata7"/><g id="layer1" transform="translate(0,-1020.3622)"><ellipse style="fill:#fff;fill-opacity:1;stroke:#000;stroke-width:1.00028121;stroke-miterlimit:4;stroke-dasharray:none;stroke-opacity:1" id="path3772" cx="892.755" cy="-474" rx="3.039" ry="1.563" transform="matrix(-0.44407446,0.89598989,-0.88059825,-0.47386361,0,0)"/><ellipse style="fill:#4d4d4b;fill-opacity:1;stroke:#000;stroke-width:1.00008023;stroke-miterlimit:4;stroke-dasharray:none;stroke-opacity:1" id="path3772-7" cx="798.542" cy="-632.393" rx="3.177" ry="1.458" transform="matrix(-0.59590201,0.80305716,-0.79225364,-0.61019191,0,0)"/><path style="fill:#fff;fill-opacity:1;stroke:#000;stroke-width:1;stroke-miterlimit:4;stroke-dasharray:none;stroke-opacity:1" id="path3796-6" d="m 10.164709,1041.8509 a 2.7105336,1.9873446 60.755131 0 1 0.368213,-3.3547 2.7105336,1.9873446 60.755131 0 1 3.063561,1.3487 2.7105336,1.9873446 60.755131 0 1 -0.368249,3.3545 2.7105336,1.9873446 60.755131 0 1 -3.063486,-1.3486 z"/><path style="fill:#fff;fill-opacity:1;stroke:#000;stroke-width:1;stroke-miterlimit:4;stroke-dasharray:none;stroke-opacity:1" id="path3766-84" d="m 12.246709,1042.2001 a 2.0604898,1.1225084 34.859367 0 1 -2.3307717,-0.2535 2.0604898,1.1225084 34.859367 0 1 -1.052617,-2.0991 2.0604898,1.1225084 34.859367 0 1 2.3307717,0.2535 2.0604898,1.1225084 34.859367 0 1 1.052617,2.0991 z"/><ellipse style="fill:#fff;fill-opacity:1;stroke:#000;stroke-width:1.00000036;stroke-miterlimit:4;stroke-dasharray:none;stroke-opacity:1" id="path3768-5" cx="12.211" cy="1040.129" rx="5.402" ry="7.47" transform="matrix(0.99999422,-0.00340142,0.00460693,0.99998939,0,0)"/><ellipse style="fill:#fff;fill-opacity:1;stroke:#000;stroke-width:1.00228631;stroke-miterlimit:4;stroke-dasharray:none;stroke-opacity:1" id="path3770-7" cx="7.96" cy="1029.519" rx="3.693" ry="3.782" transform="matrix(-0.99246134,0.12255809,0.02735917,0.99962567,0,0)"/><ellipse style="fill:#fff;fill-opacity:1;stroke:#000;stroke-width:1.00013208;stroke-miterlimit:4;stroke-dasharray:none;stroke-opacity:1" id="path3792-5-0" cx="-1025.38" cy="185.902" rx="1.45" ry="3.822" transform="matrix(0.15508054,-0.98790183,0.99120477,0.13233708,0,0)"/><ellipse style="fill:#fff;fill-opacity:1;stroke:#000;stroke-width:1;stroke-miterlimit:4;stroke-dasharray:none;stroke-opacity:1" id="path3792-4" cx="814.259" cy="-633.291" rx="1.422" ry="3.804" transform="matrix(-0.60493781,0.79627272,-0.79627272,-0.60493781,0,0)"/><path style="fill:#fff;fill-opacity:1;stroke:#000;stroke-width:.99999994;stroke-miterlimit:4;stroke-dasharray:none;stroke-opacity:1" id="path3796-7-5" d="m 18.416645,1047.3034 a 3.2893836,1.9462298 89.003088 0 0 2.000042,3.2605 3.2893836,1.9462298 89.003088 0 0 1.892011,-3.3173 3.2893836,1.9462298 89.003088 0 0 -2.00004,-3.2605 3.2893836,1.9462298 89.003088 0 0 -1.892013,3.3173 z"/><path style="fill:#fff;fill-opacity:1;stroke:#000;stroke-width:1;stroke-miterlimit:4;stroke-dasharray:none;stroke-opacity:1" id="path3766-8-2" d="m 18.786691,1049.853 a 2.0604898,1.1225084 20.934608 0 0 1.519954,1.7851 2.0604898,1.1225084 20.934608 0 0 2.327808,-0.3095 2.0604898,1.1225084 20.934608 0 0 -1.519953,-1.7851 2.0604898,1.1225084 20.934608 0 0 -2.327809,0.3095 z"/><circle style="fill:#fff;fill-opacity:1;stroke:#000;stroke-width:1;stroke-miterlimit:4;stroke-dasharray:none;stroke-opacity:1" id="path3794" cx="-533.967" cy="881.5" r=".391" transform="matrix(-0.8660254,-0.5,-0.5,0.8660254,0,0)"/><circle style="fill:#fff;fill-opacity:1;stroke:#000;stroke-width:1;stroke-miterlimit:4;stroke-dasharray:none;stroke-opacity:1" id="path3794-7" cx="-531.184" cy="881.52" r=".391" transform="matrix(-0.8660254,-0.5,-0.5,0.8660254,0,0)"/></g></svg>