<svg xmlns="http://www.w3.org/2000/svg" xmlns:svg="http://www.w3.org/2000/svg" id="svg2" width="96" height="96" version="1.1"><defs id="defs4"><filter id="filter4439"><feGaussianBlur id="feGaussianBlur4441" stdDeviation=".246"/></filter><filter id="filter4443"><feGaussianBlur id="feGaussianBlur4445" stdDeviation=".267"/></filter><filter id="filter4447"><feGaussianBlur id="feGaussianBlur4449" stdDeviation=".264"/></filter><filter id="filter4451"><feGaussianBlur id="feGaussianBlur4453" stdDeviation=".081"/></filter><filter id="filter4455" width="1.29" height="1.029" x="-.145" y="-.015"><feGaussianBlur id="feGaussianBlur4457" stdDeviation=".222"/></filter><filter id="filter4459"><feGaussianBlur id="feGaussianBlur4461" stdDeviation=".242"/></filter><filter id="filter4463"><feGaussianBlur id="feGaussianBlur4465" stdDeviation=".29"/></filter><filter id="filter4467"><feGaussianBlur id="feGaussianBlur4469" stdDeviation=".213"/></filter><filter id="filter4471" width="1.282" height="1.03" x="-.141" y="-.015"><feGaussianBlur id="feGaussianBlur4473" stdDeviation=".223"/></filter></defs><metadata id="metadata7"/><g id="layer1" transform="translate(0,-956.3622)"><g id="g4308" transform="matrix(0.50463536,0.86333259,-0.86333259,0.50463536,906.54446,460.22892)" style="opacity:.8"><path id="path3766-3" d="m 20.906667,29.475555 c 0,0.648015 -1.512283,1.173334 -3.377778,1.173334 -1.865495,0 -3.377778,-0.525319 -3.377778,-1.173334 0,-0.648014 1.512283,-1.173333 3.377778,-1.173333 1.865495,0 3.377778,0.525319 3.377778,1.173333 z" style="fill:#fff;fill-opacity:1;stroke:#000;stroke-opacity:1" transform="matrix(0.50825872,0.03805256,-0.09563704,1.1025448,44.724407,985.73882)"/><path id="path3796-0" d="m 17.493333,27.946667 c 0,1.256754 -1.655552,2.275555 -3.697778,2.275555 -2.042226,0 -3.697778,-1.018801 -3.697778,-2.275555 0,-1.256755 1.655552,-2.275556 3.697778,-2.275556 2.042226,0 3.697778,1.018801 3.697778,2.275556 z" transform="matrix(0.43753699,-0.0096245,0.02351804,1.0691489,44.148558,986.07253)" style="fill:#fff;fill-opacity:1;stroke:#000;stroke-opacity:1"/></g><path style="opacity:.8;fill:#fff;fill-opacity:1;stroke:#000;stroke-opacity:1" id="path3792-5" d="m 21.191111,22.151112 c 0,2.101136 -0.636751,3.804444 -1.422223,3.804444 -0.785471,0 -1.422222,-1.703308 -1.422222,-3.804444 0,-2.101137 0.636751,-3.804445 1.422222,-3.804445 0.785472,0 1.422223,1.703308 1.422223,3.804445 z" transform="matrix(-0.04670042,-0.99890893,0.99890893,-0.04670042,37.479403,1029.5919)"/><path style="opacity:.8;fill:#fff;fill-opacity:1;stroke:#000;stroke-opacity:1" id="path3792" d="m 21.191111,22.151112 c 0,2.101136 -0.636751,3.804444 -1.422223,3.804444 -0.785471,0 -1.422222,-1.703308 -1.422222,-3.804444 0,-2.101137 0.636751,-3.804445 1.422222,-3.804445 0.785472,0 1.422223,1.703308 1.422223,3.804445 z" transform="matrix(-0.14307762,0.98971149,-0.98971149,-0.14307762,58.13552,986.34885)"/><path style="opacity:.8;fill:#fff;fill-opacity:1;stroke:#000;stroke-opacity:1" id="path3772" d="m 13.582223,7.6088891 c 0,0.9032924 -1.512283,1.6355555 -3.377778,1.6355555 -1.8654953,0 -3.3777779,-0.7322631 -3.3777779,-1.6355555 0,-0.9032924 1.5122826,-1.6355555 3.3777779,-1.6355555 1.865495,0 3.377778,0.7322631 3.377778,1.6355555 z" transform="matrix(0.75818417,0.29412307,-0.45171844,0.91294907,29.788183,984.082)"/><path style="opacity:.8;fill:#4d4d4b;fill-opacity:1;stroke:#000;stroke-opacity:1" id="path3772-7" d="m 13.582223,7.6088891 c 0,0.9032924 -1.512283,1.6355555 -3.377778,1.6355555 -1.8654953,0 -3.3777779,-0.7322631 -3.3777779,-1.6355555 0,-0.9032924 1.5122826,-1.6355555 3.3777779,-1.6355555 1.865495,0 3.377778,0.7322631 3.377778,1.6355555 z" transform="matrix(-0.77553146,0.32306804,-0.38225586,-0.81198578,66.661535,997.67205)"/><g id="g4312" transform="matrix(0.73073648,-0.68265964,0.68265964,0.73073648,-686.28672,302.5371)" style="opacity:.8"><path id="path3766" d="m 20.906667,29.475555 c 0,0.648015 -1.512283,1.173334 -3.377778,1.173334 -1.865495,0 -3.377778,-0.525319 -3.377778,-1.173334 0,-0.648014 1.512283,-1.173333 3.377778,-1.173333 1.865495,0 3.377778,0.525319 3.377778,1.173333 z" transform="matrix(0.49816262,0.01101159,-0.0259843,0.98356126,33.573584,989.84933)" style="fill:#fff;fill-opacity:1;stroke:#000;stroke-opacity:1"/><path id="path3796" d="m 17.493333,27.946667 c 0,1.256754 -1.655552,2.275555 -3.697778,2.275555 -2.042226,0 -3.697778,-1.018801 -3.697778,-2.275555 0,-1.256755 1.655552,-2.275556 3.697778,-2.275556 2.042226,0 3.697778,1.018801 3.697778,2.275556 z" transform="matrix(0.39355872,-0.00844164,0.02458259,1.1460676,35.437939,984.17466)" style="fill:#fff;fill-opacity:1;stroke:#000;stroke-opacity:1"/></g><g id="g4303" transform="matrix(0.81585655,-0.57825436,0.57825436,0.81585655,-572.09723,208.95796)" style="opacity:.8"><path id="path3770" d="m 21.617778,9.8488894 c 0,2.1796836 -2.164952,3.9466666 -4.835555,3.9466666 -2.670604,0 -4.835556,-1.766983 -4.835556,-3.9466666 0,-2.1796839 2.164952,-3.9466668 4.835556,-3.9466668 2.670603,0 4.835555,1.7669829 4.835555,3.9466668 z" transform="matrix(0.77053203,0.12335422,-0.06851811,0.95498434,34.228385,987.9455)" style="fill:#fff;fill-opacity:1;stroke:#000;stroke-opacity:1"/><path id="path3794" d="m 20.479999,9.7066669 c 0,0.2160047 -0.175106,0.3911111 -0.391111,0.3911111 -0.216005,0 -0.391111,-0.1751064 -0.391111,-0.3911111 0,-0.2160047 0.175106,-0.3911111 0.391111,-0.3911111 0.216005,0 0.391111,0.1751064 0.391111,0.3911111 z" transform="matrix(1.1870228,-0.07665294,0.07665294,1.1870228,20.141619,989.3872)" style="fill:#fff;fill-opacity:1;stroke:#000;stroke-opacity:1"/><path id="path3794-0" d="m 20.479999,9.7066669 c 0,0.2160047 -0.175106,0.3911111 -0.391111,0.3911111 -0.216005,0 -0.391111,-0.1751064 -0.391111,-0.3911111 0,-0.2160047 0.175106,-0.3911111 0.391111,-0.3911111 0.216005,0 0.391111,0.1751064 0.391111,0.3911111 z" transform="matrix(1.2974769,-0.0837856,0.06987435,1.0820517,21.285742,990.4248)" style="fill:#fff;fill-opacity:1;stroke:#000;stroke-opacity:1"/></g></g><g id="layer2" style="display:inline"><path style="opacity:.25;fill:#c9250f;fill-opacity:.77238805;stroke:#000;stroke-width:.25100732;stroke-miterlimit:4;stroke-opacity:1;stroke-dasharray:none;filter:url(#filter4451)" id="path4118-6" d="m 39.313748,41.372501 a 7.7273793,4.3149238 0 1 1 -15.454759,0 7.7273793,4.3149238 0 1 1 15.454759,0 z" transform="matrix(3.5665379,0.06802266,-0.05452824,4.4491691,-63.913732,-145.89837)"/><path style="opacity:.25;fill:#97250b;fill-opacity:.88014981;stroke:#000;stroke-width:.75988358;stroke-miterlimit:4;stroke-opacity:1;stroke-dasharray:none;filter:url(#filter4439)" id="path4118" d="m 39.313748,41.372501 a 7.7273793,4.3149238 0 1 1 -15.454759,0 7.7273793,4.3149238 0 1 1 15.454759,0 z" transform="matrix(1.3552042,1.1802791,-0.60649596,0.74970104,47.139642,-45.353855)"/><path style="opacity:.25;fill:#97250b;fill-opacity:.88014981;stroke:#000;stroke-width:.65860772;stroke-miterlimit:4;stroke-opacity:1;stroke-dasharray:none;filter:url(#filter4467)" id="path4118-2" d="m 39.313748,41.372501 a 7.7273793,4.3149238 0 1 1 -15.454759,0 7.7273793,4.3149238 0 1 1 15.454759,0 z" transform="matrix(-2.0664221,0.24798336,-0.48457703,-1.0574961,156.31762,94.333333)"/><path style="opacity:.25;fill:#97250b;fill-opacity:.88014981;stroke:#000;stroke-width:.74711025;stroke-miterlimit:4;stroke-opacity:1;stroke-dasharray:none;filter:url(#filter4459)" id="path4118-2-5" d="m 39.313748,41.372501 a 7.7273793,4.3149238 0 1 1 -15.454759,0 7.7273793,4.3149238 0 1 1 15.454759,0 z" transform="matrix(-1.7975148,-0.23862814,0.45834603,-0.93583796,59.806114,104.95836)"/><path style="opacity:.25;fill:#97250b;fill-opacity:.88014981;stroke:#000;stroke-width:.81564039;stroke-miterlimit:4;stroke-opacity:1;stroke-dasharray:none;filter:url(#filter4447)" id="path4118-2-5-8" d="m 39.313748,41.372501 a 7.7273793,4.3149238 0 1 1 -15.454759,0 7.7273793,4.3149238 0 1 1 15.454759,0 z" transform="matrix(-1.1590296,0.92682069,-1.0650714,-0.44521781,107.91637,11.300035)"/><path style="opacity:.25;fill:#97250b;fill-opacity:.88014981;stroke:#000;stroke-width:.69045037;stroke-miterlimit:4;stroke-opacity:1;stroke-dasharray:none;filter:url(#filter4471)" id="path4118-9" d="m 39.313748,41.372501 a 7.7273793,4.3149238 0 1 1 -15.454759,0 7.7273793,4.3149238 0 1 1 15.454759,0 z" transform="matrix(0.10606359,2.2024067,-0.94380088,0.17938801,111.22295,-35.343442)"/><path style="opacity:.25;fill:#97250b;fill-opacity:.88014981;stroke:#000;stroke-width:.68630862;stroke-miterlimit:4;stroke-opacity:1;stroke-dasharray:none;filter:url(#filter4455)" id="path4118-9-7" d="m 39.313748,41.372501 a 7.7273793,4.3149238 0 1 1 -15.454759,0 7.7273793,4.3149238 0 1 1 15.454759,0 z" transform="matrix(-0.03214434,2.238717,0.94694519,0.09680899,-20.936991,-31.507758)"/><path style="opacity:.25;fill:#97250b;fill-opacity:.88014981;stroke:#000;stroke-width:.82526827;stroke-miterlimit:4;stroke-opacity:1;stroke-dasharray:none;filter:url(#filter4443)" id="path4118-9-7-6" d="m 39.313748,41.372501 a 7.7273793,4.3149238 0 1 1 -15.454759,0 7.7273793,4.3149238 0 1 1 15.454759,0 z" transform="matrix(-2.1634466,0.02099736,0.14170902,0.67730228,108.59106,-10.803751)"/><path style="opacity:.45;fill:#ff5810;fill-opacity:1;stroke:#000;stroke-width:1px;stroke-linecap:butt;stroke-linejoin:miter;stroke-opacity:1" id="path4246" d="m 37.427819,36.086066 c 3.778815,-3.826756 3.169564,-11.49396 7.512619,-11.938611 4.120909,0.458223 3.208538,8.109834 6.517505,12.23208 7.421728,-0.06551 16.483007,-5.929654 18.068686,-1.523266 1.281235,2.716582 -7.945116,6.440591 -8.508658,13.477863 4.733571,4.280219 12.305885,5.442736 11.722713,8.90951 -0.441941,3.517241 -5.362223,1.176519 -11.154527,2.555847 0.891606,3.248924 -1.740761,2.129526 -5.339653,3.423595 -2.626951,0.267292 -7.829847,-1.942178 -10.152056,-3.503342 -2.188833,1.086359 -6.903637,3.546708 -9.856413,3.257969 -2.45781,-1.248012 -3.021439,-1.963879 -3.015409,-4.039153 C 29.415215,59.268471 21.346693,59.14453 20.119262,55.924507 18.599053,51.441036 30.908474,52.15907 31.913399,48.972828 41.35647,46.802051 21.785477,44.557289 21.504094,41.034997 21.044351,35.771783 31.795761,36.497455 37.427819,36.086066 z"/><path style="opacity:.5;fill:#ffb50f;fill-opacity:1;stroke:#000;stroke-width:1px;stroke-linecap:butt;stroke-linejoin:miter;stroke-opacity:1" id="path4266" d="m 45.227012,31.146652 c 5.133799,1.919647 5.13555,8.543671 7.657745,12.857288 6.431763,1.310233 13.881855,-1.45285 19.295289,3.930698 -2.372039,4.9481 -11.403656,6.011447 -17.105484,9.017171 -1.216963,3.223448 -5.927513,7.061118 -9.219354,6.13481 -3.318343,0.452031 -4.049436,-4.203518 -5.145925,-7.454577 -5.990899,-2.401619 -14.727618,-0.68451 -17.972698,-7.204858 3.151844,-3.926919 10.131859,-3.068625 15.198946,-4.60149 2.421288,-4.229569 0.259702,-10.063144 7.291481,-12.679042 z"/><path style="opacity:.25;fill:#97250b;fill-opacity:.88014981;stroke:#000;stroke-width:.89635652;stroke-miterlimit:4;stroke-opacity:1;stroke-dasharray:none;filter:url(#filter4463)" id="path4118-9-7-6-6" d="m 39.313748,41.372501 a 7.7273793,4.3149238 0 1 1 -15.454759,0 7.7273793,4.3149238 0 1 1 15.454759,0 z" transform="matrix(-2.0515926,0.01876931,0.13438239,0.60543328,106.06346,35.279983)"/></g></svg>