<svg xmlns="http://www.w3.org/2000/svg" xmlns:svg="http://www.w3.org/2000/svg" id="svg2" width="34" height="32" version="1.1"><metadata id="metadata7"/><g id="layer1" transform="translate(0,-1020.3622)"><path style="fill:#fff;fill-opacity:1;stroke:#000;stroke-width:4.380723;stroke-miterlimit:4;stroke-opacity:1;stroke-dasharray:none" id="path3768" d="m 18.631111,21.297777 a 5.3688889,8.6400003 0 1 1 -10.7377776,0 5.3688889,8.6400003 0 1 1 10.7377776,0 z" transform="matrix(0.16739955,-0.07734975,0.1554281,0.23946396,11.570887,1026.7033)"/><path style="fill:#fff;fill-opacity:1;stroke:#000;stroke-width:1.49414039;stroke-miterlimit:4;stroke-opacity:1;stroke-dasharray:none" id="path3772" d="m 13.582223,7.6088891 a 3.3777778,1.6355555 0 1 1 -6.7555559,0 3.3777778,1.6355555 0 1 1 6.7555559,0 z" transform="matrix(-0.46055361,-0.44457457,0.51747661,-0.47308358,31.206624,1043.9968)"/><path style="fill:#fff;fill-opacity:1;stroke:#000;stroke-width:1.6491456;stroke-miterlimit:4;stroke-opacity:1;stroke-dasharray:none" id="path3770" d="m 21.617778,9.8488894 a 4.8355556,3.9466667 0 1 1 -9.671111,0 4.8355556,3.9466667 0 1 1 9.671111,0 z" transform="matrix(0.34388204,-0.423396,0.57831553,0.35719714,18.731942,1036.6753)"/><path style="fill:#4d4d4b;fill-opacity:1;stroke:#000;stroke-width:1.97021568;stroke-miterlimit:4;stroke-opacity:1;stroke-dasharray:none" id="path3772-7" d="m 13.582223,7.6088891 a 3.3777778,1.6355555 0 1 1 -6.7555559,0 3.3777778,1.6355555 0 1 1 6.7555559,0 z" transform="matrix(0.50259314,0.17593685,-0.35172106,0.38945036,24.972263,1025.2405)"/><path style="fill:#fff;fill-opacity:1;stroke:#000;stroke-width:1.1961062;stroke-miterlimit:4;stroke-opacity:1;stroke-dasharray:none" id="path3794" d="m 20.479999,9.7066669 a 0.39111111,0.39111111 0 1 1 -0.782222,0 0.39111111,0.39111111 0 1 1 0.782222,0 z" transform="matrix(0.36165317,-0.74047306,0.77472129,0.34650034,14.775549,1045.6387)"/><path style="fill:#fff;fill-opacity:1;stroke:#000;stroke-width:1.1982708;stroke-miterlimit:4;stroke-opacity:1;stroke-dasharray:none" id="path3794-0" d="m 20.479999,9.7066669 a 0.39111111,0.39111111 0 1 1 -0.782222,0 0.39111111,0.39111111 0 1 1 0.782222,0 z" transform="matrix(0.39530549,-0.80937509,0.70621093,0.31585854,15.824644,1045.2926)"/></g></svg>