<svg xmlns="http://www.w3.org/2000/svg" xmlns:svg="http://www.w3.org/2000/svg" id="svg2" width="64" height="96" version="1.1"><metadata id="metadata7"/><g id="layer1" transform="translate(0,-956.3622)"><ellipse id="path3772-7" cx="471.842" cy="872.999" rx="3.022" ry="1.464" style="fill:#4d4d4b;fill-opacity:1;stroke:#000;stroke-width:.89481699;stroke-opacity:1" transform="matrix(0.89868745,0.43858963,-0.43858963,0.89868745,0,0)"/><ellipse id="path3766-3" cx="25.43" cy="1013.894" rx="3.378" ry="1.173" style="fill:#fff;fill-opacity:1;stroke:#000;stroke-opacity:1"/><ellipse id="path3766" cx="451.085" cy="910.482" rx="3.378" ry="1.173" style="fill:#fff;fill-opacity:1;stroke:#000;stroke-opacity:1" transform="matrix(0.90630778,0.42261827,-0.42261827,0.90630778,0,0)"/><ellipse id="path3768" cx="763.896" cy="861.449" rx="5.937" ry="10.457" style="fill:#fff;fill-opacity:1;stroke:#000;stroke-width:1.15690911;stroke-opacity:1" transform="matrix(0.85056886,0.52586368,-0.71249391,0.7016783,0,0)"/><ellipse id="path3792" cx="-982.104" cy="-208.217" rx="1.422" ry="3.804" style="fill:#fff;fill-opacity:1;stroke:#000;stroke-opacity:1" transform="matrix(-0.25126812,-0.96791752,0.96791752,-0.25126812,0,0)"/><ellipse id="path3770" cx="383.799" cy="921.195" rx="4.746" ry="3.75" style="fill:#fff;fill-opacity:1;stroke:#000;stroke-width:.96575707;stroke-opacity:1" transform="matrix(0.93969262,0.34202015,-0.34202015,0.93969262,0,0)"/><ellipse id="path3772" cx="212.338" cy="970.944" rx="3.378" ry="1.636" style="fill:#fff;fill-opacity:1;stroke:#000;stroke-opacity:1" transform="matrix(0.98480775,0.17364819,-0.17364819,0.98480775,0,0)"/><circle id="path3794" cx="219.214" cy="972.921" r=".391" style="fill:#fff;fill-opacity:1;stroke:#000;stroke-opacity:1" transform="matrix(0.98480775,0.17364818,-0.17364818,0.98480775,0,0)"/><ellipse id="path3796" cx="256.751" cy="1005.724" rx="5.197" ry="2.217" style="fill:#fff;fill-opacity:1;stroke:#000;stroke-width:1.17024481;stroke-opacity:1" transform="matrix(0.99107157,0.13333093,-0.22517126,0.9743192,0,0)"/></g></svg>