<svg xmlns="http://www.w3.org/2000/svg" xmlns:svg="http://www.w3.org/2000/svg" id="svg2" width="32" height="40" version="1.1"><metadata id="metadata7"/><g id="layer1" transform="translate(0,-1012.3622)"><path style="fill:#fff;fill-opacity:1;stroke:#000;stroke-opacity:1" id="path3768" d="m 18.631111,21.297777 a 5.3688889,8.6400003 0 1 1 -10.7377776,0 5.3688889,8.6400003 0 1 1 10.7377776,0 z" transform="matrix(0.99826766,-0.05883602,0.05883602,0.99826766,-0.31446331,1020.4593)"/><g id="g3039" transform="matrix(0.99704592,-0.07680787,0.07680787,0.99704592,-80.381757,4.7980829)"><g id="g3035" transform="matrix(0.96330591,0.26840589,-0.26840589,0.96330591,280.5714,34.459474)"><path transform="matrix(0.44261039,-0.17941325,0.41892018,1.0334712,0.50638124,1021.0227)" style="fill:#fff;fill-opacity:1;stroke:#000;stroke-opacity:1" id="path3766-3" d="m 20.906667,29.475555 c 0,0.648015 -1.512283,1.173334 -3.377778,1.173334 -1.865495,0 -3.377778,-0.525319 -3.377778,-1.173334 0,-0.648014 1.512283,-1.173333 3.377778,-1.173333 1.865495,0 3.377778,0.525319 3.377778,1.173333 z"/><path style="fill:#fff;fill-opacity:1;stroke:#000;stroke-opacity:1" id="path3796-0" d="m 17.493333,27.946667 c 0,1.256754 -1.655552,2.275555 -3.697778,2.275555 -2.042226,0 -3.697778,-1.018801 -3.697778,-2.275555 0,-1.256755 1.655552,-2.275556 3.697778,-2.275556 2.042226,0 3.697778,1.018801 3.697778,2.275556 z" transform="matrix(0.4240108,-0.10837937,0.26483173,1.0360968,5.7040542,1018.3586)"/></g><g id="g3031" transform="matrix(0.97652348,-0.215411,0.215411,0.97652348,-224.33395,27.466908)"><path style="fill:#fff;fill-opacity:1;stroke:#000;stroke-opacity:1" id="path3766" d="m 20.906667,29.475555 c 0,0.648015 -1.512283,1.173334 -3.377778,1.173334 -1.865495,0 -3.377778,-0.525319 -3.377778,-1.173334 0,-0.648014 1.512283,-1.173333 3.377778,-1.173333 1.865495,0 3.377778,0.525319 3.377778,1.173333 z" transform="matrix(0.4399144,0.13607438,-0.29371224,0.94954129,9.1032065,1018.62)"/><path style="fill:#fff;fill-opacity:1;stroke:#000;stroke-opacity:1" id="path3796" d="m 17.493333,27.946667 c 0,1.256754 -1.655552,2.275555 -3.697778,2.275555 -2.042226,0 -3.697778,-1.018801 -3.697778,-2.275555 0,-1.256755 1.655552,-2.275556 3.697778,-2.275556 2.042226,0 3.697778,1.018801 3.697778,2.275556 z" transform="matrix(0.37542555,0.11838657,-0.3447491,1.0932627,14.042726,1013.9406)"/></g></g><g id="g3024" transform="matrix(0.97588407,0.21828952,-0.21828952,0.97588407,224.90089,21.767279)"><path id="path3772" d="m 13.582223,7.6088891 c 0,0.9032924 -1.512283,1.6355555 -3.377778,1.6355555 -1.8654953,0 -3.3777779,-0.7322631 -3.3777779,-1.6355555 0,-0.9032924 1.5122826,-1.6355555 3.3777779,-1.6355555 1.865495,0 3.377778,0.7322631 3.377778,1.6355555 z" transform="matrix(0.84832571,0.28803105,-0.35470015,0.94842566,4.0647532,1016.567)" style="fill:#fff;fill-opacity:1;stroke:#000;stroke-opacity:1"/><path id="path3770" d="m 21.617778,9.8488894 c 0,2.1796836 -2.164952,3.9466666 -4.835555,3.9466666 -2.670604,0 -4.835556,-1.766983 -4.835556,-3.9466666 0,-2.1796839 2.164952,-3.9466668 4.835556,-3.9466668 2.670603,0 4.835555,1.7669829 4.835555,3.9466668 z" transform="matrix(0.77053203,0.12335422,-0.06851811,0.95498434,2.3411928,1017.9455)" style="fill:#fff;fill-opacity:1;stroke:#000;stroke-opacity:1"/><path id="path3772-7" d="m 13.582223,7.6088891 c 0,0.9032924 -1.512283,1.6355555 -3.377778,1.6355555 -1.8654953,0 -3.3777779,-0.7322631 -3.3777779,-1.6355555 0,-0.9032924 1.5122826,-1.6355555 3.3777779,-1.6355555 1.865495,0 3.377778,0.7322631 3.377778,1.6355555 z" transform="matrix(-0.79768185,0.50010796,-0.46368386,-0.75883595,30.851871,1025.9582)" style="fill:#4d4d4b;fill-opacity:1;stroke:#000;stroke-opacity:1"/><path id="path3794" d="m 20.479999,9.7066669 c 0,0.2160047 -0.175106,0.3911111 -0.391111,0.3911111 -0.216005,0 -0.391111,-0.1751064 -0.391111,-0.3911111 0,-0.2160047 0.175106,-0.3911111 0.391111,-0.3911111 0.216005,0 0.391111,0.1751064 0.391111,0.3911111 z" transform="matrix(1.1870228,-0.07665294,0.07665294,1.1870228,-11.745573,1019.3872)" style="fill:#fff;fill-opacity:1;stroke:#000;stroke-opacity:1"/><path id="path3794-0" d="m 20.479999,9.7066669 c 0,0.2160047 -0.175106,0.3911111 -0.391111,0.3911111 -0.216005,0 -0.391111,-0.1751064 -0.391111,-0.3911111 0,-0.2160047 0.175106,-0.3911111 0.391111,-0.3911111 0.216005,0 0.391111,0.1751064 0.391111,0.3911111 z" transform="matrix(1.2974769,-0.0837856,0.06987435,1.0820517,-10.60145,1020.4248)" style="fill:#fff;fill-opacity:1;stroke:#000;stroke-opacity:1"/></g><g id="g7472" transform="matrix(1.4862414,0.0533792,-0.05526475,1.5387415,48.603553,-566.49271)"><path id="path7275" d="m 16.169213,7.6333725 -0.07521,11.0176265 c -0.36831,0.906334 -1.3803,0.894981 -1.767332,-0.112804 l 0,-0.0376 0,0" transform="translate(0,1020.3622)" style="fill:none;stroke:#000;stroke-width:.60000002;stroke-linecap:round;stroke-linejoin:miter;stroke-miterlimit:4;stroke-opacity:1;stroke-dasharray:none;marker-end:none"/><path id="path7468" d="M 4.1797043,7.5887889 C 4.0251065,4.9224529 6.9275515,2.6714913 10.662497,2.5611256 c 3.734945,-0.1103657 6.888043,1.9616577 7.042641,4.6279938 0.0099,0.1708441 0.0071,0.3419431 -0.0084,0.5125749 L 10.942421,7.3889542 z" transform="translate(5.1139836,1025.8522)" style="fill:#00c800;fill-opacity:1;stroke:#000;stroke-width:.5;stroke-linecap:round;stroke-miterlimit:4;stroke-opacity:1;stroke-dasharray:none"/></g><path style="fill:#fff;fill-opacity:1;stroke:#000;stroke-opacity:1" id="path3792-5" d="m 21.191111,22.151112 a 1.4222223,3.8044446 0 1 1 -2.844445,0 1.4222223,3.8044446 0 1 1 2.844445,0 z" transform="matrix(-0.70278732,0.7114,-0.7114,-0.70278732,47.086556,1036.7266)"/><path style="fill:#fff;fill-opacity:1;stroke:#000;stroke-opacity:1" id="path3792" d="m 21.191111,22.151112 a 1.4222223,3.8044446 0 1 1 -2.844445,0 1.4222223,3.8044446 0 1 1 2.844445,0 z" transform="matrix(-0.6803998,-0.73284114,0.73284114,-0.6803998,8.2877752,1065.0379)"/></g></svg>