<svg xmlns="http://www.w3.org/2000/svg" xmlns:svg="http://www.w3.org/2000/svg" id="svg2" width="32" height="32" version="1.1"><metadata id="metadata7"/><g id="layer1" transform="translate(0,-1020.3622)"><ellipse style="fill:red;fill-opacity:1;stroke:#000;stroke-width:.89481699;stroke-opacity:1" id="path3772-7" cx="1025.712" cy="-8.84" rx="3.022" ry="1.464" transform="matrix(0.02053335,0.99978917,0.99978917,-0.02053335,0,0)"/><ellipse transform="scale(-1,1)" style="fill:red;fill-opacity:1;stroke:#000;stroke-opacity:1" id="path3766-3" cx="-14.933" cy="1049.493" rx="3.378" ry="1.173"/><ellipse style="fill:red;fill-opacity:1;stroke:#000;stroke-opacity:1" id="path3766" cx="-14.471" cy="1050.738" rx="3.378" ry="1.173" transform="scale(-1,1)"/><ellipse style="fill:red;fill-opacity:1;stroke:#000;stroke-opacity:1" id="path3768" cx="253.054" cy="1011.311" rx="5.369" ry="8.64" transform="matrix(-0.96592583,0.25881905,0.25881905,0.96592583,0,0)"/><ellipse style="fill:red;fill-opacity:1;stroke:#000;stroke-opacity:1" id="path3792" cx="-368.611" cy="976.365" rx="1.422" ry="3.804" transform="matrix(-0.93969262,-0.34202015,-0.34202015,0.93969262,0,0)"/><ellipse style="fill:#000;fill-opacity:1;stroke:#000;stroke-opacity:1" id="path3772" cx="1019.105" cy="118.507" rx="3.378" ry="1.636" transform="matrix(-0.10001334,0.9949861,0.9949861,0.10001334,0,0)"/><ellipse style="fill:red;fill-opacity:1;stroke:#000;stroke-width:.91443992;stroke-opacity:1" id="path3770" cx="144.875" cy="1015.238" rx="4.24" ry="3.764" transform="matrix(-0.98066563,0.19569086,0.15394992,0.98807865,0,0)"/><circle style="fill:red;fill-opacity:1;stroke:#000;stroke-opacity:1" id="path3794" cx="-15.593" cy="1031.033" r=".391" transform="scale(-1,1)"/><ellipse style="fill:red;fill-opacity:1;stroke:#000;stroke-opacity:1" id="path3796" cx="-18.276" cy="1049.138" rx="3.698" ry="2.276" transform="scale(-1,1)"/><circle id="path2991" cx="-12.259" cy="1030.959" transform="scale(-1,1)" style="fill:red;fill-opacity:1;stroke:#fff;stroke-opacity:1" r=".391"/><ellipse id="path3761" cx="144.875" cy="1015.238" ry="3.764" transform="matrix(-0.98066563,0.19569086,0.15394992,0.98807865,0,0)" style="fill:none;stroke:#000;stroke-width:.91443992;stroke-opacity:1" rx="4.24"/></g></svg>