<svg xmlns="http://www.w3.org/2000/svg" xmlns:svg="http://www.w3.org/2000/svg" id="svg2" width="32" height="32" version="1.1"><metadata id="metadata7"/><g id="layer1" transform="translate(0,-1020.3622)"><path transform="matrix(0.50825872,0.03805256,-0.09563704,1.1025448,14.724407,1017.7388)" style="fill:#fff;fill-opacity:1;stroke:#000;stroke-opacity:1;stroke-width:1.33153875;stroke-miterlimit:4;stroke-dasharray:none;opacity:.33" id="path3766-3" d="m 20.906667,29.475555 a 3.3777778,1.1733333 0 0 1 -3.377778,1.173334 3.3777778,1.1733333 0 0 1 -3.377778,-1.173334 3.3777778,1.1733333 0 0 1 3.377778,-1.173333 3.3777778,1.1733333 0 0 1 3.377778,1.173333 z"/><ellipse style="fill:#fff;fill-opacity:1;stroke:#000;stroke-width:.83533639;stroke-miterlimit:4;stroke-dasharray:none;stroke-opacity:1" id="path3768" cx="10.206" cy="1045.179" rx="5.451" ry="5.938" transform="matrix(0.99999641,-0.00267941,0.0058483,0.9999829,0,0)"/><path style="fill:#fff;fill-opacity:1;stroke:#000;stroke-opacity:1;stroke-width:1.46173441;stroke-miterlimit:4;stroke-dasharray:none;opacity:.33" id="path3796-0" d="m 17.493333,27.946667 a 3.6977777,2.2755556 0 0 1 -3.697778,2.275555 3.6977777,2.2755556 0 0 1 -3.697778,-2.275555 3.6977777,2.2755556 0 0 1 3.697778,-2.275556 3.6977777,2.2755556 0 0 1 3.697778,2.275556 z" transform="matrix(0.43753699,-0.0096245,0.02351804,1.0691489,14.148558,1018.0725)"/><ellipse style="fill:#fff;fill-opacity:1;stroke:#000;stroke-width:1;stroke-miterlimit:4;stroke-dasharray:none;stroke-opacity:1" id="path3792-5" cx="-697.195" cy="775.731" rx="1.422" ry="3.804" transform="matrix(0.72943033,-0.68405512,0.68405512,0.72943033,0,0)"/><path style="fill:#fff;fill-opacity:1;stroke:#000;stroke-opacity:1;stroke-width:1.42819318;stroke-miterlimit:4;stroke-dasharray:none;opacity:.33" id="path3766" d="m 20.906667,29.475555 a 3.3777778,1.1733333 0 0 1 -3.377778,1.173334 3.3777778,1.1733333 0 0 1 -3.377778,-1.173334 3.3777778,1.1733333 0 0 1 3.377778,-1.173333 3.3777778,1.1733333 0 0 1 3.377778,1.173333 z" transform="matrix(0.49816262,0.01101159,-0.0259843,0.98356126,3.573584,1021.8493)"/><ellipse style="fill:#fff;fill-opacity:1;stroke:#000;stroke-width:1;stroke-miterlimit:4;stroke-dasharray:none;stroke-opacity:1" id="path3792" cx="591.888" cy="858.74" rx="1.422" ry="3.804" transform="matrix(0.82933271,0.5587551,-0.5587551,0.82933271,0,0)"/><ellipse style="fill:#fff;fill-opacity:1;stroke:#000;stroke-width:1.00200331;stroke-miterlimit:4;stroke-dasharray:none;stroke-opacity:1" id="path3772" cx="866.598" cy="-486.923" rx="2.747" ry="1.666" transform="matrix(-0.4571789,0.88937475,-0.84499903,-0.53476784,0,0)"/><ellipse style="fill:#fff;fill-opacity:1;stroke:#000;stroke-width:1.00190151;stroke-miterlimit:4;stroke-dasharray:none;stroke-opacity:1" id="path3770" cx="90.755" cy="1025.373" rx="3.773" ry="3.779" transform="matrix(0.98742682,0.15807683,-0.07156393,0.99743601,0,0)"/><ellipse style="fill:#4d4d4b;fill-opacity:1;stroke:#000;stroke-width:1.00051284;stroke-miterlimit:4;stroke-dasharray:none;stroke-opacity:1" id="path3772-7" cx="782.332" cy="-710.035" rx="2.838" ry="1.468" transform="matrix(-0.67282354,0.73980301,-0.76949629,-0.63865128,0,0)"/><circle style="fill:#fff;fill-opacity:1;stroke:#000;stroke-width:1;stroke-miterlimit:4;stroke-dasharray:none;stroke-opacity:1" id="path3794" cx="-52.483" cy="1035.106" r=".465" transform="matrix(0.99792148,-0.06444157,0.06444157,0.99792148,0,0)"/><path style="fill:#fff;fill-opacity:1;stroke:#000;stroke-opacity:1;stroke-width:1.48864187;stroke-miterlimit:4;stroke-dasharray:none;opacity:.33" id="path3796" d="m 17.493333,27.946667 a 3.6977777,2.2755556 0 0 1 -3.697778,2.275555 3.6977777,2.2755556 0 0 1 -3.697778,-2.275555 3.6977777,2.2755556 0 0 1 3.697778,-2.275556 3.6977777,2.2755556 0 0 1 3.697778,2.275556 z" transform="matrix(0.39355872,-0.00844164,0.02458259,1.1460676,5.437939,1016.1747)"/><ellipse style="fill:#fff;fill-opacity:1;stroke:#000;stroke-width:1;stroke-miterlimit:4;stroke-dasharray:none;stroke-opacity:1" id="path3794-0" cx="-49.184" cy="1035.194" rx=".509" ry=".424" transform="matrix(0.99792148,-0.06444157,0.06444157,0.99792148,0,0)"/><ellipse style="opacity:1;fill:#6464fa;fill-opacity:1;stroke:none;stroke-width:1;stroke-linecap:round;stroke-miterlimit:4;stroke-dasharray:none;stroke-opacity:1" id="path4145" cx="15.738" cy="1035.9" rx=".821" ry=".745"/><ellipse style="opacity:1;fill:#6464fa;fill-opacity:1;stroke:none;stroke-width:1;stroke-linecap:round;stroke-miterlimit:4;stroke-dasharray:none;stroke-opacity:1" id="path4145-9" cx="15.704" cy="1033.316" rx="1.128" ry="1.01"/><ellipse style="opacity:.548;fill:#6464fa;fill-opacity:1;stroke:none;stroke-width:1;stroke-linecap:round;stroke-miterlimit:4;stroke-dasharray:none;stroke-opacity:1" id="path4145-8" cx="16.632" cy="1038.006" rx=".462" ry=".471"/></g></svg>