<svg xmlns="http://www.w3.org/2000/svg" xmlns:svg="http://www.w3.org/2000/svg" id="svg2" width="32" height="32" version="1.1"><metadata id="metadata7"/><g id="layer1" transform="translate(0,-1020.3622)"><ellipse style="fill:#4d4d4b;fill-opacity:1;stroke:#000;stroke-width:1.00005281;stroke-miterlimit:4;stroke-dasharray:none;stroke-opacity:1" id="path3772-7" cx="925.054" cy="-459.317" rx="3.207" ry="1.233" transform="matrix(-0.42590241,0.90476911,-0.91086137,-0.41271246,0,0)"/><path style="fill:#fff;fill-opacity:1;stroke:#000;stroke-width:1;stroke-miterlimit:4;stroke-dasharray:none;stroke-opacity:1" id="path3796-6" d="m 10.111537,1041.7997 a 2.7105336,1.9873446 60.755131 0 1 0.368213,-3.3547 2.7105336,1.9873446 60.755131 0 1 3.063561,1.3487 2.7105336,1.9873446 60.755131 0 1 -0.368249,3.3545 2.7105336,1.9873446 60.755131 0 1 -3.063486,-1.3486 z"/><path style="fill:#fff;fill-opacity:1;stroke:#000;stroke-width:1;stroke-miterlimit:4;stroke-dasharray:none;stroke-opacity:1" id="path3766-84" d="m 12.193537,1042.1489 a 2.0604898,1.1225084 34.859367 0 1 -2.3307714,-0.2535 2.0604898,1.1225084 34.859367 0 1 -1.052617,-2.0991 2.0604898,1.1225084 34.859367 0 1 2.3307714,0.2535 2.0604898,1.1225084 34.859367 0 1 1.052617,2.0991 z"/><ellipse style="fill:#fff;fill-opacity:1;stroke:#000;stroke-width:1.00000036;stroke-miterlimit:4;stroke-dasharray:none;stroke-opacity:1" id="path3768-5" cx="12.158" cy="1040.077" rx="5.402" ry="7.47" transform="matrix(0.99999422,-0.00340142,0.00460693,0.99998939,0,0)"/><ellipse style="fill:#fff;fill-opacity:1;stroke:#000;stroke-width:1.00027287;stroke-miterlimit:4;stroke-dasharray:none;stroke-opacity:1" id="path3770-7" cx="-149.522" cy="1014.813" rx="3.961" ry="3.935" transform="matrix(-0.9874941,-0.15765599,-0.12495588,0.9921623,0,0)"/><ellipse style="fill:#fff;fill-opacity:1;stroke:#000;stroke-width:1.00013208;stroke-miterlimit:4;stroke-dasharray:none;stroke-opacity:1" id="path3792-5-0" cx="-1025.336" cy="185.842" rx="1.45" ry="3.822" transform="matrix(0.15508054,-0.98790183,0.99120477,0.13233708,0,0)"/><ellipse style="fill:#fff;fill-opacity:1;stroke:#000;stroke-width:1;stroke-miterlimit:4;stroke-dasharray:none;stroke-opacity:1" id="path3792-4" cx="814.251" cy="-633.217" rx="1.422" ry="3.804" transform="matrix(-0.60493781,0.79627272,-0.79627272,-0.60493781,0,0)"/><path style="fill:#fff;fill-opacity:1;stroke:#000;stroke-width:.99999994;stroke-miterlimit:4;stroke-dasharray:none;stroke-opacity:1" id="path3796-7-5" d="m 18.363473,1047.2522 a 3.2893836,1.9462298 89.003088 0 0 2.000042,3.2605 3.2893836,1.9462298 89.003088 0 0 1.892011,-3.3173 3.2893836,1.9462298 89.003088 0 0 -2.00004,-3.2605 3.2893836,1.9462298 89.003088 0 0 -1.892013,3.3173 z"/><path style="fill:#fff;fill-opacity:1;stroke:#000;stroke-width:1;stroke-miterlimit:4;stroke-dasharray:none;stroke-opacity:1" id="path3766-8-2" d="m 18.733519,1049.8018 a 2.0604898,1.1225084 20.934608 0 0 1.519954,1.7851 2.0604898,1.1225084 20.934608 0 0 2.327808,-0.3095 2.0604898,1.1225084 20.934608 0 0 -1.519953,-1.7851 2.0604898,1.1225084 20.934608 0 0 -2.327809,0.3095 z"/><ellipse style="fill:#fff;fill-opacity:1;stroke:#000;stroke-width:1.00003624;stroke-miterlimit:4;stroke-dasharray:none;stroke-opacity:1" id="path3772" cx="960.73" cy="-368.916" rx="3.051" ry="1.391" transform="matrix(-0.34172273,0.93980082,-0.94384516,-0.33038813,0,0)"/><circle style="fill:#fff;fill-opacity:1;stroke:#000;stroke-width:1;stroke-miterlimit:4;stroke-dasharray:none;stroke-opacity:1" id="path3794" cx="-535.442" cy="880.887" r=".391" transform="matrix(-0.8660254,-0.5,-0.5,0.8660254,0,0)"/><circle style="fill:#fff;fill-opacity:1;stroke:#000;stroke-width:1;stroke-miterlimit:4;stroke-dasharray:none;stroke-opacity:1" id="path3794-7" cx="-532.606" cy="881.467" r=".391" transform="matrix(-0.8660254,-0.5,-0.5,0.8660254,0,0)"/></g></svg>