<svg xmlns="http://www.w3.org/2000/svg" xmlns:svg="http://www.w3.org/2000/svg" id="svg2" width="32" height="64" version="1.1"><metadata id="metadata7"/><g id="layer1" transform="translate(0,-988.3622)"><path transform="matrix(0.56929722,0.03749661,-0.10712241,1.0864365,14.143419,1011.0036)" style="opacity:.2;fill:#fff;fill-opacity:1;stroke:#000;stroke-opacity:1" id="path3766-3" d="m 20.906667,29.475555 a 3.3777778,1.1733333 0 1 1 -6.755556,0 3.3777778,1.1733333 0 1 1 6.755556,0 z"/><path style="opacity:.2;fill:#fff;fill-opacity:1;stroke:#000;stroke-opacity:1" id="path3768" d="m 18.631111,21.297777 a 5.3688889,8.6400003 0 1 1 -10.7377776,0 5.3688889,8.6400003 0 1 1 10.7377776,0 z" transform="matrix(1.0007492,-0.0038915,0.00396155,0.983054,2.8114018,1013.6423)"/><path style="opacity:.2;fill:#fff;fill-opacity:1;stroke:#000;stroke-opacity:1" id="path3796-0" d="m 17.493333,27.946667 a 3.6977777,2.2755556 0 1 1 -7.395556,0 3.6977777,2.2755556 0 1 1 7.395556,0 z" transform="matrix(0.44191775,-0.00864742,0.02375351,0.96061076,14.006335,1014.3614)"/><path style="opacity:.2;fill:#fff;fill-opacity:1;stroke:#000;stroke-opacity:1" id="path3792-5" d="m 21.191111,22.151112 a 1.4222223,3.8044446 0 1 1 -2.844445,0 1.4222223,3.8044446 0 1 1 2.844445,0 z" transform="matrix(0.48458596,-0.87474364,0.87474364,0.48458596,-7.1700201,1036.4572)"/><path style="opacity:.2;fill:#fff;fill-opacity:1;stroke:#000;stroke-opacity:1" id="path3766" d="m 20.906667,29.475555 a 3.3777778,1.1733333 0 1 1 -6.755556,0 3.3777778,1.1733333 0 1 1 6.755556,0 z" transform="matrix(0.56550809,0.00959528,-0.02949706,0.85705544,2.9478672,1018.2329)"/><path style="opacity:.2;fill:#fff;fill-opacity:1;stroke:#000;stroke-opacity:1" id="path3792" d="m 21.191111,22.151112 a 1.4222223,3.8044446 0 1 1 -2.844445,0 1.4222223,3.8044446 0 1 1 2.844445,0 z" transform="matrix(0.9099225,0.42738556,-0.68749796,0.62479402,8.0747047,1007.8372)"/><path style="opacity:.2;fill:#fff;fill-opacity:1;stroke:#000;stroke-opacity:1" id="path3772" d="m 13.582223,7.6088891 a 3.3777778,1.6355555 0 1 1 -6.7555559,0 3.3777778,1.6355555 0 1 1 6.7555559,0 z" transform="matrix(0.21804377,0.66031239,-0.88350821,0.18696213,17.687562,1010.6244)"/><path style="opacity:.2;fill:#4d4d4b;fill-opacity:1;stroke:#000;stroke-opacity:1" id="path3772-7" d="m 13.582223,7.6088891 a 3.3777778,1.6355555 0 1 1 -6.7555559,0 3.3777778,1.6355555 0 1 1 6.7555559,0 z" transform="matrix(-0.20524035,0.63063147,-0.90654815,-0.1339004,27.510457,1013.2282)"/><path style="opacity:.2;fill:#fff;fill-opacity:1;stroke:#000;stroke-opacity:1" id="path3770" d="m 21.617778,9.8488894 a 4.8355556,3.9466667 0 1 1 -9.671111,0 4.8355556,3.9466667 0 1 1 9.671111,0 z" transform="matrix(0.77053203,0.12335422,-0.06851811,0.95498434,3.7771511,1011.5977)"/><path style="opacity:.2;fill:#fff;fill-opacity:1;stroke:#000;stroke-opacity:1" id="path3794" d="m 20.479999,9.7066669 a 0.39111111,0.39111111 0 1 1 -0.782222,0 0.39111111,0.39111111 0 1 1 0.782222,0 z" transform="matrix(1.1870228,-0.07665294,0.07665294,1.1870228,-10.159203,1013.3401)"/><path style="opacity:.2;fill:#fff;fill-opacity:1;stroke:#000;stroke-opacity:1" id="path3796" d="m 17.493333,27.946667 a 3.6977777,2.2755556 0 1 1 -7.395556,0 3.6977777,2.2755556 0 1 1 7.395556,0 z" transform="matrix(0.40179318,-0.00683637,0.02509693,0.92812921,5.9868164,1015.2491)"/><path style="opacity:.2;fill:#fff;fill-opacity:1;stroke:#000;stroke-opacity:1" id="path3794-0" d="m 20.479999,9.7066669 a 0.39111111,0.39111111 0 1 1 -0.782222,0 0.39111111,0.39111111 0 1 1 0.782222,0 z" transform="matrix(1.2974769,-0.0837856,0.06987435,1.0820517,-9.2406975,1014.453)"/></g></svg>