<svg xmlns="http://www.w3.org/2000/svg" xmlns:svg="http://www.w3.org/2000/svg" id="svg2" width="32" height="32" version="1.1"><metadata id="metadata7"/><g id="layer1" transform="translate(0,-1020.3622)"><path style="fill:#fff;fill-opacity:1;stroke:#000;stroke-opacity:1;stroke-width:2.42790309;stroke-miterlimit:4;stroke-dasharray:none" id="path3768" d="m 18.631111,21.297777 c 0,4.771741 -2.403733,8.640001 -5.368889,8.640001 -2.965155,0 -5.3688886,-3.86826 -5.3688886,-8.640001 0,-4.77174 2.4037336,-8.64 5.3688886,-8.64 2.965156,0 5.368889,3.86826 5.368889,8.64 z" transform="matrix(0.05759868,0.2736302,-0.51049955,0.52007159,19.697903,1022.1635)"/><path style="fill:#fff;fill-opacity:1;stroke:#000;stroke-opacity:1;stroke-width:3.04331965;stroke-miterlimit:4;stroke-dasharray:none" id="path3792" d="m 21.191111,22.151112 c 0,2.101136 -0.636751,3.804444 -1.422223,3.804444 -0.785471,0 -1.422222,-1.703308 -1.422222,-3.804444 0,-2.101137 0.636751,-3.804445 1.422222,-3.804445 0.785472,0 1.422223,1.703308 1.422223,3.804445 z" transform="matrix(0.37846808,0.12374018,-0.65330674,0.0716841,13.527843,1035.5041)"/><path style="fill:#fff;fill-opacity:1;stroke:#000;stroke-width:3.16045713;stroke-miterlimit:4;stroke-opacity:1;stroke-dasharray:none" id="path3772" d="m 13.582223,7.6088891 a 3.3777778,1.6355555 0 1 1 -6.7555559,0 3.3777778,1.6355555 0 1 1 6.7555559,0 z" transform="matrix(0.06849385,-0.49686752,0.20132549,0.00121385,5.0748052,1036.5458)"/><path style="fill:#fff;fill-opacity:1;stroke:#000;stroke-width:1.3036232;stroke-miterlimit:4;stroke-opacity:1;stroke-dasharray:none" id="path3770" d="m 21.617778,9.8488894 a 4.8355556,3.9466667 0 1 1 -9.671111,0 4.8355556,3.9466667 0 1 1 9.671111,0 z" transform="matrix(0.53430916,-0.19802521,0.38011798,0.96041484,-3.2104363,1023.0169)"/><path style="fill:#4d4d4b;fill-opacity:1;stroke:#000;stroke-width:3.39433408;stroke-miterlimit:4;stroke-opacity:1;stroke-dasharray:none" id="path3772-7" d="m 13.582223,7.6088891 a 3.3777778,1.6355555 0 1 1 -6.7555559,0 3.3777778,1.6355555 0 1 1 6.7555559,0 z" transform="matrix(0.03246225,-0.34356085,0.25275595,-0.00131924,6.158945,1030.8759)"/><path style="fill:#fff;fill-opacity:1;stroke:#000;stroke-width:.84069276;stroke-miterlimit:4;stroke-opacity:1;stroke-dasharray:none" id="path3794" d="m 20.479999,9.7066669 a 0.39111111,0.39111111 0 1 1 -0.782222,0 0.39111111,0.39111111 0 1 1 0.782222,0 z" transform="matrix(1.1807069,0.14432601,-0.14432601,1.1807069,-10.856377,1016.0586)"/><path style="fill:#fff;fill-opacity:1;stroke:#000;stroke-opacity:1;stroke-width:4.59235688;stroke-miterlimit:4;stroke-dasharray:none" id="path3796" d="m 17.493333,27.946667 c 0,1.256754 -1.655552,2.275555 -3.697778,2.275555 -2.042226,0 -3.697778,-1.018801 -3.697778,-2.275555 0,-1.256755 1.655552,-2.275556 3.697778,-2.275556 2.042226,0 3.697778,1.018801 3.697778,2.275556 z" transform="matrix(0.1651581,0.05261071,-0.29818149,0.19211215,11.665449,1036.7047)"/><path style="fill:#fff;fill-opacity:1;stroke:#000;stroke-width:.84221423;stroke-miterlimit:4;stroke-opacity:1;stroke-dasharray:none" id="path3794-0" d="m 20.479999,9.7066669 a 0.39111111,0.39111111 0 1 1 -0.782222,0 0.39111111,0.39111111 0 1 1 0.782222,0 z" transform="matrix(1.2905733,0.15775574,-0.13156293,1.0762943,-14.144388,1013.8075)"/></g></svg>