<svg xmlns="http://www.w3.org/2000/svg" xmlns:svg="http://www.w3.org/2000/svg" id="svg2" width="32" height="32" version="1.1"><metadata id="metadata7"/><g id="layer1" transform="translate(0,-1020.3622)"><path transform="matrix(0.50825872,0.03805256,-0.09563704,1.1025448,14.724407,1017.7388)" style="fill:#fff;fill-opacity:1;stroke:#000;stroke-opacity:1;stroke-width:1.33153875;stroke-miterlimit:4;stroke-dasharray:5.326155,1.33153875;stroke-dashoffset:0;opacity:.59999999999999998" id="path3766-3" d="m 20.906667,29.475555 c 0,0.648015 -1.512283,1.173334 -3.377778,1.173334 -1.865495,0 -3.377778,-0.525319 -3.377778,-1.173334 0,-0.648014 1.512283,-1.173333 3.377778,-1.173333 1.865495,0 3.377778,0.525319 3.377778,1.173333 z"/><path style="fill:#fff;fill-opacity:1;stroke:#000;stroke-opacity:1;stroke-width:1;stroke-miterlimit:4;stroke-dasharray:4.00000002,1;stroke-dashoffset:0;opacity:.59999999999999998" id="path3768" d="m 18.631111,21.297777 c 0,4.771741 -2.403733,8.640001 -5.368889,8.640001 -2.965155,0 -5.3688886,-3.86826 -5.3688886,-8.640001 0,-4.77174 2.4037336,-8.64 5.3688886,-8.64 2.965156,0 5.368889,3.86826 5.368889,8.64 z" transform="matrix(0.99999216,-0.00395855,0.00395855,0.99999216,2.971918,1021.1038)"/><path style="fill:#fff;fill-opacity:1;stroke:#000;stroke-opacity:1;stroke-width:1.46173441;stroke-miterlimit:4;stroke-dasharray:5.84693764,1.46173441;stroke-dashoffset:0;opacity:.59999999999999998" id="path3796-0" d="m 17.493333,27.946667 c 0,1.256754 -1.655552,2.275555 -3.697778,2.275555 -2.042226,0 -3.697778,-1.018801 -3.697778,-2.275555 0,-1.256755 1.655552,-2.275556 3.697778,-2.275556 2.042226,0 3.697778,1.018801 3.697778,2.275556 z" transform="matrix(0.43753699,-0.0096245,0.02351804,1.0691489,14.148558,1018.0725)"/><path style="fill:#fff;fill-opacity:1;stroke:#000;stroke-opacity:1;stroke-width:1.00000001;stroke-miterlimit:4;stroke-dasharray:4.00000003,1.00000001;stroke-dashoffset:0;opacity:.59999999999999998" id="path3792-5" d="m 21.191111,22.151112 c 0,2.101136 -0.636751,3.804444 -1.422223,3.804444 -0.785471,0 -1.422222,-1.703308 -1.422222,-3.804444 0,-2.101137 0.636751,-3.804445 1.422222,-3.804445 0.785472,0 1.422223,1.703308 1.422223,3.804445 z" transform="matrix(0.72943032,-0.68405511,0.68405511,0.72943032,-7.4855345,1035.6115)"/><path style="fill:#fff;fill-opacity:1;stroke:#000;stroke-opacity:1;stroke-width:1.42819318;stroke-miterlimit:4;stroke-dasharray:5.71277271,1.42819318;stroke-dashoffset:0;opacity:.59999999999999998" id="path3766" d="m 20.906667,29.475555 c 0,0.648015 -1.512283,1.173334 -3.377778,1.173334 -1.865495,0 -3.377778,-0.525319 -3.377778,-1.173334 0,-0.648014 1.512283,-1.173333 3.377778,-1.173333 1.865495,0 3.377778,0.525319 3.377778,1.173333 z" transform="matrix(0.49816262,0.01101159,-0.0259843,0.98356126,3.573584,1021.8493)"/><path style="fill:#fff;fill-opacity:1;stroke:#000;stroke-opacity:1;stroke-width:.99999998;stroke-miterlimit:4;stroke-dasharray:3.99999993,.99999998;stroke-dashoffset:0;opacity:.59999999999999998" id="path3792" d="m 21.191111,22.151112 c 0,2.101136 -0.636751,3.804444 -1.422223,3.804444 -0.785471,0 -1.422222,-1.703308 -1.422222,-3.804444 0,-2.101137 0.636751,-3.804445 1.422222,-3.804445 0.785472,0 1.422223,1.703308 1.422223,3.804445 z" transform="matrix(0.82933272,0.55875511,-0.55875511,0.82933272,7.079298,1009.0194)"/><path style="fill:#fff;fill-opacity:1;stroke:#000;stroke-opacity:1;stroke-width:1.10093417;stroke-miterlimit:4;stroke-dasharray:4.4037367,1.10093417;stroke-dashoffset:0;opacity:.59999999999999998" id="path3772" d="m 13.582223,7.6088891 c 0,0.9032924 -1.512283,1.6355555 -3.377778,1.6355555 -1.8654953,0 -3.3777779,-0.7322631 -3.3777779,-1.6355555 0,-0.9032924 1.5122826,-1.6355555 3.3777779,-1.6355555 1.865495,0 3.377778,0.7322631 3.377778,1.6355555 z" transform="matrix(0.24547373,0.77530269,-0.99465382,0.21952071,18.366157,1017.4758)"/><path style="fill:#fff;fill-opacity:1;stroke:#000;stroke-opacity:1;stroke-width:1.15911511;stroke-miterlimit:4;stroke-dasharray:4.63646045,1.15911511;stroke-dashoffset:0;opacity:.59999999999999998" id="path3770" d="m 21.617778,9.8488894 c 0,2.1796836 -2.164952,3.9466666 -4.835555,3.9466666 -2.670604,0 -4.835556,-1.766983 -4.835556,-3.9466666 0,-2.1796839 2.164952,-3.9466668 4.835556,-3.9466668 2.670603,0 4.835555,1.7669829 4.835555,3.9466668 z" transform="matrix(0.77053203,0.12335422,-0.06851811,0.95498434,4.228385,1019.9455)"/><path style="fill:#4d4d4b;fill-opacity:1;stroke:#000;stroke-opacity:1;stroke-width:1.15223343;stroke-miterlimit:4;stroke-dasharray:4.60893373,1.15223343;stroke-dashoffset:0;opacity:.59999999999999998" id="path3772-7" d="m 13.582223,7.6088891 c 0,0.9032924 -1.512283,1.6355555 -3.377778,1.6355555 -1.8654953,0 -3.3777779,-0.7322631 -3.3777779,-1.6355555 0,-0.9032924 1.5122826,-1.6355555 3.3777779,-1.6355555 1.865495,0 3.377778,0.7322631 3.377778,1.6355555 z" transform="matrix(-0.19936002,0.81613576,-0.88057464,-0.17328806,27.779261,1019.3059)"/><path style="fill:#fff;fill-opacity:1;stroke:#000;stroke-opacity:1;stroke-width:.84069277;stroke-miterlimit:4;stroke-dasharray:3.36277107,.84069277;stroke-dashoffset:0;opacity:.59999999999999998" id="path3794" d="m 20.479999,9.7066669 c 0,0.2160047 -0.175106,0.3911111 -0.391111,0.3911111 -0.216005,0 -0.391111,-0.1751064 -0.391111,-0.3911111 0,-0.2160047 0.175106,-0.3911111 0.391111,-0.3911111 0.216005,0 0.391111,0.1751064 0.391111,0.3911111 z" transform="matrix(1.1870228,-0.07665294,0.07665294,1.1870228,-9.858381,1021.3872)"/><path style="fill:#fff;fill-opacity:1;stroke:#000;stroke-opacity:1;stroke-width:1.48864187;stroke-miterlimit:4;stroke-dasharray:5.95456749,1.48864187;stroke-dashoffset:0;opacity:.59999999999999998" id="path3796" d="m 17.493333,27.946667 c 0,1.256754 -1.655552,2.275555 -3.697778,2.275555 -2.042226,0 -3.697778,-1.018801 -3.697778,-2.275555 0,-1.256755 1.655552,-2.275556 3.697778,-2.275556 2.042226,0 3.697778,1.018801 3.697778,2.275556 z" transform="matrix(0.39355872,-0.00844164,0.02458259,1.1460676,5.437939,1016.1747)"/><path style="fill:#fff;fill-opacity:1;stroke:#000;stroke-opacity:1;stroke-width:.84221418;stroke-miterlimit:4;stroke-dasharray:3.36885671,.84221418;stroke-dashoffset:0;opacity:.59999999999999998" id="path3794-0" d="m 20.479999,9.7066669 c 0,0.2160047 -0.175106,0.3911111 -0.391111,0.3911111 -0.216005,0 -0.391111,-0.1751064 -0.391111,-0.3911111 0,-0.2160047 0.175106,-0.3911111 0.391111,-0.3911111 0.216005,0 0.391111,0.1751064 0.391111,0.3911111 z" transform="matrix(1.2974769,-0.0837856,0.06987435,1.0820517,-8.714258,1022.4248)"/></g></svg>