<svg xmlns="http://www.w3.org/2000/svg" xmlns:svg="http://www.w3.org/2000/svg" id="svg2" width="32" height="32" version="1.1"><metadata id="metadata7"/><g id="layer1" transform="translate(0,-1020.3622)"><ellipse style="fill:#4d4d4b;fill-opacity:1;stroke:#000;stroke-width:1.00016057;stroke-miterlimit:4;stroke-dasharray:none;stroke-opacity:1" id="path3772-7" cx="899.354" cy="-520.237" rx="3.183" ry="1.349" transform="matrix(-0.4847843,0.87463374,-0.88663925,-0.46246171,0,0)"/><ellipse style="fill:#fff;fill-opacity:1;stroke:#000;stroke-width:1.00012743;stroke-miterlimit:4;stroke-dasharray:none;stroke-opacity:1" id="path3772" cx="919.278" cy="-434.226" rx="3.042" ry="1.519" transform="matrix(-0.40509007,0.91427678,-0.90489852,-0.42562738,0,0)"/><path style="fill:#fff;fill-opacity:1;stroke:#000;stroke-width:1;stroke-miterlimit:4;stroke-dasharray:none;stroke-opacity:1" id="path3796-6" d="m 10.075581,1041.8194 a 2.7105336,1.9873446 60.755131 0 1 0.368213,-3.3547 2.7105336,1.9873446 60.755131 0 1 3.06356,1.3487 2.7105336,1.9873446 60.755131 0 1 -0.368248,3.3545 2.7105336,1.9873446 60.755131 0 1 -3.063486,-1.3486 z"/><path style="fill:#fff;fill-opacity:1;stroke:#000;stroke-width:1;stroke-miterlimit:4;stroke-dasharray:none;stroke-opacity:1" id="path3766-84" d="m 12.157581,1042.1686 a 2.0604898,1.1225084 34.859367 0 1 -2.3307722,-0.2535 2.0604898,1.1225084 34.859367 0 1 -1.052617,-2.0991 2.0604898,1.1225084 34.859367 0 1 2.3307722,0.2535 2.0604898,1.1225084 34.859367 0 1 1.052617,2.0991 z"/><ellipse style="fill:#fff;fill-opacity:1;stroke:#000;stroke-width:1.00000036;stroke-miterlimit:4;stroke-dasharray:none;stroke-opacity:1" id="path3768-5" cx="12.122" cy="1040.097" rx="5.402" ry="7.47" transform="matrix(0.99999422,-0.00340142,0.00460693,0.99998939,0,0)"/><ellipse style="fill:#fff;fill-opacity:1;stroke:#000;stroke-width:1.00172198;stroke-miterlimit:4;stroke-dasharray:none;stroke-opacity:1" id="path3770" cx="841.307" cy="530.423" rx="3.814" ry="3.777" transform="matrix(0.53059403,0.84762608,-0.80077327,0.59896759,0,0)"/><ellipse style="fill:#fff;fill-opacity:1;stroke:#000;stroke-width:1.00013208;stroke-miterlimit:4;stroke-dasharray:none;stroke-opacity:1" id="path3792-5-0" cx="-1025.36" cy="185.809" rx="1.45" ry="3.822" transform="matrix(0.15508054,-0.98790183,0.99120477,0.13233708,0,0)"/><circle transform="matrix(0.8660254,0.5,-0.5,0.8660254,0,0)" style="fill:#fff;fill-opacity:1;stroke:#000;stroke-width:1;stroke-miterlimit:4;stroke-dasharray:none;stroke-opacity:1" id="path3794-4" cx="533.236" cy="881.661" r=".391"/><ellipse style="fill:#fff;fill-opacity:1;stroke:#000;stroke-width:1;stroke-miterlimit:4;stroke-dasharray:none;stroke-opacity:1" id="path3792-4" cx="814.288" cy="-633.201" rx="1.422" ry="3.804" transform="matrix(-0.60493781,0.79627272,-0.79627272,-0.60493781,0,0)"/><path style="fill:#fff;fill-opacity:1;stroke:#000;stroke-width:.99999994;stroke-miterlimit:4;stroke-dasharray:none;stroke-opacity:1" id="path3796-7-5" d="m 18.327516,1047.2719 a 3.2893836,1.9462298 89.003088 0 0 2.000043,3.2605 3.2893836,1.9462298 89.003088 0 0 1.892011,-3.3173 3.2893836,1.9462298 89.003088 0 0 -2.00004,-3.2605 3.2893836,1.9462298 89.003088 0 0 -1.892014,3.3173 z"/><path style="fill:#fff;fill-opacity:1;stroke:#000;stroke-width:1;stroke-miterlimit:4;stroke-dasharray:none;stroke-opacity:1" id="path3766-8-2" d="m 18.697562,1049.8215 a 2.0604898,1.1225084 20.934608 0 0 1.519955,1.7851 2.0604898,1.1225084 20.934608 0 0 2.327808,-0.3095 2.0604898,1.1225084 20.934608 0 0 -1.519953,-1.7851 2.0604898,1.1225084 20.934608 0 0 -2.32781,0.3095 z"/><circle transform="matrix(0.8660254,0.5,-0.5,0.8660254,0,0)" style="fill:#fff;fill-opacity:1;stroke:#000;stroke-width:1;stroke-miterlimit:4;stroke-dasharray:none;stroke-opacity:1" id="path3794-4-3" cx="536.228" cy="881.203" r=".391"/></g></svg>