<svg xmlns="http://www.w3.org/2000/svg" xmlns:svg="http://www.w3.org/2000/svg" id="svg2" width="32" height="32" version="1.1"><metadata id="metadata7"/><g id="layer1" transform="translate(0,-1020.3622)"><path style="fill:#fff;fill-opacity:1;stroke:#000;stroke-opacity:1;stroke-width:3.40439435000000001;stroke-miterlimit:4;stroke-dasharray:none;opacity:.66" id="path3770" d="m 21.617778,9.8488894 c 0,2.1796836 -2.164952,3.9466666 -4.835555,3.9466666 -2.670604,0 -4.835556,-1.766983 -4.835556,-3.9466666 0,-2.1796839 2.164952,-3.9466668 4.835556,-3.9466668 2.670603,0 4.835555,1.7669829 4.835555,3.9466668 z" transform="matrix(-0.07181033,-0.1434865,0.40135471,-0.39956692,10.599482,1039.3993)"/><path style="fill:#fff;fill-opacity:1;stroke:#000;stroke-opacity:1;stroke-width:.84069277;stroke-miterlimit:4;stroke-dasharray:none" id="path3794" d="m 20.479999,9.7066669 c 0,0.2160047 -0.175106,0.3911111 -0.391111,0.3911111 -0.216005,0 -0.391111,-0.1751064 -0.391111,-0.3911111 0,-0.2160047 0.175106,-0.3911111 0.391111,-0.3911111 0.216005,0 0.391111,0.1751064 0.391111,0.3911111 z" transform="matrix(1.1807069,0.14432601,-0.14432601,1.1807069,-12.779952,1021.9457)"/></g></svg>