<svg xmlns="http://www.w3.org/2000/svg" xmlns:svg="http://www.w3.org/2000/svg" xmlns:xlink="http://www.w3.org/1999/xlink" id="svg2" width="32" height="32" version="1.1"><defs id="defs4"><linearGradient id="linearGradient15952"><stop style="stop-color:#7ff;stop-opacity:1" id="stop15954" offset="0"/><stop style="stop-color:#7ff;stop-opacity:0" id="stop15956" offset="1"/></linearGradient><radialGradient id="radialGradient15962" cx="16.567" cy="16.346" r="9.638" fx="16.567" fy="16.346" gradientTransform="matrix(1,0,0,0.92483654,0,1.2286562)" gradientUnits="userSpaceOnUse" xlink:href="#linearGradient15952"/></defs><metadata id="metadata7"/><g id="layer1" transform="translate(0,-1020.3622)"><path style="fill:#414345;fill-opacity:1;stroke:none" id="path3060-4" d="m 29.254993,15.830788 c 0,7.725496 -5.875539,13.988248 -13.123384,13.988248 -7.2478451,0 -13.1233845,-6.262752 -13.1233845,-13.988248 0,-7.7254968 5.8755394,-13.9882492 13.1233845,-13.9882492 7.247845,0 13.123384,6.2627524 13.123384,13.9882492 z" transform="matrix(0.7200886,0,0,0.67556705,5.0910391,1026.1491)"/><path style="fill:#0ff;fill-opacity:1;stroke:#000;stroke-width:1;stroke-miterlimit:4;stroke-opacity:1;stroke-dasharray:none" id="path3060" d="m 29.254993,15.830788 c 0,7.725496 -5.875539,13.988248 -13.123384,13.988248 -7.2478451,0 -13.1233845,-6.262752 -13.1233845,-13.988248 0,-7.7254968 5.8755394,-13.9882492 13.1233845,-13.9882492 7.247845,0 13.123384,6.2627524 13.123384,13.9882492 z" transform="matrix(0.69446073,0,0,0.65152366,4.8044583,1025.8297)"/><path style="fill:#fff;fill-opacity:1;stroke:#000;stroke-opacity:1" id="path3768" d="m 18.631111,21.297777 a 5.3688889,8.6400003 0 1 1 -10.7377776,0 5.3688889,8.6400003 0 1 1 10.7377776,0 z" transform="matrix(0.56350196,-0.00191672,0.00223067,0.48419364,8.7057249,1028.6101)"/><path style="fill:#fff;fill-opacity:1;stroke:#000;stroke-opacity:1" id="path3792" d="m 21.191111,22.151112 a 1.4222223,3.8044446 0 1 1 -2.844445,0 1.4222223,3.8044446 0 1 1 2.844445,0 z" transform="matrix(-0.33740632,0.44694181,-0.44694181,-0.33740632,31.247585,1035.7182)"/><path style="fill:#fff;fill-opacity:1;stroke:#000;stroke-opacity:1" id="path3796" d="m 17.493333,27.946667 a 3.6977777,2.2755556 0 1 1 -7.395556,0 3.6977777,2.2755556 0 1 1 7.395556,0 z" transform="matrix(0.29471085,0.00430498,-0.01329266,0.80938687,10.127101,1018.3661)"/><path style="fill:#fff;fill-opacity:1;stroke:#000;stroke-opacity:1" id="path3766" d="m 20.906667,29.475555 a 3.3777778,1.1733333 0 1 1 -6.755556,0 3.3777778,1.1733333 0 1 1 6.755556,0 z" transform="matrix(0.34160646,-7.311864e-4,0.00217217,0.53573964,7.890347,1026.7656)"/><path style="fill:#fff;fill-opacity:1;stroke:#000;stroke-opacity:1" id="path3796-7" d="m 17.493333,27.946667 a 3.6977777,2.2755556 0 1 1 -7.395556,0 3.6977777,2.2755556 0 1 1 7.395556,0 z" transform="matrix(-0.29471085,0.00430498,0.01329266,0.80938687,22.4129,1018.4382)"/><path style="fill:#fff;fill-opacity:1;stroke:#000;stroke-opacity:1" id="path3766-8" d="m 20.906667,29.475555 a 3.3777778,1.1733333 0 1 1 -6.755556,0 3.3777778,1.1733333 0 1 1 6.755556,0 z" transform="matrix(-0.34160646,-7.311864e-4,-0.00217217,0.53573964,24.649654,1026.8377)"/><path style="fill:#fff;fill-opacity:1;stroke:#000;stroke-opacity:1" id="path3770-7" d="m 21.617778,9.8488894 a 4.8355556,3.9466667 0 1 1 -9.671111,0 4.8355556,3.9466667 0 1 1 9.671111,0 z" transform="matrix(-0.27514322,0.41546706,0.43386732,0.3109103,17.948389,1023.7967)"/><path style="fill:#fff;fill-opacity:1;stroke:#000;stroke-opacity:1" id="path3772" d="m 13.582223,7.6088891 a 3.3777778,1.6355555 0 1 1 -6.7555559,0 3.3777778,1.6355555 0 1 1 6.7555559,0 z" transform="matrix(0.42598238,-0.2803065,0.22959853,0.38429221,8.94679,1033.005)"/><path style="fill:#4d4d4b;fill-opacity:1;stroke:#000;stroke-opacity:1" id="path3772-7" d="m 13.582223,7.6088891 a 3.3777778,1.6355555 0 1 1 -6.7555559,0 3.3777778,1.6355555 0 1 1 6.7555559,0 z" transform="matrix(-0.33217244,-0.4110452,0.37463249,-0.28180318,20.785688,1040.6756)"/><path style="fill:#fff;fill-opacity:1;stroke:#000;stroke-opacity:1" id="path3794" d="m 20.479999,9.7066669 a 0.39111111,0.39111111 0 1 1 -0.782222,0 0.39111111,0.39111111 0 1 1 0.782222,0 z" transform="matrix(-0.51175821,-0.22738411,-0.22738411,0.51175821,30.660548,1033.9805)"/><path style="fill:#fff;fill-opacity:1;stroke:#000;stroke-opacity:1" id="path3794-2" d="m 20.479999,9.7066669 a 0.39111111,0.39111111 0 1 1 -0.782222,0 0.39111111,0.39111111 0 1 1 0.782222,0 z" transform="matrix(-0.51175821,-0.22738411,-0.22738411,0.51175821,29.326587,1033.3812)"/><g id="g7472"><path id="path7275" d="m 16.169213,7.6333725 -0.07521,11.0176265 c -0.36831,0.906334 -1.3803,0.894981 -1.767332,-0.112804 l 0,-0.0376 0,0" transform="translate(0,1020.3622)" style="fill:none;stroke:#000;stroke-width:.6;stroke-linecap:round;stroke-linejoin:miter;stroke-opacity:1;marker-end:none;stroke-miterlimit:4;stroke-dasharray:none"/><path id="path7468" d="M 4.1797043,7.5887889 A 6.7685075,4.8319626 0 1 1 17.696737,7.7016943 L 10.942421,7.3889542 z" transform="translate(5.1139836,1025.8522)" style="fill:#00c800;fill-opacity:1;stroke:#000;stroke-width:.5;stroke-linecap:round;stroke-miterlimit:4;stroke-opacity:1;stroke-dasharray:none"/></g><path style="fill:#fff;fill-opacity:1;stroke:#000;stroke-opacity:1" id="path3792-5" d="m 21.191111,22.151112 a 1.4222223,3.8044446 0 1 1 -2.844445,0 1.4222223,3.8044446 0 1 1 2.844445,0 z" transform="matrix(-0.21951944,-0.52724805,0.51424176,-0.22810804,10.73971,1053.034)"/></g></svg>