<svg xmlns="http://www.w3.org/2000/svg" xmlns:svg="http://www.w3.org/2000/svg" xmlns:xlink="http://www.w3.org/1999/xlink" id="svg2" width="32" height="32" version="1.1"><defs id="defs4"><linearGradient id="linearGradient15952"><stop style="stop-color:#7ff;stop-opacity:1" id="stop15954" offset="0"/><stop style="stop-color:#7ff;stop-opacity:0" id="stop15956" offset="1"/></linearGradient><radialGradient id="radialGradient15962" cx="16.567" cy="16.346" r="9.638" fx="16.567" fy="16.346" gradientTransform="matrix(1,0,0,0.92483654,0,1.2286562)" gradientUnits="userSpaceOnUse" xlink:href="#linearGradient15952"/></defs><metadata id="metadata7"/><g id="layer1" transform="translate(0,-1020.3622)"><path style="fill:#414345;fill-opacity:1;stroke:none" id="path3060-4" d="m 29.254993,15.830788 a 13.123384,13.988249 0 1 1 -26.2467685,0 13.123384,13.988249 0 1 1 26.2467685,0 z" transform="matrix(0.7200886,0,0,0.67556705,5.0910391,1026.1491)"/><path style="fill:#00f;fill-opacity:1;stroke:#000;stroke-width:1;stroke-miterlimit:4;stroke-opacity:1;stroke-dasharray:none" id="path3060" d="m 29.254993,15.830788 a 13.123384,13.988249 0 1 1 -26.2467685,0 13.123384,13.988249 0 1 1 26.2467685,0 z" transform="matrix(0.69446073,0,0,0.65152366,4.8044583,1025.8297)"/><g id="g4823" transform="matrix(0.56,0,0,0.56,6.773922,453.78968)"><path id="path3768" d="m 18.631111,21.297777 c 0,4.771741 -2.403733,8.640001 -5.368889,8.640001 -2.965155,0 -5.3688886,-3.86826 -5.3688886,-8.640001 0,-4.77174 2.4037336,-8.64 5.3688886,-8.64 2.965156,0 5.368889,3.86826 5.368889,8.64 z" transform="matrix(1.0062535,-0.00342271,0.00398334,0.8646315,3.4496481,1026.465)" style="fill:#fff;fill-opacity:1;stroke:#000;stroke-opacity:1"/><path id="path3792-5" d="m 21.191111,22.151112 c 0,2.101136 -0.636751,3.804444 -1.422223,3.804444 -0.785471,0 -1.422222,-1.703308 -1.422222,-3.804444 0,-2.101137 0.636751,-3.804445 1.422222,-3.804445 0.785472,0 1.422223,1.703308 1.422223,3.804445 z" transform="matrix(-0.47398993,-0.90302053,0.87852584,-0.48720552,14.216632,1067.7971)" style="fill:#fff;fill-opacity:1;stroke:#000;stroke-opacity:1"/><path id="path3792" d="m 21.191111,22.151112 c 0,2.101136 -0.636751,3.804444 -1.422223,3.804444 -0.785471,0 -1.422222,-1.703308 -1.422222,-3.804444 0,-2.101137 0.636751,-3.804445 1.422222,-3.804445 0.785472,0 1.422223,1.703308 1.422223,3.804445 z" transform="matrix(-0.28285606,0.95916238,-0.95916238,-0.28285606,36.049425,1027.1475)" style="fill:#fff;fill-opacity:1;stroke:#000;stroke-opacity:1"/><path id="path3772" d="m 13.582223,7.6088891 c 0,0.9032924 -1.512283,1.6355555 -3.377778,1.6355555 -1.8654953,0 -3.3777779,-0.7322631 -3.3777779,-1.6355555 0,-0.9032924 1.5122826,-1.6355555 3.3777779,-1.6355555 1.865495,0 3.377778,0.7322631 3.377778,1.6355555 z" transform="matrix(-0.00564597,0.91057899,-0.79840092,-0.03967083,21.621931,1020.5153)" style="fill:#fff;fill-opacity:1;stroke:#000;stroke-opacity:1"/><path id="path3796" d="m 17.493333,27.946667 c 0,1.256754 -1.655552,2.275555 -3.697778,2.275555 -2.042226,0 -3.697778,-1.018801 -3.697778,-2.275555 0,-1.256755 1.655552,-2.275556 3.697778,-2.275556 2.042226,0 3.697778,1.018801 3.697778,2.275556 z" transform="matrix(0.52626937,0.00768747,-0.0237369,1.4453337,5.9878197,1008.1721)" style="fill:#fff;fill-opacity:1;stroke:#000;stroke-opacity:1"/><path id="path3766" d="m 20.906667,29.475555 c 0,0.648015 -1.512283,1.173334 -3.377778,1.173334 -1.865495,0 -3.377778,-0.525319 -3.377778,-1.173334 0,-0.648014 1.512283,-1.173333 3.377778,-1.173333 1.865495,0 3.377778,0.525319 3.377778,1.173333 z" transform="matrix(0.61001154,-0.00130569,0.00387887,0.95667793,1.9936161,1023.1713)" style="fill:#fff;fill-opacity:1;stroke:#000;stroke-opacity:1"/><path id="path3796-7" d="m 17.493333,27.946667 c 0,1.256754 -1.655552,2.275555 -3.697778,2.275555 -2.042226,0 -3.697778,-1.018801 -3.697778,-2.275555 0,-1.256755 1.655552,-2.275556 3.697778,-2.275556 2.042226,0 3.697778,1.018801 3.697778,2.275556 z" transform="matrix(-0.52626937,0.00768747,0.0237369,1.4453337,27.926746,1008.3009)" style="fill:#fff;fill-opacity:1;stroke:#000;stroke-opacity:1"/><path id="path3766-8" d="m 20.906667,29.475555 c 0,0.648015 -1.512283,1.173334 -3.377778,1.173334 -1.865495,0 -3.377778,-0.525319 -3.377778,-1.173334 0,-0.648014 1.512283,-1.173333 3.377778,-1.173333 1.865495,0 3.377778,0.525319 3.377778,1.173333 z" transform="matrix(-0.61001154,-0.00130569,-0.00387887,0.95667793,31.92095,1023.3001)" style="fill:#fff;fill-opacity:1;stroke:#000;stroke-opacity:1"/><path id="path3770-7" d="m 21.617778,9.8488894 c 0,2.1796836 -2.164952,3.9466666 -4.835555,3.9466666 -2.670604,0 -4.835556,-1.766983 -4.835556,-3.9466666 0,-2.1796839 2.164952,-3.9466668 4.835556,-3.9466668 2.670603,0 4.835555,1.7669829 4.835555,3.9466668 z" transform="matrix(-0.87317333,0.17144822,0.14907005,0.94142425,28.485424,1022.5485)" style="fill:#fff;fill-opacity:1;stroke:#000;stroke-opacity:1"/><path id="path3772-7" d="m 13.582223,7.6088891 c 0,0.9032924 -1.512283,1.6355555 -3.377778,1.6355555 -1.8654953,0 -3.3777779,-0.7322631 -3.3777779,-1.6355555 0,-0.9032924 1.5122826,-1.6355555 3.3777779,-1.6355555 1.865495,0 3.377778,0.7322631 3.377778,1.6355555 z" transform="matrix(-0.15064928,0.93162182,-0.82124471,-0.16226679,26.354801,1022.1114)" style="fill:#4d4d4b;fill-opacity:1;stroke:#000;stroke-opacity:1"/><path id="path3794" d="m 20.479999,9.7066669 c 0,0.2160047 -0.175106,0.3911111 -0.391111,0.3911111 -0.216005,0 -0.391111,-0.1751064 -0.391111,-0.3911111 0,-0.2160047 0.175106,-0.3911111 0.391111,-0.3911111 0.216005,0 0.391111,0.1751064 0.391111,0.3911111 z" transform="matrix(-1,0,0,1,34.498879,1024.3325)" style="fill:#fff;fill-opacity:1;stroke:#000;stroke-opacity:1"/><path id="path3794-2" d="m 20.479999,9.7066669 c 0,0.2160047 -0.175106,0.3911111 -0.391111,0.3911111 -0.216005,0 -0.391111,-0.1751064 -0.391111,-0.3911111 0,-0.2160047 0.175106,-0.3911111 0.391111,-0.3911111 0.216005,0 0.391111,0.1751064 0.391111,0.3911111 z" transform="matrix(-1,0,0,1,32.357528,1023.449)" style="fill:#fff;fill-opacity:1;stroke:#000;stroke-opacity:1"/></g></g></svg>