<svg xmlns="http://www.w3.org/2000/svg" xmlns:svg="http://www.w3.org/2000/svg" id="svg2" width="32" height="32" version="1.1"><defs id="defs4"><linearGradient id="linearGradient15952"><stop style="stop-color:#7778ff;stop-opacity:1" id="stop15954" offset="0"/><stop style="stop-color:#7ff;stop-opacity:0" id="stop15956" offset="1"/></linearGradient></defs><metadata id="metadata7"/><g id="layer1" transform="translate(0,-1020.3622)"><path style="fill:#414345;fill-opacity:1;stroke:none" id="path3060-4" d="m 29.254993,15.830788 c 0,7.725496 -5.875539,13.988248 -13.123384,13.988248 -7.2478451,0 -13.1233845,-6.262752 -13.1233845,-13.988248 0,-7.7254968 5.8755394,-13.9882492 13.1233845,-13.9882492 7.247845,0 13.123384,6.2627524 13.123384,13.9882492 z" transform="matrix(0.72014346,0,0,0.67358049,5.0901925,1026.2087)"/><path style="fill:#ff2a30;fill-opacity:1;stroke:#000;stroke-width:1;stroke-miterlimit:4;stroke-opacity:1;stroke-dasharray:none" id="path3060" d="m 29.254993,15.830788 c 0,7.725496 -5.875539,13.988248 -13.123384,13.988248 -7.2478451,0 -13.1233845,-6.262752 -13.1233845,-13.988248 0,-7.7254968 5.8755394,-13.9882492 13.1233845,-13.9882492 7.247845,0 13.123384,6.2627524 13.123384,13.9882492 z" transform="matrix(0.69451364,0,0,0.64960781,4.8035898,1025.8902)"/><rect style="fill:#5a5a58;fill-opacity:1;stroke:none" id="rect3021" width="1.812" height="15.107" x="17.481" y="1028.658"/><g id="g3319" transform="matrix(0.47526119,0,0,0.47526119,13.010793,548.31127)"><path id="path3772-7-8" d="m 13.582223,7.6088891 c 0,0.9032924 -1.512283,1.6355555 -3.377778,1.6355555 -1.8654953,0 -3.3777779,-0.7322631 -3.3777779,-1.6355555 0,-0.9032924 1.5122826,-1.6355555 3.3777779,-1.6355555 1.865495,0 3.377778,0.7322631 3.377778,1.6355555 z" transform="matrix(0.86457521,-0.23066674,0.23066674,0.86457521,-9.9000213,1008.2536)" style="fill:#4d4d4b;fill-opacity:1;stroke:#000;stroke-opacity:1"/><path id="path3766-3-8" d="m 20.906667,29.475555 c 0,0.648015 -1.512283,1.173334 -3.377778,1.173334 -1.865495,0 -3.377778,-0.525319 -3.377778,-1.173334 0,-0.648014 1.512283,-1.173333 3.377778,-1.173333 1.865495,0 3.377778,0.525319 3.377778,1.173333 z" style="fill:#fff;fill-opacity:1;stroke:#000;stroke-opacity:1" transform="matrix(0.7577221,0.65257737,-0.65257737,0.7577221,12.39475,1005.9567)"/><path id="path3766-0" d="m 20.906667,29.475555 c 0,0.648015 -1.512283,1.173334 -3.377778,1.173334 -1.865495,0 -3.377778,-0.525319 -3.377778,-1.173334 0,-0.648014 1.512283,-1.173333 3.377778,-1.173333 1.865495,0 3.377778,0.525319 3.377778,1.173333 z" transform="matrix(0.9644005,0.26444596,-0.26444596,0.9644005,-3.0242303,1007.0423)" style="fill:#fff;fill-opacity:1;stroke:#000;stroke-opacity:1"/><path id="path3768-4" d="m 18.631111,21.297777 c 0,4.771741 -2.403733,8.640001 -5.368889,8.640001 -2.965155,0 -5.3688886,-3.86826 -5.3688886,-8.640001 0,-4.77174 2.4037336,-8.64 5.3688886,-8.64 2.965156,0 5.368889,3.86826 5.368889,8.64 z" transform="matrix(0.93263367,0.1662954,-0.24475057,1.0251938,-4.8433873,1003.7891)" style="fill:#fff;fill-opacity:1;stroke:#000;stroke-opacity:1"/><path id="path3770-5" d="m 21.617778,9.8488894 c 0,2.1796836 -2.164952,3.9466666 -4.835555,3.9466666 -2.670604,0 -4.835556,-1.766983 -4.835556,-3.9466666 0,-2.1796839 2.164952,-3.9466668 4.835556,-3.9466668 2.670603,0 4.835555,1.7669829 4.835555,3.9466668 z" transform="matrix(0.89962282,-0.39240989,0.37993661,0.87102707,-15.369813,1013.2824)" style="fill:#fff;fill-opacity:1;stroke:#000;stroke-opacity:1"/><path id="path3792-2" d="m 21.191111,22.151112 c 0,2.101136 -0.636751,3.804444 -1.422223,3.804444 -0.785471,0 -1.422222,-1.703308 -1.422222,-3.804444 0,-2.101137 0.636751,-3.804445 1.422222,-3.804445 0.785472,0 1.422223,1.703308 1.422223,3.804445 z" transform="matrix(-0.9009412,-0.49108485,0.4231127,-0.96633417,15.537636,1048.4578)" style="fill:#fff;fill-opacity:1;stroke:#000;stroke-opacity:1"/><path id="path3772-8" d="m 13.582223,7.6088891 c 0,0.9032924 -1.512283,1.6355555 -3.377778,1.6355555 -1.8654953,0 -3.3777779,-0.7322631 -3.3777779,-1.6355555 0,-0.9032924 1.5122826,-1.6355555 3.3777779,-1.6355555 1.865495,0 3.377778,0.7322631 3.377778,1.6355555 z" transform="matrix(0.97792835,-0.20894057,0.20894057,0.97792835,-13.127112,1008.9971)" style="fill:#fff;fill-opacity:1;stroke:#000;stroke-opacity:1"/><path id="path3794-7" d="m 20.479999,9.7066669 c 0,0.2160047 -0.175106,0.3911111 -0.391111,0.3911111 -0.216005,0 -0.391111,-0.1751064 -0.391111,-0.3911111 0,-0.2160047 0.175106,-0.3911111 0.391111,-0.3911111 0.216005,0 0.391111,0.1751064 0.391111,0.3911111 z" transform="matrix(0.83324436,-0.55290492,0.55290492,0.83324436,-18.13987,1016.8561)" style="fill:#fff;fill-opacity:1;stroke:#000;stroke-opacity:1"/><path id="path3796-0" d="m 17.493333,27.946667 c 0,1.256754 -1.655552,2.275555 -3.697778,2.275555 -2.042226,0 -3.697778,-1.018801 -3.697778,-2.275555 0,-1.256755 1.655552,-2.275556 3.697778,-2.275556 2.042226,0 3.697778,1.018801 3.697778,2.275556 z" transform="matrix(0.77154731,0.35727864,-0.88618294,1.0480407,17.669899,1003.3992)" style="fill:#fff;fill-opacity:1;stroke:#000;stroke-opacity:1"/></g></g></svg>