<svg xmlns="http://www.w3.org/2000/svg" xmlns:svg="http://www.w3.org/2000/svg" id="svg2" width="65" height="65" version="1.1"><metadata id="metadata7"/><g id="layer1" transform="translate(0,-987.3622)"><path style="fill:#646464;fill-opacity:1;stroke:none" id="path3186" d="m 65.213305,1052.763 c -0.1599,0 0.0844,0 0.13205,0 l 0.067,0 0.067,0 0,-0.048 2.42109,-68.00761 -52.67885,-0.036 0.234,1.5687 0.173183,0.80426 0.299296,0.75203 -0.319734,1.16631 -0.734845,0.5642 0.098,0.8866 0.025,0.41809 0.925809,0.67932 -0.980809,0.62057 1.00535,1.59553 -0.69435,2.26939 -0.2985,1.3188 0.995035,0.39647 -1.047635,0.93898 0.841059,0.8933 -0.04466,2.49326 -0.319838,0.9203 -1.800079,0.9567 -0.408395,-0.8018 -0.99803,0.4576 -1.523859,-0.8481 -0.9632218,0.6181 -1.7616187,0.3519 -0.4086594,-0.5147 -0.3935187,0.64 -3.0979813,-0.2795 -0.463,-0.4445 -0.4740999,0.2409 -2.37200016,-0.5223 -0.8198,0.3038 -2.05799994,0.019 -0.4665,49.4499"/><path style="fill:#fff;fill-opacity:1;stroke:none" id="path3186-1" d="m 66.333826,1054.5971 c -0.1599,0 0.0844,0 0.13205,0 l 0.067,0 0.067,0 0,-0.048 2.500757,-68.48563 -52.758507,-0.11566 0.234,2.1263 -0.01,0.9457 -0.4336,0.5274 0.1794,1.2495 0.145,0.7522 -0.3659,0.6986 -0.2414,0.19886 0.1369,0.46106 0.7653,-0.11102 -0.5718,2.8478 0.1931,2.56123 0.366966,0.3733 -0.441566,0.1184 -0.2765,1.78776 0.5364,1.104 -0.41638,1.7304 -0.761925,0.3625 -0.268395,0.6945 -1.7371,-0.1224 -1.402182,-0.1193 -1.334219,0.07 -0.9938001,-0.2496 -1.7939,0.6548 0.124,0.8441 -1.4716,-0.6 -1.3601,0.5168 -0.5965987,-1.2169 -1.7056013,0.5244 -2.08835747,-1.2254 -1.79634253,1.5155 -0.4666,49.4498"/></g></svg>