<svg xmlns="http://www.w3.org/2000/svg" xmlns:svg="http://www.w3.org/2000/svg" id="svg2" width="64" height="32" version="1.1"><metadata id="metadata7"/><g id="layer1" transform="translate(0,-1020.3622)"><path style="fill:#646464;fill-opacity:1;stroke:none" id="path3186" d="m 48.062645,1053.6273 -0.674549,-1.9841 0.837259,0.1029 -0.194241,-0.519 0.02977,-1.2336 -0.597534,-0.9551 0.896903,-0.3745 -0.823251,-0.9956 0.510839,-0.6838 -0.0027,-1.1932 -0.0041,-1.8563 -0.209353,-1.2815 -0.197809,-0.409 0.04977,-0.4972 0.281306,-1.6792 -0.313925,-1.4062 0.305876,-0.4495 -0.101814,-0.9469 0.612978,-0.6887 -0.408554,-1.2372 -0.762359,-1.6911 0.841661,-4.2106 1.841615,-0.2092 -1.862144,-0.7618 0.253166,-2.0111 -0.14072,-0.8607 0.03494,-1.9886 -0.251709,-0.8541 0.278139,-0.6498 -0.443109,-0.9726 0.132291,-1.0994 0.03466,0 0,-0.1387 0,-0.069 0,-0.035 0,0.035 0,-0.104 0,-0.035 0,-0.035 -0.03466,0 -50.052069,-1.2651 -0.03466,36.1698 49.99141,0.6846"/><path style="fill:#fff;fill-opacity:1;stroke:none" id="path3186-7" d="m 47.713618,1053.5102 -0.4559,-1.1848 0.1371,-1.4805 0.4284,-0.9538 -0.531883,-0.5196 -0.545277,-0.5788 0.69076,-0.202 0.2621,-1.7236 0,-1.1933 0.4419,-0.7212 -0.4419,-1.1351 -0.976118,-1.7458 0.385252,-0.6045 -0.202552,-0.557 0.628939,-1.4016 -0.538039,-0.9718 1.129918,-2.0774 -0.4085,-1.2373 -0.51935,-1.5695 0.155003,-2.2457 0.443603,-2.1306 1.118358,-0.2911 -1.182894,-0.4511 0.242868,-1.842 -0.01194,-0.5526 -0.07445,-0.6619 0.4289,-0.7993 -0.3939,-1.1892 -0.473385,-0.7597 0.499385,-0.7443 -0.3108,-2.072 0.035,0 0,-0.1386 0,-0.069 0,-0.035 0,0.035 0,-0.104 0,-0.035 0,-0.035 -0.035,0 -50.0519509,-1.2652 -0.042,36.1699 49.9913509,0.6846"/></g></svg>