<svg xmlns="http://www.w3.org/2000/svg" xmlns:svg="http://www.w3.org/2000/svg" id="svg2" width="32" height="65" version="1.1"><metadata id="metadata7"/><g id="layer1" transform="translate(0,-987.3622)"><path style="fill:#646464;fill-opacity:1;stroke:none" id="path3186" d="m 32.049275,1003.2109 -1.8925,-0.2543 -2.37645,0.2763 -1.20345,0.044 -0.5175,1.1887 -0.4534,-1.135 -1.3937,-0.418 -1.0164,-0.3897 -2.38095,0.6941 -0.3975,-1.7338 -0.60355,1.991 -1.0375,-0.3444 -0.9719,0.2433 -1.4221,-0.038 -2.3347,0.2669 -0.38075,-0.2395 -0.48065,0.06 -3.4832368,0.062 -1.0252636,-0.1605 -0.6643196,0.1289 -0.2943688,0.4684 -0.3972116,-0.3623 -3.5252,-0.1638 -0.4444,0.499 -1.051175,-0.925 -2.76417505,0.045 -0.27605,0.4472 -0.1387,0 -0.069,0 -0.035,0 0.035,0 -0.10400015,0 -0.035,0 -0.035,0 0,0.035 -1.2651,50.052 36.1698006,0.035 0.6846,-49.9914"/><path style="fill:#fff;fill-opacity:1;stroke:none" id="path3186-7" d="m 30.502239,1003.501 -0.213498,0.773 -0.5342,-0.7679 -0.6203,0.8289 -0.6178,0.3022 -0.8182,-0.6196 -0.637718,0.1802 -1.305682,0.3688 -1.45785,-1.5096 -0.69825,0.4037 -0.2459,0.8177 -0.73245,-0.7863 -1.085,-0.2451 -1.91335,1.7404 -0.38565,-1.1812 -0.8766,0.043 -0.6002,0.1387 -2.50925,0.9602 0.5818,-0.9154 -2.14185,-0.1442 -0.5123,-0.274 -1.3243,0.947 -2.5252005,-0.5774 -1.0645,0.1617 -0.8724,-0.039 -1.4948,0.065 -1.1606,-0.7329 -1.3168,1.4375 -1.2197,-1.5741 -0.1602446,0.4629 -0.2527554,-0.3998 -1.60011644,0.6043 -2.03758376,-0.398 0.5490002,0.1279 0.54639996,-0.2762 0.27475,0.625 -0.37875,-0.625 0.0975,0.4687 -0.1665,-0.4687 -0.035,0 -0.035,0 0,0.035 -1.26520016,50.0519 36.1699007,0.042 0.6846,-49.9913"/></g></svg>