<svg xmlns="http://www.w3.org/2000/svg" xmlns:svg="http://www.w3.org/2000/svg" id="svg2" width="32" height="65" version="1.1"><metadata id="metadata7"/><g id="layer1" transform="translate(0,-987.3622)"><path style="fill:#646464;fill-opacity:1;stroke:none" id="path3186" d="m 32.127706,1003.1459 -1.8925,-0.2543 -1.6577,0.6825 -1.9222,-0.2997 -0.455,-0.155 -0.5159,0.2087 -1.3937,-0.418 -1.0164,-0.3897 -0.5997,0.6628 -1.8975,-0.2025 c -0.5012,0.01 1.0414,1.5832 -0.8848,0.491 l -1.0375,-0.3444 -0.9719,0.2433 -1.4221,-0.038 -2.3347,0.2669 -0.38075,-0.2395 -0.48065,0.06 -3.7644864,-0.5905 -0.7440136,0.4332 -0.6643196,0.1289 -0.2943688,-1.4066 -0.3972116,1.5127 -3.5252,-0.1638 -0.4444,0.499 -1.051175,-0.925 -2.76417508,0.045 -0.27605,0.4472 -0.1387,0 -0.069,0 -0.035,0 0.035,0 -0.10400015,0 -0.035,0 -0.035,0 0,0.035 -1.2651,50.052 36.1698002,0.035 0.6846,-49.9914"/><path style="fill:#fff;fill-opacity:1;stroke:none" id="path3186-7" d="m 32.11192,1004.436 -1.744748,-0.227 -0.5342,-0.7679 -0.6203,0.8289 -0.6178,0.3022 -0.8182,-0.6196 -0.637718,0.1802 -1.305682,0.3688 -1.45785,-1.5096 -0.69825,0.4037 -0.2459,0.8177 -0.73245,-0.7863 -1.085,-0.2451 -1.1946,0.2717 -1.1044,0.2875 -0.8766,0.043 -0.6002,0.1387 -0.75925,-0.071 -1.1682,0.1158 -2.14185,-0.1442 -0.5123,-0.274 -0.6368,-0.2405 -3.2127001,0.6101 -1.0645,0.1617 -0.8724,-0.039 -1.4948,0.065 -1.1606,-0.7329 -1.6918,0.3438 -0.8447,-0.4804 -0.2852446,0.8066 -0.1277554,-0.7435 -3.6377002,0.2063 0.5490002,0.1279 0.54639993,-0.2762 0.27475,0.625 -0.37875,-0.625 0.0975,0.4687 -0.1665,-0.4687 -0.035,0 -0.035,0 0,0.035 -1.26520013,50.0519 36.1699003,0.042 0.6846,-49.9913"/></g></svg>