<svg xmlns="http://www.w3.org/2000/svg" xmlns:svg="http://www.w3.org/2000/svg" id="svg2" width="64" height="32" version="1.1"><metadata id="metadata7"/><g id="layer1" transform="translate(0,-1020.3622)"><path style="fill:#646464;fill-opacity:1;stroke:none" id="path3186" d="m 48.270235,1052.8188 0.254344,-1.8925 -0.682506,-1.6577 0.741686,-1.0383 -0.495721,-1.8548 0.418059,-1.3937 0.389654,-1.0164 -0.662747,-0.5997 0.202429,-1.8975 c -0.009,-0.5012 -1.583172,1.0414 -0.490956,-0.8848 l 0.625598,-1.0375 -0.480286,-1.6348 0.306033,-0.8842 -0.579333,-1.5468 0.17963,-1.5241 0.157339,-4.5085 -0.359958,-1.8559 0.288747,-3.0252 0.782724,-0.356 -0.778613,-0.5302 -0.02922,-3.3423 -0.04119,-0.3073 0,-0.1387 0,-0.069 0,-0.035 0,0.035 0,-0.104 0,-0.035 0,-0.035 -0.03466,0 -50.052069,-1.2651 -0.03466,36.1698 49.99141,0.6846"/><path style="fill:#fff;fill-opacity:1;stroke:none" id="path3186-7" d="m 47.03332,1052.4387 0.495005,-0.8727 0.171018,-1.7453 -0.302192,-0.6178 0.619598,-0.8182 -0.549028,-1.9434 0.572139,-1.6141 -0.52873,-0.3545 0.525943,-0.3084 -0.432396,-1.0137 0.245131,-1.085 -0.271694,-1.1946 -0.287477,-1.1044 0.488282,-1.1266 -0.390538,-0.9721 0.424535,-0.42 -0.279702,-0.7294 -0.32452,-2.2981 0.514559,-2.8285 -0.203897,-3.0958 -1.854081,-0.1042 1.762881,-0.8327 -0.502361,-0.9323 0.732883,-1.1606 -0.343763,-1.6918 0.480404,-0.8447 -0.172528,-0.788 0.403129,-3.3877 -0.627913,0.674 0.276214,0.5464 0,-0.069 0,-0.035 0,0.035 0,-0.104 0,-0.035 0,-0.035 -0.035,0 -50.0519509,-1.2652 -0.042,36.1699 49.9913509,0.6846"/></g></svg>