<svg xmlns="http://www.w3.org/2000/svg" xmlns:svg="http://www.w3.org/2000/svg" id="svg2" width="65" height="32" version="1.1"><metadata id="metadata7"/><g id="layer1" transform="translate(0,-1020.3622)"><path style="fill:#646464;fill-opacity:1;stroke:none" id="path3186" d="m 15.755683,1021.5104 -0.2543,1.8925 0.6825,1.6577 -0.299758,1.9222 -0.154996,0.455 0.208754,0.5159 -0.418,1.3937 -0.3897,1.0164 0.6628,0.5997 -0.2025,1.8975 c 0.01,0.5012 1.5832,-1.0414 0.491,0.8848 l -0.6256,1.0375 0.524494,0.9719 -0.350294,1.5471 0.5794,2.2097 -1.114597,0.037 0.934897,0.8244 -0.1573,4.5085 0.36,1.8559 -0.2888,3.0252 0.498931,0.4444 -0.503031,0.4418 0.029,3.3423 0.041,0.3073 0,0.1387 0,0.069 0,0.035 0,-0.035 0,0.104 0,0.035 0,0.035 0.035,0 50.052,1.2651 0.035,-36.1698 -49.9914,-0.6846"/><path style="fill:#fff;fill-opacity:1;stroke:none" id="path3186-7" d="m 17.02498,1021.6555 -0.495,0.8727 -0.171,1.7453 0.3022,0.6178 -0.6196,0.8182 0.549,1.9434 -0.5721,1.6141 0.5287,0.3545 -0.526,0.3084 0.4324,1.0137 -0.2451,1.085 0.2717,1.1946 0.2875,1.1044 -0.4883,1.1266 1.45116,0.6627 -1.352577,-0.022 0.147117,1.4807 0.3245,2.2981 -0.274037,0.5123 -0.240463,0.6368 0.2039,4.7752 0.130428,0.502 -0.03923,0.4349 0.5023,0.9323 -0.7329,1.1606 0.3438,1.6918 -0.4804,0.8447 0.1725,0.788 -0.4031,3.3877 0.6279,-0.674 -0.2762,-0.5464 0,0.069 0,0.035 0,-0.035 0,0.104 0,0.035 0,0.035 0.035,0 50.0519,1.2652 0.042,-36.1699 -49.9913,-0.6846"/></g></svg>