<svg xmlns="http://www.w3.org/2000/svg" xmlns:svg="http://www.w3.org/2000/svg" xmlns:xlink="http://www.w3.org/1999/xlink" id="svg2" width="32" height="32" version="1.1"><defs id="defs4"><linearGradient id="linearGradient15952"><stop style="stop-color:#7ff;stop-opacity:1" id="stop15954" offset="0"/><stop style="stop-color:#7ff;stop-opacity:0" id="stop15956" offset="1"/></linearGradient><radialGradient id="radialGradient15962" cx="16.567" cy="16.346" r="9.638" fx="16.567" fy="16.346" gradientTransform="matrix(1,0,0,0.92483654,0,1.2286562)" gradientUnits="userSpaceOnUse" xlink:href="#linearGradient15952"/></defs><metadata id="metadata7"/><g id="layer1" transform="translate(0,-1020.3622)"><path style="fill:#414345;fill-opacity:1;stroke:none" id="path3060-4" d="m 29.254993,15.830788 a 13.123384,13.988249 0 1 1 -26.2467685,0 13.123384,13.988249 0 1 1 26.2467685,0 z" transform="matrix(1.0369276,0,0,0.97281655,0.39980865,1022.1295)"/><path style="fill:#0ff;fill-opacity:1;stroke:#000;stroke-width:1;stroke-miterlimit:4;stroke-opacity:1;stroke-dasharray:none" id="path3060" d="m 29.254993,15.830788 a 13.123384,13.988249 0 1 1 -26.2467685,0 13.123384,13.988249 0 1 1 26.2467685,0 z" transform="matrix(1.0000235,0,0,0.93819407,-0.01286775,1021.6695)"/><path style="fill:#fff;fill-opacity:1;stroke:#000;stroke-opacity:1" id="path3768" d="m 18.631111,21.297777 a 5.3688889,8.6400003 0 1 1 -10.7377776,0 5.3688889,8.6400003 0 1 1 10.7377776,0 z" transform="matrix(0.81144282,-0.00276007,0.00321216,0.69723884,5.604956,1025.6733)"/><path style="fill:#fff;fill-opacity:1;stroke:#000;stroke-opacity:1" id="path3792" d="m 21.191111,22.151112 a 1.4222223,3.8044446 0 1 1 -2.844445,0 1.4222223,3.8044446 0 1 1 2.844445,0 z" transform="matrix(-0.4858651,0.6435962,-0.6435962,-0.4858651,38.065233,1035.9089)"/><path style="fill:#fff;fill-opacity:1;stroke:#000;stroke-opacity:1" id="path3796" d="m 17.493333,27.946667 a 3.6977777,2.2755556 0 1 1 -7.395556,0 3.6977777,2.2755556 0 1 1 7.395556,0 z" transform="matrix(0.42438362,0.00619918,-0.01914143,1.1655171,7.6517376,1010.9219)"/><path style="fill:#fff;fill-opacity:1;stroke:#000;stroke-opacity:1" id="path3766" d="m 20.906667,29.475555 a 3.3777778,1.1733333 0 1 1 -6.755556,0 3.3777778,1.1733333 0 1 1 6.755556,0 z" transform="matrix(0.4919133,-0.00105291,0.00312792,0.77146508,4.4308118,1023.0172)"/><path style="fill:#fff;fill-opacity:1;stroke:#000;stroke-opacity:1" id="path3796-7" d="m 17.493333,27.946667 a 3.6977777,2.2755556 0 1 1 -7.395556,0 3.6977777,2.2755556 0 1 1 7.395556,0 z" transform="matrix(-0.42438362,0.00619918,0.01914143,1.1655171,25.343287,1011.0257)"/><path style="fill:#fff;fill-opacity:1;stroke:#000;stroke-opacity:1" id="path3766-8" d="m 20.906667,29.475555 a 3.3777778,1.1733333 0 1 1 -6.755556,0 3.3777778,1.1733333 0 1 1 6.755556,0 z" transform="matrix(-0.4919133,-0.00105291,-0.00312792,0.77146508,28.564211,1023.121)"/><path style="fill:#fff;fill-opacity:1;stroke:#000;stroke-opacity:1" id="path3770-7" d="m 21.617778,9.8488894 a 4.8355556,3.9466667 0 1 1 -9.671111,0 4.8355556,3.9466667 0 1 1 9.671111,0 z" transform="matrix(-0.39620623,0.59827256,0.62476894,0.44771083,18.91439,1018.742)"/><path style="fill:#fff;fill-opacity:1;stroke:#000;stroke-opacity:1" id="path3772" d="m 13.582223,7.6088891 a 3.3777778,1.6355555 0 1 1 -6.7555559,0 3.3777778,1.6355555 0 1 1 6.7555559,0 z" transform="matrix(0.61341463,-0.40364136,0.33062189,0.55338078,5.9520898,1032.0019)"/><path style="fill:#4d4d4b;fill-opacity:1;stroke:#000;stroke-opacity:1" id="path3772-7" d="m 13.582223,7.6088891 a 3.3777778,1.6355555 0 1 1 -6.7555559,0 3.3777778,1.6355555 0 1 1 6.7555559,0 z" transform="matrix(-0.47832832,-0.59190509,0.53947079,-0.40579658,23.000101,1043.0476)"/><path style="fill:#fff;fill-opacity:1;stroke:#000;stroke-opacity:1" id="path3794" d="m 20.479999,9.7066669 a 0.39111111,0.39111111 0 1 1 -0.782222,0 0.39111111,0.39111111 0 1 1 0.782222,0 z" transform="matrix(-0.73693182,-0.32743312,-0.32743312,0.73693182,37.219899,1033.4066)"/><path style="fill:#fff;fill-opacity:1;stroke:#000;stroke-opacity:1" id="path3794-2" d="m 20.479999,9.7066669 a 0.39111111,0.39111111 0 1 1 -0.782222,0 0.39111111,0.39111111 0 1 1 0.782222,0 z" transform="matrix(-0.73693182,-0.32743312,-0.32743312,0.73693182,35.298995,1032.5437)"/><g id="g7472" transform="matrix(1.44,0,0,1.44,-6.9312878,-455.5255)"><path id="path7275" d="m 16.169213,7.6333725 -0.07521,11.0176265 c -0.36831,0.906334 -1.3803,0.894981 -1.767332,-0.112804 l 0,-0.0376 0,0" transform="translate(0,1020.3622)" style="fill:none;stroke:#000;stroke-width:.60000002;stroke-linecap:round;stroke-linejoin:miter;stroke-miterlimit:4;stroke-opacity:1;stroke-dasharray:none;marker-end:none"/><path id="path7468" d="M 4.1797043,7.5887889 C 4.0251065,4.9224529 6.9275515,2.6714913 10.662497,2.5611256 c 3.734945,-0.1103657 6.888043,1.9616577 7.042641,4.6279938 0.0099,0.1708441 0.0071,0.3419431 -0.0084,0.5125749 L 10.942421,7.3889542 z" transform="translate(5.1139836,1025.8522)" style="fill:#00c800;fill-opacity:1;stroke:#000;stroke-width:.5;stroke-linecap:round;stroke-miterlimit:4;stroke-opacity:1;stroke-dasharray:none"/></g><path style="fill:#fff;fill-opacity:1;stroke:#000;stroke-opacity:1" id="path3792-5" d="m 21.191111,22.151112 a 1.4222223,3.8044446 0 1 1 -2.844445,0 1.4222223,3.8044446 0 1 1 2.844445,0 z" transform="matrix(-0.316108,-0.75923719,0.74050813,-0.32847558,8.5338946,1060.8436)"/></g></svg>