<svg xmlns="http://www.w3.org/2000/svg" xmlns:svg="http://www.w3.org/2000/svg" id="svg2" width="32" height="32" version="1.1"><defs id="defs4"><linearGradient id="linearGradient15952"><stop style="stop-color:#7778ff;stop-opacity:1" id="stop15954" offset="0"/><stop style="stop-color:#7ff;stop-opacity:0" id="stop15956" offset="1"/></linearGradient></defs><metadata id="metadata7"/><g id="layer1" transform="translate(0,-1020.3622)"><path style="fill:#414345;fill-opacity:1;stroke:none" id="path3060-4" d="m 29.254993,15.830788 a 13.123384,13.988249 0 1 1 -26.2467685,0 13.123384,13.988249 0 1 1 26.2467685,0 z" transform="matrix(1.028698,0,0,0.96509579,0.40544549,1022.084)"/><path style="fill:#00be00;stroke:#000;stroke-width:1;stroke-miterlimit:4;stroke-opacity:1;stroke-dasharray:none;fill-opacity:1" id="path3060" d="m 29.254993,15.830788 a 13.123384,13.988249 0 1 1 -26.2467685,0 13.123384,13.988249 0 1 1 26.2467685,0 z" transform="matrix(0.99208676,0,0,0.93074809,-0.0039556,1021.6277)"/><g id="g5333" transform="matrix(0.75,0,0,0.75,6.4582843,262.30088)"><path id="path3772-7" d="m 13.582223,7.6088891 c 0,0.9032924 -1.512283,1.6355555 -3.377778,1.6355555 -1.8654953,0 -3.3777779,-0.7322631 -3.3777779,-1.6355555 0,-0.9032924 1.5122826,-1.6355555 3.3777779,-1.6355555 1.865495,0 3.377778,0.7322631 3.377778,1.6355555 z" transform="matrix(0.57517725,0.68546958,-0.68546958,0.57517725,13.162225,1007.753)" style="fill:#4d4d4b;fill-opacity:1;stroke:#000;stroke-opacity:1"/><path id="path3766-3" d="m 20.906667,29.475555 c 0,0.648015 -1.512283,1.173334 -3.377778,1.173334 -1.865495,0 -3.377778,-0.525319 -3.377778,-1.173334 0,-0.648014 1.512283,-1.173333 3.377778,-1.173333 1.865495,0 3.377778,0.525319 3.377778,1.173333 z" style="fill:#fff;fill-opacity:1;stroke:#000;stroke-opacity:1" transform="translate(-9.629401,1014.6404)"/><path id="path3766" d="m 20.906667,29.475555 c 0,0.648015 -1.512283,1.173334 -3.377778,1.173334 -1.865495,0 -3.377778,-0.525319 -3.377778,-1.173334 0,-0.648014 1.512283,-1.173333 3.377778,-1.173333 1.865495,0 3.377778,0.525319 3.377778,1.173333 z" style="fill:#fff;fill-opacity:1;stroke:#000;stroke-opacity:1" transform="translate(-9.167179,1015.8849)"/><path id="path3792-3" d="m 21.191111,22.151112 c 0,2.101136 -0.636751,3.804444 -1.422223,3.804444 -0.785471,0 -1.422222,-1.703308 -1.422222,-3.804444 0,-2.101137 0.636751,-3.804445 1.422222,-3.804445 0.785472,0 1.422223,1.703308 1.422223,3.804445 z" transform="matrix(0.85533576,-0.61788621,0.75238102,0.77768514,-14.722834,1029.5751)" style="fill:#fff;fill-opacity:1;stroke:#000;stroke-opacity:1"/><path id="path3768" d="m 18.631111,21.297777 c 0,4.771741 -2.403733,8.640001 -5.368889,8.640001 -2.965155,0 -5.3688886,-3.86826 -5.3688886,-8.640001 0,-4.77174 2.4037336,-8.64 5.3688886,-8.64 2.965156,0 5.368889,3.86826 5.368889,8.64 z" transform="matrix(0.64278762,0.76604445,-0.76604445,0.64278762,18.120678,1011.0142)" style="fill:#fff;fill-opacity:1;stroke:#000;stroke-opacity:1"/><path id="path3792" d="m 21.191111,22.151112 c 0,2.101136 -0.636751,3.804444 -1.422223,3.804444 -0.785471,0 -1.422222,-1.703308 -1.422222,-3.804444 0,-2.101137 0.636751,-3.804445 1.422222,-3.804445 0.785472,0 1.422223,1.703308 1.422223,3.804445 z" transform="matrix(0.4317994,-0.96277305,1.0404236,0.29730459,-10.797178,1044.6845)" style="fill:#fff;fill-opacity:1;stroke:#000;stroke-opacity:1"/><path id="path3770" d="m 21.617778,9.8488894 c 0,2.1796836 -2.164952,3.9466666 -4.835555,3.9466666 -2.670604,0 -4.835556,-1.766983 -4.835556,-3.9466666 0,-2.1796839 2.164952,-3.9466668 4.835556,-3.9466668 2.670603,0 4.835555,1.7669829 4.835555,3.9466668 z" transform="matrix(0.97774708,0.08554179,-0.08282272,0.94666804,1.646151,1014.4663)" style="fill:#fff;fill-opacity:1;stroke:#000;stroke-opacity:1"/><path id="path3772" d="m 13.582223,7.6088891 c 0,0.9032924 -1.512283,1.6355555 -3.377778,1.6355555 -1.8654953,0 -3.3777779,-0.7322631 -3.3777779,-1.6355555 0,-0.9032924 1.5122826,-1.6355555 3.3777779,-1.6355555 1.865495,0 3.377778,0.7322631 3.377778,1.6355555 z" transform="matrix(0.76604443,0.64278762,-0.64278762,0.76604443,9.5822829,1007.719)" style="fill:#fff;fill-opacity:1;stroke:#000;stroke-opacity:1"/><path id="path3794" d="m 20.479999,9.7066669 c 0,0.2160047 -0.175106,0.3911111 -0.391111,0.3911111 -0.216005,0 -0.391111,-0.1751064 -0.391111,-0.3911111 0,-0.2160047 0.175106,-0.3911111 0.391111,-0.3911111 0.216005,0 0.391111,0.1751064 0.391111,0.3911111 z" transform="matrix(0.9961947,-0.08715574,0.08715574,0.9961947,-2.4955177,1016.2802)" style="fill:#fff;fill-opacity:1;stroke:#000;stroke-opacity:1"/><path id="path3796" d="m 17.493333,27.946667 c 0,1.256754 -1.655552,2.275555 -3.697778,2.275555 -2.042226,0 -3.697778,-1.018801 -3.697778,-2.275555 0,-1.256755 1.655552,-2.275556 3.697778,-2.275556 2.042226,0 3.697778,1.018801 3.697778,2.275556 z" transform="translate(-7.3205464,1014.3097)" style="fill:#fff;fill-opacity:1;stroke:#000;stroke-opacity:1"/></g></g></svg>