<svg xmlns="http://www.w3.org/2000/svg" xmlns:svg="http://www.w3.org/2000/svg" id="svg2" width="48" height="48" version="1.1"><defs id="defs4"><filter style="color-interpolation-filters:sRGB" id="filter13700" width="1.096" height="1.096" x="-.048" y="-.048"><feGaussianBlur id="feGaussianBlur13702" stdDeviation="9.192"/></filter></defs><metadata id="metadata7"/><g id="layer1" transform="translate(0,-1004.3622)"><rect style="opacity:1;fill:#2f3032;fill-opacity:1;stroke:#2f3032;stroke-width:10.4113512;stroke-linecap:square;stroke-miterlimit:4;stroke-dasharray:none;stroke-dashoffset:0;stroke-opacity:1;filter:url(#filter13700)" id="rect13537-0" width="459.589" height="459.589" x="-203.385" y="794.018" transform="matrix(0.08934288,0,0,0.08934288,21.576721,938.4238)"/><rect style="opacity:1;fill:#77ff7e;fill-opacity:1;stroke:#2f3032;stroke-width:.93518859;stroke-linecap:square;stroke-miterlimit:4;stroke-dasharray:none;stroke-dashoffset:0;stroke-opacity:1" id="rect13537" width="41.029" height="41.537" x="3.667" y="1006.851"/><path style="opacity:.50700001;fill:none;fill-rule:evenodd;stroke:#000;stroke-width:.89823937;stroke-linecap:butt;stroke-linejoin:miter;stroke-miterlimit:4;stroke-dasharray:none;stroke-opacity:1" id="path13539-2-1" d="m 13.650675,1007.3187 0,40.6008"/><path style="opacity:.50700001;fill:none;fill-rule:evenodd;stroke:#000;stroke-width:.89823937;stroke-linecap:butt;stroke-linejoin:miter;stroke-miterlimit:4;stroke-dasharray:none;stroke-opacity:1" id="path13539-2-1-6" d="m 34.571934,1007.3191 -0.006,40.5962"/><path style="opacity:.50700001;fill:none;fill-rule:evenodd;stroke:#000;stroke-width:.89823937;stroke-linecap:butt;stroke-linejoin:miter;stroke-miterlimit:4;stroke-dasharray:none;stroke-opacity:1" id="path13539-2-1-9" d="m 24.10796,1007.3125 -0.0091,40.6032"/><path style="opacity:.50700001;fill:none;fill-rule:evenodd;stroke:#000;stroke-width:.89823937;stroke-linecap:butt;stroke-linejoin:miter;stroke-miterlimit:4;stroke-dasharray:none;stroke-opacity:1" id="path13539-5" d="m 4.135164,1027.5212 40.093526,0"/><path style="opacity:.50700001;fill:none;fill-rule:evenodd;stroke:#000;stroke-width:.89823937;stroke-linecap:butt;stroke-linejoin:miter;stroke-miterlimit:4;stroke-dasharray:none;stroke-opacity:1" id="path13539-2" d="m 4.1226087,1016.8848 40.1202863,-0.015"/><path style="opacity:.50700001;fill:none;fill-rule:evenodd;stroke:#000;stroke-width:.89823937;stroke-linecap:butt;stroke-linejoin:miter;stroke-miterlimit:4;stroke-dasharray:none;stroke-opacity:1" id="path13539" d="m 4.1252787,1038.1714 40.1029763,-0.015"/><g id="g7699" transform="matrix(1.0548454,0,0,1.0678949,21.498169,-67.054902)"><ellipse id="path3772-7" cx="10.204" cy="7.609" ry="1.636" transform="matrix(0.29294706,0.83696387,-0.71890482,0.34105503,4.5052692,1000.5258)" style="fill:#4d4d4b;fill-opacity:1;stroke:#000;stroke-opacity:1" rx="3.378"/><ellipse id="path3766-3" style="fill:#fff;fill-opacity:1;stroke:#000;stroke-opacity:1" cx="17.529" cy="29.476" rx="3.378" ry="1.173" transform="translate(-22.093467,1008.833)"/><ellipse id="path3768" cx="13.262" cy="21.298" ry="8.64" transform="matrix(0.74906655,0.658673,-0.51938965,0.90847519,-1.5231238,1000.145)" style="fill:#fff;fill-opacity:1;stroke:#000;stroke-opacity:1" rx="5.369"/><ellipse id="path3770" cx="16.782" cy="9.849" ry="3.947" transform="matrix(0.87850793,0.17138861,-0.14998079,0.94109695,-10.931634,1005.2548)" style="fill:#fff;fill-opacity:1;stroke:#000;stroke-opacity:1" rx="4.836"/><ellipse id="path3772" cx="10.204" cy="7.609" ry="1.636" transform="matrix(0.32116071,0.9324153,-0.75049865,0.39900826,2.7948362,999.48811)" style="fill:#fff;fill-opacity:1;stroke:#000;stroke-opacity:1" rx="3.378"/><circle id="path3794" cx="20.089" cy="9.707" transform="translate(-16.395053,1007.2198)" style="fill:#fff;fill-opacity:1;stroke:#000;stroke-opacity:1" r=".391"/><rect id="rect3921" width="2.031" height="11.958" x="517.879" y="876.59" transform="matrix(0.85776429,0.51404321,-0.51404321,0.85776429,0,0)" style="fill:#000;fill-opacity:1;stroke:none"/><rect id="rect3921-3" width="2.031" height="11.958" x="519.629" y="876.012" transform="matrix(0.85776429,0.51404321,-0.51404321,0.85776429,0,0)" style="fill:#000;fill-opacity:1;stroke:none"/><ellipse id="path3792" cx="19.769" cy="22.151" ry="3.804" transform="matrix(-0.85716831,0.49238457,-0.55371328,-0.93190172,27.369954,1031.2469)" style="fill:#fff;fill-opacity:1;stroke:#000;stroke-opacity:1" rx="1.422"/><ellipse id="path3766" cx="17.529" cy="29.476" ry="1.173" transform="translate(-20.531363,1009.7767)" style="fill:#fff;fill-opacity:1;stroke:#000;stroke-opacity:1" rx="3.378"/><ellipse id="path3796" cx="13.796" cy="27.947" ry="2.276" transform="translate(-20.000829,1009.856)" style="fill:#fff;fill-opacity:1;stroke:#000;stroke-opacity:1" rx="3.698"/><path id="path3066" d="M -0.94620271,1042.5763 12.537497,1029.3965" style="fill:none;stroke:#5a5a58;stroke-width:3;stroke-linecap:butt;stroke-linejoin:miter;stroke-miterlimit:4;stroke-dasharray:none;stroke-opacity:1"/></g><g id="g3456" transform="matrix(0.07131818,0.05436218,-0.05369788,0.07220046,22.845388,949.86702)"><path style="opacity:1;fill:red;fill-opacity:1;stroke:none;stroke-width:2.42600012;stroke-miterlimit:4;stroke-dasharray:none;stroke-dashoffset:0;stroke-opacity:1" id="rect3450" d="m 485.34618,426.72707 154.3815,18.85371 49.06621,65.16668 -271.14238,-33.05076 z"/><text id="text3452" x="538.924" y="411.439" style="font-style:normal;font-weight:400;font-size:35.18257141px;line-height:125%;font-family:Sans;letter-spacing:0;word-spacing:0;fill:#fff;fill-opacity:1;stroke:none;stroke-width:1px;stroke-linecap:butt;stroke-linejoin:miter;stroke-opacity:1" transform="matrix(0.99210569,0.12540454,-0.12540454,0.99210569,0,0)" xml:space="preserve"><tspan style="font-size:52.77385712px" id="tspan3454" x="538.924" y="411.439">FREE!</tspan></text></g></g></svg>