<svg xmlns="http://www.w3.org/2000/svg" xmlns:svg="http://www.w3.org/2000/svg" id="svg2" width="32" height="32" version="1.1"><metadata id="metadata7"/><g id="layer1" transform="translate(0,-1020.3622)"><path style="fill:none;stroke:#000;stroke-width:3.12909109;stroke-miterlimit:4;stroke-opacity:1;stroke-dasharray:none;stroke-dashoffset:0" id="path3145" d="m 26.547591,14.383079 a 11.544065,10.509988 0 1 1 -23.0881307,0 11.544065,10.509988 0 1 1 23.0881307,0 z" transform="matrix(0.91022309,0,0,0.99977992,0.34344457,1019.9823)"/><rect style="fill:#000;fill-opacity:1;stroke:none" id="rect3915" width="12" height="3" x="-763.72" y="-722.967" transform="matrix(-0.70712006,-0.70709351,0.70712006,-0.70709351,0,0)"/><rect style="fill:#000;fill-opacity:1;stroke:none" id="rect3915-6" width="12" height="3" x="-20.02" y="-1035.862" transform="matrix(-1,1.8773685e-5,1.8773685e-5,-1,0,0)"/><rect style="fill:#000;fill-opacity:1;stroke:none" id="rect3915-6-1" width="12" height="3" x="-1040.362" y="12.481" transform="matrix(-1.8771923e-5,-1,1,1.8775447e-5,0,0)"/></g></svg>